<?xml version="1.0" encoding="utf-8"?>
<!-- Generator: Adobe Illustrator 18.1.0, SVG Export Plug-In . SVG Version: 6.00 Build 0)  -->
<svg version="1.1" id="Atlas-Logo-created-by-Luigi-Assom" xmlns="http://www.w3.org/2000/svg" xmlns:xlink="http://www.w3.org/1999/xlink" x="0px" y="0px"
	 viewBox="0 0 360 360" enable-background="new 0 0 360 360" xml:space="preserve">
<symbol  id="Atlas" viewBox="-11.5 -11.5 23 22.9">
	<g>
		<path fill="#22AD81" d="M-11.5-10c0-0.8,0.6-1.4,1.4-1.4H10c0.8,0,1.4,0.6,1.4,1.4v20.1c0,0.8-0.6,1.4-1.4,1.4h-20.1
			c-0.8,0-1.4-0.6-1.4-1.4V-10z"/>
	</g>
	<path id="Around_Globe_6_" display="none" fill="none" stroke="#FFFFFF" stroke-width="0.75" stroke-miterlimit="10" d="M0.2,9.3
		c-5.4,0-9.7-4.4-9.7-9.7s4.4-9.7,9.7-9.7c5.4,0,9.7,4.4,9.7,9.7C10,5,5.6,9.3,0.2,9.3z"/>
	<path id="Around_Globe_5_" display="none" fill="#FFFFFF" d="M0.2-10.6C-5.4-10.6-10-6-10-0.4C-10,5.2-5.4,9.8,0.2,9.8
		c5.6,0,10.2-4.6,10.2-10.2S5.9-10.6,0.2-10.6z M0.2,9.3c-5.4,0-9.7-4.4-9.7-9.7s4.4-9.7,9.7-9.7c5.4,0,9.7,4.4,9.7,9.7
		C10,5,5.6,9.3,0.2,9.3z"/>
	<linearGradient id="Around_Globe_1_" gradientUnits="userSpaceOnUse" x1="5.5419" y1="7.7609" x2="-5.051" y2="-8.5506">
		<stop  offset="0" style="stop-color:#FFFFFF;stop-opacity:0"/>
		<stop  offset="1" style="stop-color:#FFFFFF"/>
	</linearGradient>
	<path id="Around_Globe_4_" opacity="0.3" fill="url(#Around_Globe_1_)" enable-background="new    " d="M0.2,9.3
		c-5.4,0-9.7-4.4-9.7-9.7s4.4-9.7,9.7-9.7c5.4,0,9.7,4.4,9.7,9.7C10,5,5.6,9.3,0.2,9.3z"/>
	<path id="Left_Hand_2_" fill="#FFFFFF" d="M-11.5,10.4V5.9c0.3-0.1,0.9-0.5,0.9-0.7c0-0.1,0.3-1.9,0.9-2.9c0.6-1,0-2.3,0-2.5
		c0-0.5,1-0.1,1.3,0.6c0.2,0.5-0.1,2.5,0.5,3.5c0.4,0.6,1.2,0.3,2.2,0c1.6-0.5,3.9-1.8,4.6-1.2c0.5,0.5,0,0.7-0.2,0.8
		c-1.3,0.2-2.1,0.7-2.9,1c-0.5,0.1-1.3,0.4-1.1,0.5c0.4,0.2,0.6,0.2,1,0.2c0,0,0,0.1,1.6-0.3C-2.4,4.7-2,4.7-1.4,4.6
		c1-0.2,1.4,0.3,1.3,0.6c-0.1,0.2-0.8,0.3-1.4,0.3c-0.4,0-0.6,0.1-1.3,0.2C-3.3,5.8-4.4,6-4.4,6.1c0,0.1,0.6,0.3,1.1,0.5
		C-2.6,6.9-2.3,6.9-2,7c0.8,0.1,1.2,0.2,1.6,0.2c0.4,0,0.5,0.3,0.3,0.5c-0.2,0.1-1.8,0.1-2.3,0c-0.5-0.1-1-0.4-1.6-0.4
		c-0.6,0-0.3,0.4,0,0.6c0.3,0.3,0.7,0.6,1.2,0.8C-2.4,8.8-1.4,9.4-2,9.5c-0.2,0-0.9-0.3-1.5-0.7c-0.6-0.4-1.2-1.1-1.5-1
		c-0.3,0-0.7,0.3-1.7,0.3c-1,0,0.4,0-1.4,0.1c-1.8,0-2.4,1.3-3,2C-11.3,10.3-11.4,10.4-11.5,10.4z"/>
	<path id="Right_Hand_2_" fill="#FFFFFF" d="M2.1-10.9c0,0,0.6,1,1.1,1.9C3.7-8,5.1-6.2,5.9-5.6c0.8,0.5,2.2,2.4,2.2,2.4
		c0.3,0.4,0.3,0.7,0.1,0.8C8-2.4,7.4-3,6.5-3.9C6.2-4.3,5.4-4.8,5.3-4.8c-0.1,0-0.1-0.1-0.2,0.1C5-4.6,7.8-1.2,8.1-0.8
		c0.3,0.4,0.1,0.7-0.2,0.6c-0.3-0.1-1.2-1.5-1.7-2C5.6-2.6,4.9-3.5,4.5-3.6C4.2-3.7,4.3-3.4,4.4-3.2C4.5-3,5.8-0.7,6-0.4
		c0.6,0.8,0.7,0.8,0.9,1.2C7.2,1.2,7,1.5,6.8,1.5c-0.3,0-1.4-1.3-1.9-2c-0.4-0.7-1.2-2-1.4-2c-0.2,0-0.2,0.2,0,0.6
		c0.2,0.4,1.1,3.8,1.2,4.2c0.1,0.4-0.4,0.3-0.4,0.3C4,2.4,2.8-0.8,2.6-1.4C2.4-1.9,2.3-2,1.4-3C0.9-3.6,0.7-2.7,0.8-2.2
		C1-1.7,1.1,0.3,0.6,0.5C0.3,0.6,0.2-0.3-0.1-1.1C-0.4-1.8-0.7-5-0.8-5.4c-0.1-0.5-1.3-3.1-2-4.2v-0.7L2.1-10.9z"/>
	<path id="D_2_" fill="#FFFFFF" d="M11.4,1c-0.2,2-0.9,3.8-2.1,5.3C8.6,7.2,7.6,8,6.4,8.8C6.3,8.9,6.2,8.9,6.1,9
		C5.8,9.2,5.6,9,5.2,8.7C5.1,8.6,4.9,8.4,4.8,8.2C7.9,6.6,10,3.3,10-0.4c0-5.4-4.4-9.7-9.7-9.7c-1.1,0-2.1,0.2-3.1,0.5
		c-0.1-0.3-0.1-0.8-0.1-1c0-0.2,0-0.4,0.4-0.5c0.1,0,0.1,0,0.2-0.1c0.7-0.2,1.4-0.3,2.3-0.3c1.5-0.1,2.9,0.2,4.3,0.7
		C5.8-10.2,7-9.5,8-8.5c1.1,1,1.9,2.2,2.5,3.6C11.3-3,11.7-1,11.4,1z"/>
</symbol>
<use xlink:href="#Atlas"  width="23" height="22.9" x="-11.5" y="-11.5" transform="matrix(15.6469 0 0 -15.6954 180 180)" overflow="visible"/>
</svg>
