<?xml version="1.0" encoding="utf-8"?>
<!-- Generator: Adobe Illustrator 18.1.0, SVG Export Plug-In . SVG Version: 6.00 Build 0)  -->
<svg version="1.1" id="Atlas-Logotype-created-by-Luigi-Assom"
	 xmlns="http://www.w3.org/2000/svg" xmlns:xlink="http://www.w3.org/1999/xlink" x="0px" y="0px" viewBox="-85.5 160.4 195 32.1"
	 enable-background="new -85.5 160.4 195 32.1" xml:space="preserve">
<symbol  id="Atlas" viewBox="-11.5 -11.5 23 22.9">
	<g>
		<path fill="#22AD80" d="M-11.5-10c0-0.8,0.6-1.4,1.4-1.4H10c0.8,0,1.4,0.6,1.4,1.4v20.1c0,0.8-0.6,1.4-1.4,1.4h-20.1
			c-0.8,0-1.4-0.6-1.4-1.4V-10z"/>
	</g>
	<path id="Around_Globe_6_" display="none" fill="none" stroke="#FFFFFF" stroke-width="0.75" stroke-miterlimit="10" d="M0.2,9.3
		c-5.4,0-9.7-4.4-9.7-9.7s4.4-9.7,9.7-9.7c5.4,0,9.7,4.4,9.7,9.7C10,5,5.6,9.3,0.2,9.3z"/>
	<path id="Around_Globe_5_" display="none" fill="#FFFFFF" d="M0.2-10.6C-5.4-10.6-10-6-10-0.4C-10,5.2-5.4,9.8,0.2,9.8
		c5.6,0,10.2-4.6,10.2-10.2S5.9-10.6,0.2-10.6z M0.2,9.3c-5.4,0-9.7-4.4-9.7-9.7s4.4-9.7,9.7-9.7c5.4,0,9.7,4.4,9.7,9.7
		C10,5,5.6,9.3,0.2,9.3z"/>
	<linearGradient id="Around_Globe_1_" gradientUnits="userSpaceOnUse" x1="5.5419" y1="7.7609" x2="-5.051" y2="-8.5506">
		<stop  offset="0" style="stop-color:#FFFFFF;stop-opacity:0"/>
		<stop  offset="1" style="stop-color:#FFFFFF"/>
	</linearGradient>
	<path id="Around_Globe_4_" opacity="0.3" fill="url(#Around_Globe_1_)" enable-background="new    " d="M0.2,9.3
		c-5.4,0-9.7-4.4-9.7-9.7s4.4-9.7,9.7-9.7c5.4,0,9.7,4.4,9.7,9.7C10,5,5.6,9.3,0.2,9.3z"/>
	<path id="Left_Hand_2_" fill="#FFFFFF" d="M-11.5,10.4V5.9c0.3-0.1,0.9-0.5,0.9-0.7c0-0.1,0.3-1.9,0.9-2.9c0.6-1,0-2.3,0-2.5
		c0-0.5,1-0.1,1.3,0.6c0.2,0.5-0.1,2.5,0.5,3.5c0.4,0.6,1.2,0.3,2.2,0c1.6-0.5,3.9-1.8,4.6-1.2c0.5,0.5,0,0.7-0.2,0.8
		c-1.3,0.2-2.1,0.7-2.9,1c-0.5,0.1-1.3,0.4-1.1,0.5c0.4,0.2,0.6,0.2,1,0.2c0,0,0,0.1,1.6-0.3C-2.4,4.7-2,4.7-1.4,4.6
		c1-0.2,1.4,0.3,1.3,0.6c-0.1,0.2-0.8,0.3-1.4,0.3c-0.4,0-0.6,0.1-1.3,0.2C-3.3,5.8-4.4,6-4.4,6.1c0,0.1,0.6,0.3,1.1,0.5
		C-2.6,6.9-2.3,6.9-2,7c0.8,0.1,1.2,0.2,1.6,0.2c0.4,0,0.5,0.3,0.3,0.5c-0.2,0.1-1.8,0.1-2.3,0c-0.5-0.1-1-0.4-1.6-0.4
		c-0.6,0-0.3,0.4,0,0.6c0.3,0.3,0.7,0.6,1.2,0.8C-2.4,8.8-1.4,9.4-2,9.5c-0.2,0-0.9-0.3-1.5-0.7c-0.6-0.4-1.2-1.1-1.5-1
		c-0.3,0-0.7,0.3-1.7,0.3c-1,0,0.4,0-1.4,0.1c-1.8,0-2.4,1.3-3,2C-11.3,10.3-11.4,10.4-11.5,10.4z"/>
	<path id="Right_Hand_2_" fill="#FFFFFF" d="M2.1-10.9c0,0,0.6,1,1.1,1.9C3.7-8,5.1-6.2,5.9-5.6c0.8,0.5,2.2,2.4,2.2,2.4
		c0.3,0.4,0.3,0.7,0.1,0.8C8-2.4,7.4-3,6.5-3.9C6.2-4.3,5.4-4.8,5.3-4.8c-0.1,0-0.1-0.1-0.2,0.1C5-4.6,7.8-1.2,8.1-0.8
		c0.3,0.4,0.1,0.7-0.2,0.6c-0.3-0.1-1.2-1.5-1.7-2C5.6-2.6,4.9-3.5,4.5-3.6C4.2-3.7,4.3-3.4,4.4-3.2C4.5-3,5.8-0.7,6-0.4
		c0.6,0.8,0.7,0.8,0.9,1.2C7.2,1.2,7,1.5,6.8,1.5c-0.3,0-1.4-1.3-1.9-2c-0.4-0.7-1.2-2-1.4-2c-0.2,0-0.2,0.2,0,0.6
		c0.2,0.4,1.1,3.8,1.2,4.2c0.1,0.4-0.4,0.3-0.4,0.3C4,2.4,2.8-0.8,2.6-1.4C2.4-1.9,2.3-2,1.4-3C0.9-3.6,0.7-2.7,0.8-2.2
		C1-1.7,1.1,0.3,0.6,0.5C0.3,0.6,0.2-0.3-0.1-1.1C-0.4-1.8-0.7-5-0.8-5.4c-0.1-0.5-1.3-3.1-2-4.2v-0.7L2.1-10.9z"/>
	<path id="D_2_" fill="#FFFFFF" d="M11.4,1c-0.2,2-0.9,3.8-2.1,5.3C8.6,7.2,7.6,8,6.4,8.8C6.3,8.9,6.2,8.9,6.1,9
		C5.8,9.2,5.6,9,5.2,8.7C5.1,8.6,4.9,8.4,4.8,8.2C7.9,6.6,10,3.3,10-0.4c0-5.4-4.4-9.7-9.7-9.7c-1.1,0-2.1,0.2-3.1,0.5
		c-0.1-0.3-0.1-0.8-0.1-1c0-0.2,0-0.4,0.4-0.5c0.1,0,0.1,0,0.2-0.1c0.7-0.2,1.4-0.3,2.3-0.3c1.5-0.1,2.9,0.2,4.3,0.7
		C5.8-10.2,7-9.5,8-8.5c1.1,1,1.9,2.2,2.5,3.6C11.3-3,11.7-1,11.4,1z"/>
</symbol>
<symbol  id="Logo" viewBox="-42.8 -6.3 85.7 12.7">
	<g id="_x2D_23_xB0__2_">
		<g>
			<path fill="#0C67B1" d="M-39.1-5.8c0-0.1,0-0.1,0-0.2c0-0.1,0-0.1,0-0.1c0,0,0-0.1-0.1-0.1c0,0-0.1,0-0.1,0h-3.2
				c-0.1,0-0.2,0-0.2,0.1c-0.1,0.1-0.1,0.2-0.1,0.3v7.3c0,0,0,0.1,0,0.1c0,0,0,0,0.1,0.1c0,0,0.1,0,0.1,0c0.1,0,0.1,0,0.2,0
				c0.1,0,0.2,0,0.2,0c0.1,0,0.1,0,0.1,0c0,0,0.1,0,0.1-0.1c0,0,0-0.1,0-0.1v-6.8h2.6c0,0,0.1,0,0.1,0c0,0,0,0,0.1-0.1
				c0,0,0-0.1,0-0.1C-39.1-5.6-39.1-5.7-39.1-5.8z"/>
			<path fill="#0C67B1" d="M-34.2-5.8c0-0.1,0-0.1,0-0.2c0-0.1,0-0.1,0-0.1c0,0,0-0.1-0.1-0.1c0,0,0,0-0.1,0h-3.4
				c-0.1,0-0.2,0-0.2,0.1c-0.1,0.1-0.1,0.2-0.1,0.3v7.1c0,0.2,0,0.3,0.1,0.3c0.1,0.1,0.2,0.1,0.2,0.1h3.4c0,0,0.1,0,0.1,0
				c0,0,0,0,0.1-0.1c0,0,0-0.1,0-0.1s0-0.1,0-0.2c0-0.1,0-0.1,0-0.2c0-0.1,0-0.1,0-0.1c0,0,0-0.1-0.1-0.1c0,0-0.1,0-0.1,0h-2.8v-2.5
				h2.4c0,0,0.1,0,0.1,0c0,0,0,0,0.1-0.1c0,0,0-0.1,0-0.1c0-0.1,0-0.1,0-0.2c0-0.1,0-0.1,0-0.2c0-0.1,0-0.1,0-0.1c0,0,0-0.1-0.1-0.1
				c0,0-0.1,0-0.1,0h-2.4v-2.8h2.8c0,0,0.1,0,0.1,0c0,0,0,0,0.1-0.1c0,0,0-0.1,0-0.1C-34.2-5.7-34.2-5.7-34.2-5.8z"/>
			<path fill="#0C67B1" d="M-27.3-5.9c0-0.1,0-0.2,0-0.2s0-0.1,0-0.1c0,0-0.1,0-0.1-0.1c-0.1,0-0.2,0-0.3,0c-0.1,0-0.2,0-0.3,0
				c-0.1,0-0.1,0-0.2,0c0,0-0.1,0-0.1,0.1c0,0,0,0.1,0,0.1l-0.6,1.9h-3l-0.6-1.9c0,0,0-0.1,0-0.1c0,0,0,0-0.1-0.1c0,0-0.1,0-0.1,0
				c-0.1,0-0.1,0-0.3,0c-0.1,0-0.2,0-0.3,0c-0.1,0-0.1,0-0.1,0.1c0,0,0,0.1,0,0.1c0,0.1,0,0.1,0,0.2l2.4,7.4c0,0,0,0.1,0.1,0.1
				c0,0,0.1,0.1,0.1,0.1c0,0,0.1,0,0.2,0c0.1,0,0.2,0,0.3,0c0.1,0,0.2,0,0.3,0c0.1,0,0.1,0,0.2,0c0,0,0.1,0,0.1-0.1
				c0,0,0-0.1,0.1-0.1L-27.3-5.9z M-30.4,0.6L-30.4,0.6l-1.2-3.9h2.5L-30.4,0.6z"/>
			<path fill="#0C67B1" d="M-21.5-6.1C-21.5-6.1-21.5-6.2-21.5-6.1c0-0.1-0.1-0.1-0.1-0.1c0,0-0.1,0-0.2,0c-0.1,0-0.2,0-0.3,0
				c-0.1,0-0.2,0-0.2,0c-0.1,0-0.1,0-0.1,0c0,0-0.1,0-0.1,0.1c0,0,0,0.1-0.1,0.1l-0.7,1.9c-0.1,0.2-0.2,0.4-0.2,0.6
				c-0.1,0.2-0.2,0.3-0.3,0.5C-23.9-3-24-2.9-24.2-2.8c-0.2,0.1-0.3,0.1-0.6,0.1h-0.6v-3.4c0,0,0-0.1,0-0.1c0,0,0,0-0.1-0.1
				c0,0-0.1,0-0.1,0c-0.1,0-0.1,0-0.2,0c-0.1,0-0.2,0-0.2,0c-0.1,0-0.1,0-0.1,0c0,0-0.1,0-0.1,0.1c0,0,0,0.1,0,0.1v7.3
				c0,0.2,0,0.3,0.1,0.3c0.1,0.1,0.2,0.1,0.2,0.1h1.5c0.2,0,0.3,0,0.5,0c0.1,0,0.2,0,0.3,0c0.3-0.1,0.5-0.1,0.7-0.3
				c0.2-0.1,0.4-0.3,0.5-0.4c0.1-0.2,0.3-0.4,0.3-0.6c0.1-0.2,0.1-0.5,0.1-0.7c0-0.3,0-0.5-0.1-0.7c-0.1-0.2-0.2-0.4-0.3-0.6
				c-0.1-0.2-0.3-0.3-0.4-0.4c-0.2-0.1-0.4-0.2-0.6-0.3c0.1-0.1,0.2-0.1,0.3-0.2c0.1-0.1,0.2-0.2,0.3-0.3c0.1-0.1,0.2-0.3,0.2-0.4
				c0.1-0.2,0.1-0.3,0.2-0.5l0.6-1.7c0.1-0.1,0.1-0.2,0.1-0.3C-21.5-6-21.5-6.1-21.5-6.1z M-23-0.5c0,0.3-0.1,0.6-0.2,0.8
				c-0.1,0.2-0.3,0.4-0.6,0.5c-0.1,0-0.2,0.1-0.3,0.1c-0.1,0-0.3,0-0.5,0h-0.8v-2.7h0.9c0.3,0,0.5,0,0.7,0.1
				c0.2,0.1,0.3,0.2,0.5,0.3c0.1,0.1,0.2,0.3,0.3,0.4C-23-0.9-23-0.7-23-0.5z"/>
			<path fill="#0C67B1" d="M-15.5-2.5c0-0.1-0.1-0.1-0.1-0.2c0,0-0.1-0.1-0.1-0.1c-0.1,0-0.1,0-0.2,0c-0.1,0-0.1,0-0.1,0l-0.3,0.1
				c-0.1,0-0.2,0.1-0.2,0.1c-0.1,0-0.1,0.1-0.1,0.2c0,0.1-0.1,0.2-0.1,0.3c0,0.1,0,0.3,0,0.4l-0.3,5c0,0.3,0,0.5,0,0.8
				c0,0.3,0,0.5,0,0.8l0,0c-0.1-0.3-0.2-0.6-0.3-0.8c-0.1-0.3-0.2-0.6-0.4-0.8L-19.7-1c0,0,0,0-0.1-0.1s-0.1,0-0.1,0
				c0,0-0.1,0-0.1,0c-0.1,0-0.1,0-0.2,0.1c-0.1,0-0.2,0.1-0.2,0.1c-0.1,0-0.1,0.1-0.1,0.1c0,0,0,0.1,0,0.1c0,0,0,0.1,0,0.1l2.9,6.7
				c0.1,0.2,0.1,0.2,0.3,0.3c0.1,0,0.2,0,0.3,0l0.4-0.2c0.1,0,0.2-0.1,0.2-0.1c0.1,0,0.1-0.1,0.1-0.2c0-0.1,0.1-0.1,0.1-0.2
				c0-0.1,0-0.2,0-0.4l0.2-3.9c0-0.2,0-0.5,0-0.7c0-0.2,0-0.4,0-0.7c0-0.2,0-0.4,0-0.6c0-0.2,0-0.4,0-0.6l0,0
				c0.1,0.3,0.2,0.6,0.4,0.9c0.1,0.3,0.3,0.6,0.4,0.9l1.7,4c0,0,0,0,0.1,0.1c0,0,0.1,0,0.1,0c0,0,0.1,0,0.1,0c0.1,0,0.1,0,0.2-0.1
				c0.1,0,0.1-0.1,0.2-0.1c0.1,0,0.1-0.1,0.1-0.1c0,0,0-0.1,0-0.1c0,0,0-0.1,0-0.1L-15.5-2.5z"/>
		</g>
	</g>
	<g id="Discovery_2_">
		<path fill="#231F1C" d="M-4.7-6.3h1.1v7.8h-1.1V-6.3z"/>
		<path fill="#231F1C" d="M0.5-2.1l-0.8,0.5C-0.7-1.4-1-1.2-1.2-0.9s-0.3,0.4-0.3,0.7c0,0.3,0.1,0.5,0.3,0.6
			c0.2,0.2,0.5,0.3,0.9,0.3c0.6,0,1.2-0.3,1.8-0.8v1.3C1,1.4,0.5,1.6-0.2,1.6c-0.7,0-1.2-0.2-1.6-0.6c-0.4-0.4-0.6-0.9-0.6-1.5
			c0-0.4,0.1-0.8,0.3-1.1c0.2-0.3,0.6-0.6,1.1-1L-0.1-3c0.7-0.4,1-0.9,1-1.3c0-0.3-0.1-0.5-0.3-0.7C0.3-5.3,0-5.4-0.3-5.4
			c-0.8,0-1.5,0.4-2,1.1v-1.4c0.6-0.5,1.3-0.7,2.1-0.7c0.7,0,1.2,0.2,1.6,0.6c0.4,0.4,0.6,0.9,0.6,1.5C1.9-3.4,1.4-2.7,0.5-2.1z"/>
		<path fill="#231F1C" d="M4.6-4.5C4.1-4,3.8-3.3,3.8-2.4c0,0.8,0.3,1.5,0.9,2.1C5.2,0.3,6,0.5,6.8,0.5c0.8,0,1.7-0.3,2.6-0.8V1
			c-1,0.4-1.9,0.6-2.7,0.6c-1.2,0-2.1-0.4-2.9-1.2C3.1-0.3,2.7-1.3,2.7-2.4c0-0.7,0.2-1.4,0.5-2C3.5-5,4-5.5,4.6-5.8
			c0.6-0.3,1.3-0.5,2.2-0.5c1,0,2,0.2,2.8,0.7v1.2C8.6-5,7.7-5.3,6.8-5.3C5.9-5.3,5.2-5,4.6-4.5z"/>
		<path fill="#231F1C" d="M14.5,1.6c-1.2,0-2.1-0.4-2.9-1.1c-0.8-0.8-1.2-1.7-1.2-2.9c0-1.1,0.4-2.1,1.1-2.8
			c0.8-0.8,1.7-1.1,2.9-1.1c1.2,0,2.2,0.4,3,1.1c0.8,0.8,1.2,1.7,1.2,2.8s-0.4,2.1-1.2,2.9C16.6,1.2,15.6,1.6,14.5,1.6z M16.6-4.5
			C16-5,15.3-5.3,14.5-5.3c-0.8,0-1.5,0.3-2.1,0.8c-0.6,0.6-0.8,1.3-0.8,2.1c0,0.9,0.3,1.6,0.8,2.1c0.6,0.6,1.3,0.8,2.1,0.8
			c0.8,0,1.5-0.3,2.1-0.8c0.6-0.6,0.9-1.3,0.9-2.1C17.5-3.2,17.2-3.9,16.6-4.5z"/>
		<path fill="#231F1C" d="M21.9-3.9l-2.3,5.4h-1.1l3.3-7.8H22l3.2,7.8h-1.1L21.9-3.9z"/>
		<path fill="#231F1C" d="M27.1-2.8h3.1v1h-3.1v2.4h3.2v1H26v-7.7h4.4v1h-3.3V-2.8L27.1-2.8z"/>
		<path fill="#231F1C" d="M36.3-4.7c-0.4,0.7-0.7,1.2-1,1.5c-0.2,0.3-0.5,0.5-0.7,0.7c0.4,0.2,0.7,0.4,1,0.7
			c0.2,0.3,0.3,0.7,0.3,1.2c0,0.7-0.2,1.2-0.7,1.6c-0.5,0.4-1.1,0.6-1.8,0.6h-1.9v-7.8h1.1v3.4h0.3c0.4,0,0.6,0,0.8-0.1
			c0.1-0.1,0.3-0.2,0.5-0.4c0.2-0.2,0.4-0.4,0.6-0.8l0.4-0.6l0.3-0.6l0.2-0.3c0,0,0.1-0.1,0.1-0.1L36-6.3h1.3l-0.4,0.6
			C36.8-5.5,36.6-5.1,36.3-4.7z M34.1-1.7c-0.2-0.1-0.6-0.1-1.1-0.1h-0.4v2.4h0.3c0.5,0,0.9,0,1.1-0.1c0.2-0.1,0.4-0.2,0.5-0.4
			c0.1-0.2,0.2-0.4,0.2-0.7c0-0.2-0.1-0.5-0.2-0.7C34.5-1.5,34.3-1.7,34.1-1.7z"/>
		<path fill="#231F1C" d="M41.5,1.5l-2.1-2.7l-2,2.7h-1.3l2.8-3.7v-4.1H40v4.1l2.8,3.7H41.5z"/>
	</g>
	<g>
		<path display="none" fill="#1E1F21" d="M-8.9,5.4C-8.9,5.4-8.9,5.4-8.9,5.4C-9.1,5.5-9,5.5-8.9,5.4z"/>
		<path display="none" fill="#1E1F21" d="M-8.9,5.4C-8.9,5.4-8.9,5.4-8.9,5.4C-8.3,5-8.7,5.3-8.9,5.4z"/>
		<path fill="#1E1F21" d="M-5.9,1c-0.1,1.2-0.6,2.2-1.3,3c-0.4,0.5-1,1-1.7,1.4c-0.1,0-0.1,0.1-0.2,0.1c-0.2,0.1-0.3,0-0.5-0.2
			C-9.7,5.2-10,5-9.8,4.8c0,0,0,0,0.1-0.1c1.6-0.9,2.7-2.6,2.7-4.5c0.1-2.9-2.3-5.4-5.2-5.4c-0.5,0-1,0.1-1.5,0.2c0,0,0,0,0,0
			c-0.3,0-0.3-0.6-0.3-0.8c0-0.1,0-0.2,0.2-0.3c0,0,0,0,0.1,0c0.4-0.1,0.8-0.1,1.3-0.2c0.9,0,1.7,0.1,2.5,0.4
			c0.8,0.3,1.5,0.8,2.1,1.4c0.6,0.6,1.1,1.3,1.4,2.1C-5.9-1.3-5.8-0.2-5.9,1z"/>
		<path display="none" fill="#1E1F21" d="M-8.1-1.6c1.3,2.9,0,4.7-1.7,6.4c-0.8,0.4-1.7,0.7-2.7,0.7c-2.9-0.1-5.3-2.5-5.2-5.4
			c0-2.4,1.7-4.4,3.9-5C-11.7-4.9-9.3-4.5-8.1-1.6z"/>
	</g>
</symbol>
<use xlink:href="#Atlas"  width="23" height="22.9" x="-11.5" y="-11.5" transform="matrix(1.3908 0 0 -1.3953 -69.4966 176.3545)" overflow="visible"/>
<use xlink:href="#Logo"  width="85.7" height="12.7" x="-42.8" y="-6.3" transform="matrix(1.1291 0 0 -1.1291 1.5266 169.9048)" overflow="visible"/>
<g enable-background="new    ">
	<path fill="#1C1E1F" d="M-18.4,180.5l2,9H-17l-0.7-3.2H-21l-1.5,3.2h-0.6l4.2-9C-18.9,180.5-18.4,180.5-18.4,180.5z M-20.7,185.7
		h2.9l-0.9-4.1L-20.7,185.7z"/>
	<path fill="#1C1E1F" d="M-12,183.6l-0.1,0.4h-1.5l-0.5,2.8c-0.1,0.7-0.2,1.1-0.2,1.3c0,0.3,0.1,0.6,0.3,0.8
		c0.2,0.2,0.4,0.3,0.7,0.3c0.4,0,0.7-0.2,1.1-0.5v0.5c-0.4,0.3-0.8,0.4-1.2,0.4c-0.4,0-0.8-0.1-1-0.4c-0.3-0.3-0.4-0.6-0.4-1.1
		c0-0.3,0.1-0.8,0.2-1.3l0.6-2.7h-1.2l0.1-0.4h1.2l0.3-1.3h0.6l-0.3,1.3L-12,183.6L-12,183.6z"/>
	<path fill="#1C1E1F" d="M-9.9,180.6l-1.2,8.9h-0.6l1.2-8.9H-9.9z"/>
	<path fill="#1C1E1F" d="M-4,183.6l-0.8,5.8h-0.6l0.1-0.7c-0.6,0.5-1.3,0.8-2,0.8c-0.6,0-1.1-0.2-1.5-0.7s-0.6-1-0.6-1.7
		c0-1,0.4-1.9,1.1-2.6c0.8-0.7,1.8-1.1,3-1.1C-4.8,183.5-4.4,183.6-4,183.6z M-5.2,188.1l0.6-4.1c-0.2-0.1-0.4-0.1-0.7-0.1
		c-0.9,0-1.7,0.3-2.4,1c-0.7,0.6-1,1.4-1,2.4c0,0.5,0.1,1,0.4,1.3c0.3,0.3,0.6,0.5,1.1,0.5C-6.6,189.1-5.9,188.8-5.2,188.1z"/>
	<path fill="#1C1E1F" d="M0.8,184.1v0.6c-0.7-0.4-1.3-0.6-1.9-0.6c-0.3,0-0.6,0.1-0.8,0.2c-0.2,0.2-0.4,0.4-0.4,0.6
		c0,0.2,0.1,0.3,0.2,0.5c0.1,0.2,0.5,0.4,1.1,0.8c0.6,0.4,1,0.7,1.2,1c0.2,0.3,0.3,0.6,0.3,0.9c0,0.4-0.2,0.8-0.6,1.1
		c-0.4,0.3-0.8,0.4-1.4,0.4c-0.7,0-1.4-0.3-2-0.8l0.2-0.6c0.5,0.6,1.1,0.8,1.8,0.8c0.4,0,0.7-0.1,0.9-0.3c0.2-0.2,0.4-0.4,0.4-0.7
		c0-0.2-0.1-0.4-0.2-0.6c-0.1-0.2-0.5-0.5-1.1-0.9c-0.6-0.4-1-0.7-1.2-1s-0.3-0.5-0.3-0.7c0-0.4,0.2-0.8,0.5-1
		c0.4-0.3,0.8-0.4,1.3-0.4C-0.4,183.5,0.2,183.7,0.8,184.1z"/>
	<path fill="#1C1E1F" d="M7.9,183.5c0.6,0,1.1,0.2,1.5,0.7c0.4,0.4,0.6,1,0.6,1.8c0,1.1-0.3,2-0.8,2.6c-0.6,0.7-1.2,1-2,1
		c-0.6,0-1.1-0.2-1.4-0.7s-0.6-1-0.6-1.8c0-1.1,0.3-1.9,0.8-2.6C6.4,183.9,7.1,183.5,7.9,183.5z M7.1,189.1c0.6,0,1.1-0.3,1.6-0.9
		c0.4-0.6,0.6-1.3,0.6-2.2c0-0.6-0.1-1-0.4-1.4s-0.6-0.5-1.1-0.5c-0.6,0-1.1,0.3-1.5,0.9c-0.4,0.6-0.6,1.3-0.6,2.2
		c0,0.6,0.1,1.1,0.4,1.4C6.4,188.9,6.7,189.1,7.1,189.1z"/>
	<path fill="#1C1E1F" d="M14,183.6l-0.1,0.4h-1.4l-1.1,8h-0.6l1.1-8h-1.2l0.1-0.4h1.2l0.1-0.8c0.1-0.7,0.4-1.3,0.8-1.8
		c0.4-0.4,0.9-0.6,1.6-0.6c0.5,0,1,0.1,1.4,0.4l-0.1,0.5c-0.5-0.2-0.9-0.4-1.3-0.4c-1,0-1.6,0.5-1.8,1.6l-0.2,1.1
		C12.7,183.6,14,183.6,14,183.6z"/>
</g>
<g enable-background="new    ">
	<path fill="#0093D0" d="M26.2,180.6l-1.3,8.9h-0.6l0.6-4.2h-5.8l-0.6,4.2h-0.6l1.2-8.9h0.6l-0.6,4H25l0.6-4H26.2z"/>
	<path fill="#0093D0" d="M32,183.6l-0.8,5.8h-0.6l0.2-1l0,0c-0.7,0.8-1.5,1.2-2.3,1.2c-0.4,0-0.7-0.1-1-0.4s-0.4-0.6-0.4-1.1
		c0-0.1,0-0.2,0-0.3l0.6-4.2h0.6l-0.6,4.2c0,0.1,0,0.2,0,0.2c0,0.3,0.1,0.6,0.3,0.8c0.2,0.2,0.4,0.3,0.8,0.3c0.7,0,1.4-0.5,2.2-1.4
		l0.6-4L32,183.6L32,183.6z"/>
	<path fill="#0093D0" d="M34.1,183.6l-0.1,1c0.8-0.8,1.6-1.1,2.2-1.1c0.4,0,0.7,0.1,0.9,0.3c0.3,0.2,0.4,0.5,0.5,0.9
		c0.8-0.8,1.5-1.3,2.2-1.3c0.4,0,0.8,0.1,1.1,0.4c0.3,0.3,0.4,0.6,0.4,1c0,0.1,0,0.1,0,0.2l-0.6,4.3h-0.6l0.6-4.2c0-0.1,0-0.1,0-0.2
		c0-0.3-0.1-0.5-0.3-0.7c-0.2-0.2-0.4-0.3-0.7-0.3c-0.3,0-0.7,0.1-1.1,0.3c-0.4,0.2-0.8,0.5-1.1,0.9l-0.6,4.1h-0.6l0.6-4.1
		c0-0.1,0-0.2,0-0.3c0-0.7-0.3-1-1-1c-0.7,0-1.4,0.4-2.2,1.3l-0.6,4.1h-0.6l0.8-5.8C33.6,183.6,34.1,183.6,34.1,183.6z"/>
	<path fill="#0093D0" d="M47.8,183.6l-0.8,5.8h-0.6l0.1-0.7c-0.6,0.5-1.3,0.8-2,0.8c-0.6,0-1.1-0.2-1.5-0.7s-0.6-1-0.6-1.7
		c0-1,0.4-1.9,1.1-2.6c0.8-0.7,1.8-1.1,3-1.1C47,183.5,47.4,183.6,47.8,183.6z M46.6,188.1l0.6-4.1c-0.2-0.1-0.4-0.1-0.7-0.1
		c-0.9,0-1.7,0.3-2.4,1c-0.7,0.6-1,1.4-1,2.4c0,0.5,0.1,1,0.4,1.3c0.3,0.3,0.6,0.5,1.1,0.5C45.2,189.1,45.9,188.8,46.6,188.1z"/>
	<path fill="#0093D0" d="M50,183.6l-0.1,1l0,0c0.7-0.7,1.5-1.1,2.2-1.1c0.4,0,0.8,0.2,1.1,0.5s0.4,0.7,0.4,1.2c0,0.1,0,0.2,0,0.3
		l-0.6,4h-0.6l0.5-3.9c0-0.1,0-0.2,0-0.3c0-0.4-0.1-0.6-0.3-0.8c-0.2-0.2-0.4-0.3-0.8-0.3c-0.7,0-1.4,0.4-2.2,1.3l-0.6,4.1h-0.6
		l0.8-5.8L50,183.6L50,183.6z"/>
	<path fill="#0093D0" d="M65.3,180.6l-4.9,4.1l4.7,4.8h-0.8l-4.7-4.8l-0.7,4.8h-0.6l1.3-8.9h0.6l-0.5,3.9l4.8-3.9L65.3,180.6
		L65.3,180.6z"/>
	<path fill="#0093D0" d="M66.6,183.6l-0.1,1l0,0c0.7-0.7,1.5-1.1,2.2-1.1c0.4,0,0.8,0.2,1.1,0.5c0.3,0.3,0.4,0.7,0.4,1.2
		c0,0.1,0,0.2,0,0.3l-0.6,4H69l0.5-3.9c0-0.1,0-0.2,0-0.3c0-0.4-0.1-0.6-0.3-0.8c-0.2-0.2-0.4-0.3-0.8-0.3c-0.7,0-1.4,0.4-2.2,1.3
		l-0.6,4.1h-0.6l0.8-5.8L66.6,183.6L66.6,183.6z"/>
	<path fill="#0093D0" d="M74,183.5c0.6,0,1.1,0.2,1.5,0.7c0.4,0.4,0.6,1,0.6,1.8c0,1.1-0.3,2-0.8,2.6c-0.6,0.7-1.2,1-2,1
		c-0.6,0-1.1-0.2-1.4-0.7s-0.6-1-0.6-1.8c0-1.1,0.3-1.9,0.8-2.6C72.6,183.9,73.2,183.5,74,183.5z M73.3,189.1c0.6,0,1.1-0.3,1.6-0.9
		c0.4-0.6,0.6-1.3,0.6-2.2c0-0.6-0.1-1-0.4-1.4c-0.3-0.3-0.6-0.5-1.1-0.5c-0.6,0-1.1,0.3-1.5,0.9c-0.4,0.6-0.6,1.3-0.6,2.2
		c0,0.6,0.1,1.1,0.4,1.4C72.5,188.9,72.8,189.1,73.3,189.1z"/>
	<path fill="#0093D0" d="M81.8,188.3l2.4-4.7h0.6l-3.1,6h-0.2l-0.8-4.6l-2.3,4.6h-0.2l-1.4-6h0.5l1.1,4.7l2.3-4.7H81L81.8,188.3z"/>
	<path fill="#0093D0" d="M86.7,180.6l-1.2,8.9h-0.6l1.2-8.9H86.7z"/>
	<path fill="#0093D0" d="M91.7,188.3v0.6c-0.6,0.4-1.2,0.6-1.8,0.6c-0.8,0-1.4-0.3-1.9-0.8c-0.5-0.5-0.7-1.2-0.7-2
		c0-0.9,0.3-1.7,0.8-2.3c0.5-0.6,1.2-0.9,1.9-0.9c0.6,0,1.1,0.2,1.5,0.7c0.4,0.4,0.6,1,0.6,1.8c0,0.1,0,0.3,0,0.4h-4.1
		c0,0.2,0,0.3,0,0.4c0,0.6,0.2,1.1,0.5,1.6c0.4,0.4,0.8,0.7,1.4,0.7C90.5,189.1,91.1,188.8,91.7,188.3z M88,185.9h3.5
		c0-0.6-0.1-1-0.4-1.4s-0.7-0.5-1.1-0.5c-0.4,0-0.9,0.2-1.2,0.5C88.4,184.9,88.1,185.4,88,185.9z"/>
	<path fill="#0093D0" d="M98.8,180.6l-1.2,8.8c-0.7,0.1-1.2,0.2-1.6,0.2c-1,0-1.7-0.3-2.2-0.8c-0.5-0.5-0.8-1.2-0.8-1.9
		c0-0.8,0.3-1.6,1-2.3c0.7-0.7,1.7-1.1,3-1.1c0.1,0,0.4,0,0.9,0.1l0.4-3L98.8,180.6L98.8,180.6z M97,189l0.7-5
		c-0.3-0.1-0.5-0.1-0.8-0.1c-1,0-1.8,0.3-2.4,0.9c-0.6,0.6-0.9,1.3-0.9,2.1c0,0.7,0.2,1.2,0.7,1.6c0.5,0.4,1,0.6,1.7,0.6
		C96.3,189.2,96.7,189.1,97,189z"/>
	<path fill="#0093D0" d="M104.6,183.5l-0.1,0.4h-1.6v0c0.6,0.3,0.9,0.9,0.9,1.6c0,0.5-0.1,0.9-0.4,1.3s-0.5,0.6-0.9,0.8
		s-0.7,0.2-1.3,0.3c-0.5,0.1-0.9,0.2-1,0.3c-0.1,0.1-0.2,0.2-0.2,0.4c0,0.1,0.1,0.2,0.2,0.3c0.1,0.1,0.6,0.2,1.4,0.4
		c0.8,0.2,1.3,0.4,1.6,0.7c0.3,0.3,0.4,0.6,0.4,0.9c0,0.5-0.2,0.9-0.7,1.2s-1.1,0.5-1.9,0.5c-0.7,0-1.3-0.1-1.7-0.4
		c-0.4-0.3-0.6-0.6-0.6-1c0-0.7,0.7-1.2,2-1.5v0c-0.8-0.2-1.2-0.5-1.2-0.9c0-0.4,0.4-0.7,1.2-0.9v0c-0.8-0.3-1.2-0.9-1.2-1.8
		c0-0.6,0.2-1.2,0.7-1.6s1-0.7,1.7-0.7L104.6,183.5L104.6,183.5z M103,190.8c0-0.4-0.3-0.7-0.8-0.8s-0.9-0.3-1-0.3
		c-0.3,0-0.7,0.1-1.2,0.4c-0.5,0.3-0.8,0.6-0.8,1c0,0.3,0.2,0.5,0.5,0.7c0.3,0.2,0.7,0.3,1.3,0.3c0.7,0,1.2-0.1,1.6-0.3
		C102.8,191.5,103,191.2,103,190.8z M101.6,184c-0.5,0-0.9,0.2-1.2,0.6c-0.3,0.4-0.5,0.8-0.5,1.3c0,0.4,0.1,0.8,0.4,1.1
		s0.6,0.5,1,0.5c0.6,0,1-0.2,1.3-0.6c0.3-0.4,0.5-0.8,0.5-1.3c0-0.4-0.1-0.8-0.5-1.1C102.4,184.1,102,184,101.6,184z"/>
	<path fill="#0093D0" d="M109.2,188.3v0.6c-0.6,0.4-1.2,0.6-1.8,0.6c-0.8,0-1.4-0.3-1.9-0.8c-0.5-0.5-0.7-1.2-0.7-2
		c0-0.9,0.3-1.7,0.8-2.3c0.5-0.6,1.2-0.9,1.9-0.9c0.6,0,1.1,0.2,1.5,0.7c0.4,0.4,0.6,1,0.6,1.8c0,0.1,0,0.3,0,0.4h-4.1
		c0,0.2,0,0.3,0,0.4c0,0.6,0.2,1.1,0.5,1.6c0.4,0.4,0.8,0.7,1.4,0.7C108,189.1,108.6,188.8,109.2,188.3z M105.5,185.9h3.5
		c0-0.6-0.1-1-0.4-1.4s-0.7-0.5-1.1-0.5c-0.4,0-0.9,0.2-1.2,0.5S105.6,185.4,105.5,185.9z"/>
</g>
</svg>
