<?xml version="1.0" encoding="utf-8"?>
<!-- Generator: Adobe Illustrator 16.0.4, SVG Export Plug-In . SVG Version: 6.00 Build 0)  -->
<!DOCTYPE svg PUBLIC "-//W3C//DTD SVG 1.1//EN" "http://www.w3.org/Graphics/SVG/1.1/DTD/svg11.dtd">
<svg version="1.1" id="Layer_1" xmlns="http://www.w3.org/2000/svg" xmlns:xlink="http://www.w3.org/1999/xlink" x="0px" y="0px"
	 width="195.045px" height="32.114px" viewBox="-4.496 -4.532 195.045 32.114"
	 enable-background="new -4.496 -4.532 195.045 32.114" xml:space="preserve">
<symbol  id="Atlas" viewBox="-11.504 -11.468 23.008 22.936">
	<g>
		<path fill="#22AD80" d="M-11.504-10.046c0-0.783,0.635-1.418,1.418-1.418h20.098c0.783,0,1.418,0.635,1.418,1.418v20.098
			c0,0.781-0.635,1.416-1.418,1.416h-20.098c-0.783,0-1.418-0.635-1.418-1.416V-10.046z"/>
	</g>
	<path id="Around_Globe_3_" display="none" fill="none" stroke="#FFFFFF" stroke-width="0.75" stroke-miterlimit="10" d="
		M0.246,9.333c-5.363,0-9.727-4.363-9.727-9.727c0-5.364,4.363-9.729,9.727-9.729c5.362,0,9.726,4.363,9.726,9.729
		C9.972,4.97,5.607,9.333,0.246,9.333z"/>
	<path id="Around_Globe_2_" display="none" fill="#FFFFFF" d="M0.246-10.62c-5.64,0-10.227,4.588-10.227,10.229
		c0,5.639,4.587,10.227,10.227,10.227c5.638,0,10.226-4.586,10.226-10.227C10.472-6.032,5.884-10.62,0.246-10.62z M0.246,9.333
		c-5.363,0-9.727-4.363-9.727-9.727c0-5.364,4.363-9.729,9.727-9.729c5.362,0,9.726,4.363,9.726,9.729
		C9.972,4.97,5.607,9.333,0.246,9.333z"/>
	<linearGradient id="Around_Globe_4_" gradientUnits="userSpaceOnUse" x1="5.542" y1="7.7607" x2="-5.0508" y2="-8.5508">
		<stop  offset="0" style="stop-color:#FFFFFF;stop-opacity:0"/>
		<stop  offset="1" style="stop-color:#FFFFFF"/>
	</linearGradient>
	<path id="Around_Globe_1_" opacity="0.3" fill="url(#Around_Globe_4_)" enable-background="new    " d="M0.246,9.333
		c-5.363,0-9.727-4.363-9.727-9.727c0-5.364,4.363-9.729,9.727-9.729c5.362,0,9.726,4.363,9.726,9.729
		C9.972,4.97,5.607,9.333,0.246,9.333z"/>
	<path id="Left_Hand_1_" fill="#FFFFFF" d="M-11.504,10.399V5.946c0.332-0.074,0.887-0.515,0.905-0.656
		c0.017-0.146,0.319-1.924,0.89-2.943c0.568-1.022,0.035-2.338,0.021-2.51C-9.726-0.667-8.667-0.28-8.424,0.394
		c0.17,0.476-0.056,2.492,0.522,3.486c0.368,0.625,1.177,0.316,2.153,0.016c1.627-0.495,3.938-1.819,4.59-1.188
		c0.505,0.49,0.019,0.723-0.217,0.758c-1.301,0.187-2.123,0.721-2.9,0.953c-0.451,0.135-1.311,0.412-1.131,0.51
		C-5.055,5.12-4.76,5.103-4.4,5.095c0,0-0.048,0.074,1.559-0.326c0.409-0.102,0.883-0.082,1.488-0.202
		c0.964-0.193,1.391,0.34,1.277,0.567c-0.086,0.17-0.776,0.271-1.422,0.312c-0.432,0.022-0.569,0.112-1.273,0.25
		c-0.54,0.104-1.62,0.271-1.582,0.404c0.039,0.136,0.642,0.347,1.075,0.513c0.643,0.25,0.934,0.276,1.298,0.346
		c0.8,0.146,1.212,0.217,1.632,0.234c0.42,0.02,0.538,0.334,0.314,0.461c-0.223,0.129-1.84,0.061-2.299,0.008
		c-0.457-0.06-0.986-0.377-1.562-0.396C-4.471,7.249-4.156,7.63-3.873,7.841c0.341,0.254,0.67,0.555,1.168,0.787
		c0.354,0.164,1.287,0.801,0.693,0.92C-2.24,9.595-2.924,9.277-3.561,8.89C-4.196,8.503-4.76,7.8-5.084,7.849
		c-0.323,0.047-0.742,0.252-1.728,0.289c-0.984,0.037,0.41,0.021-1.426,0.058c-1.836,0.036-2.434,1.319-2.985,2.037
		C-11.273,10.296-11.373,10.378-11.504,10.399z"/>
	<path id="Right_Hand_1_" fill="#FFFFFF" d="M2.076-10.854c0,0,0.611,1.025,1.101,1.925C3.664-8.036,5.099-6.183,5.86-5.638
		c0.765,0.545,2.197,2.414,2.197,2.414C8.369-2.81,8.343-2.519,8.172-2.444c-0.17,0.076-0.799-0.52-1.661-1.477
		C6.199-4.267,5.42-4.786,5.274-4.767C5.172-4.755,5.158-4.872,5.072-4.712c-0.062,0.119,2.743,3.516,3.01,3.91
		c0.265,0.395,0.099,0.748-0.246,0.627C7.494-0.292,6.607-1.708,6.093-2.144C5.61-2.552,4.863-3.511,4.531-3.608
		c-0.334-0.098-0.248,0.218-0.152,0.4c0.096,0.183,1.395,2.479,1.662,2.814c0.603,0.77,0.66,0.842,0.871,1.188
		c0.26,0.43,0.117,0.662-0.137,0.691C6.521,1.515,5.33,0.208,4.908-0.522c-0.423-0.729-1.175-2.024-1.4-2.014
		C3.357-2.524,3.31-2.378,3.465-1.954C3.617-1.53,4.594,1.798,4.707,2.204C4.818,2.61,4.344,2.477,4.344,2.477
		C4.049,2.415,2.828-0.769,2.601-1.386C2.402-1.921,2.26-1.991,1.369-3.038C0.92-3.567,0.744-2.712,0.847-2.188
		c0.104,0.521,0.258,2.521-0.235,2.669c-0.29,0.086-0.45-0.814-0.757-1.604c-0.279-0.713-0.589-3.846-0.669-4.313
		c-0.08-0.472-1.347-3.115-1.997-4.195v-0.717L2.076-10.854z"/>
	<path id="D_1_" fill="#FFFFFF" d="M11.434,0.978c-0.221,2.021-0.936,3.789-2.146,5.312c-0.715,0.9-1.691,1.742-2.932,2.527
		C6.278,8.868,6.2,8.917,6.102,8.975c-0.309,0.193-0.479,0.07-0.859-0.268C5.127,8.604,4.906,8.411,4.771,8.21
		c3.092-1.629,5.2-4.869,5.2-8.604c0-5.373-4.354-9.729-9.726-9.729c-1.07,0-2.098,0.18-3.061,0.498
		c-0.125-0.318-0.132-0.758-0.109-0.992c0.021-0.221,0.043-0.35,0.396-0.465c0.07-0.023,0.066-0.023,0.247-0.062
		c0.676-0.156,1.446-0.279,2.33-0.312c1.499-0.072,2.946,0.162,4.341,0.705c1.361,0.52,2.574,1.287,3.634,2.301
		c1.06,1.015,1.888,2.197,2.485,3.556C11.348-2.995,11.656-1.036,11.434,0.978z"/>
</symbol>
<symbol  id="Logo" viewBox="-42.828 -6.346 85.656 12.69">
	<g id="_x2D_23_xB0__1_">
		<g>
			<path fill="#0C67B1" d="M-39.101-5.792c0-0.08-0.005-0.149-0.013-0.203c-0.007-0.057-0.02-0.103-0.036-0.142
				c-0.016-0.038-0.037-0.066-0.061-0.086c-0.025-0.019-0.053-0.026-0.087-0.026h-3.174c-0.085,0-0.166,0.03-0.242,0.094
				c-0.077,0.062-0.114,0.175-0.114,0.333v7.329c0,0.033,0.007,0.062,0.021,0.087c0.016,0.023,0.041,0.042,0.078,0.058
				c0.038,0.015,0.087,0.026,0.149,0.037c0.064,0.011,0.139,0.016,0.228,0.016c0.092,0,0.169-0.005,0.229-0.016
				c0.062-0.011,0.11-0.022,0.148-0.037c0.037-0.016,0.062-0.033,0.078-0.058c0.014-0.024,0.021-0.054,0.021-0.087v-6.845h2.576
				c0.034,0,0.062-0.011,0.085-0.028c0.025-0.018,0.044-0.045,0.062-0.078c0.016-0.036,0.027-0.082,0.036-0.139
				C-39.106-5.641-39.101-5.71-39.101-5.792z"/>
			<path fill="#0C67B1" d="M-34.208-5.814c0-0.072-0.003-0.14-0.011-0.193c-0.007-0.054-0.021-0.101-0.039-0.137
				c-0.018-0.036-0.041-0.062-0.063-0.08c-0.025-0.018-0.05-0.023-0.08-0.023h-3.448c-0.085,0-0.165,0.032-0.24,0.094
				c-0.076,0.062-0.114,0.176-0.114,0.333V1.24c0,0.158,0.038,0.27,0.114,0.332c0.075,0.063,0.155,0.096,0.24,0.096h3.409
				c0.029,0,0.057-0.009,0.08-0.023c0.024-0.018,0.044-0.044,0.059-0.079c0.014-0.037,0.026-0.083,0.035-0.139
				c0.009-0.056,0.015-0.124,0.015-0.204c0-0.073-0.006-0.139-0.015-0.192c-0.009-0.055-0.021-0.101-0.035-0.136
				c-0.015-0.034-0.034-0.06-0.059-0.076c-0.023-0.018-0.051-0.023-0.08-0.023h-2.81v-2.484h2.408c0.03,0,0.058-0.009,0.082-0.026
				c0.023-0.021,0.043-0.044,0.061-0.076c0.017-0.033,0.028-0.078,0.036-0.135c0.007-0.059,0.011-0.125,0.011-0.201
				c0-0.075-0.004-0.138-0.011-0.19c-0.008-0.054-0.02-0.097-0.036-0.129c-0.018-0.033-0.037-0.057-0.061-0.07
				c-0.024-0.015-0.052-0.021-0.082-0.021h-2.408v-2.832h2.849c0.03,0,0.057-0.008,0.08-0.022c0.022-0.019,0.044-0.043,0.063-0.078
				c0.019-0.034,0.032-0.078,0.039-0.135C-34.211-5.665-34.208-5.733-34.208-5.814z"/>
			<path fill="#0C67B1" d="M-27.298-5.877c0.028-0.089,0.044-0.162,0.046-0.218s-0.013-0.097-0.041-0.124
				c-0.03-0.028-0.078-0.047-0.147-0.057c-0.069-0.007-0.16-0.012-0.274-0.012c-0.115,0-0.206,0.003-0.275,0.009
				c-0.067,0.007-0.119,0.019-0.155,0.03c-0.035,0.014-0.061,0.033-0.078,0.059c-0.016,0.024-0.032,0.056-0.046,0.094l-0.616,1.926
				h-2.986l-0.59-1.901c-0.011-0.037-0.024-0.068-0.044-0.096c-0.018-0.025-0.045-0.049-0.08-0.068
				c-0.036-0.018-0.086-0.029-0.149-0.037c-0.064-0.009-0.149-0.014-0.253-0.014c-0.107,0-0.194,0.007-0.264,0.017
				c-0.069,0.011-0.117,0.029-0.145,0.059c-0.028,0.028-0.04,0.069-0.039,0.125c0.002,0.055,0.019,0.128,0.049,0.217l2.408,7.354
				c0.014,0.045,0.033,0.082,0.059,0.11c0.022,0.027,0.059,0.052,0.104,0.066c0.047,0.016,0.105,0.027,0.179,0.033
				c0.07,0.007,0.163,0.01,0.273,0.01c0.119,0,0.218-0.003,0.294-0.01c0.078-0.006,0.141-0.019,0.19-0.033
				c0.048-0.017,0.084-0.04,0.11-0.07c0.025-0.03,0.046-0.067,0.061-0.113L-27.298-5.877z M-30.392,0.614h-0.005l-1.237-3.944h2.497
				L-30.392,0.614z"/>
			<path fill="#0C67B1" d="M-21.517-6.091c0-0.032-0.006-0.062-0.017-0.085c-0.012-0.025-0.035-0.045-0.072-0.062
				c-0.038-0.019-0.089-0.028-0.155-0.038c-0.065-0.007-0.154-0.012-0.267-0.012c-0.097,0-0.175,0.005-0.235,0.012
				c-0.061,0.01-0.11,0.021-0.147,0.039c-0.037,0.021-0.066,0.045-0.086,0.077c-0.021,0.033-0.037,0.074-0.053,0.122l-0.661,1.866
				c-0.076,0.212-0.158,0.407-0.241,0.583c-0.082,0.179-0.182,0.332-0.298,0.46C-23.862-3-23.998-2.9-24.153-2.829
				c-0.154,0.071-0.341,0.108-0.561,0.108h-0.639v-3.371c0-0.032-0.007-0.062-0.025-0.085c-0.016-0.025-0.042-0.045-0.076-0.061
				c-0.035-0.012-0.084-0.022-0.145-0.034c-0.062-0.011-0.139-0.016-0.23-0.016c-0.093,0-0.17,0.005-0.23,0.016
				c-0.06,0.012-0.11,0.021-0.147,0.035c-0.035,0.016-0.062,0.034-0.076,0.061c-0.017,0.021-0.023,0.053-0.023,0.085v7.329
				c0,0.158,0.039,0.27,0.114,0.332c0.076,0.063,0.156,0.096,0.242,0.096h1.526c0.182,0,0.331-0.006,0.452-0.016
				c0.12-0.011,0.229-0.021,0.324-0.033c0.277-0.053,0.523-0.137,0.737-0.251c0.212-0.114,0.39-0.259,0.534-0.436
				c0.146-0.175,0.252-0.376,0.325-0.603c0.071-0.227,0.108-0.478,0.108-0.749c0-0.266-0.033-0.504-0.098-0.714
				c-0.064-0.208-0.158-0.396-0.279-0.557c-0.123-0.16-0.269-0.301-0.439-0.42c-0.17-0.116-0.361-0.219-0.571-0.299
				c0.119-0.057,0.226-0.13,0.321-0.217c0.097-0.089,0.186-0.192,0.27-0.315c0.083-0.123,0.162-0.264,0.236-0.422
				c0.073-0.16,0.147-0.338,0.221-0.539l0.645-1.741c0.052-0.148,0.085-0.25,0.1-0.312C-21.523-6.013-21.517-6.059-21.517-6.091z
				 M-22.955-0.53c0,0.311-0.062,0.571-0.187,0.787c-0.127,0.213-0.338,0.366-0.634,0.46c-0.093,0.029-0.197,0.051-0.313,0.062
				c-0.117,0.014-0.271,0.02-0.459,0.02h-0.805v-2.666h0.933c0.251,0,0.47,0.032,0.653,0.101c0.182,0.067,0.335,0.161,0.457,0.28
				c0.121,0.121,0.212,0.263,0.27,0.427C-22.983-0.898-22.955-0.723-22.955-0.53z"/>
			<path fill="#0C67B1" d="M-15.51-2.536c-0.031-0.076-0.069-0.136-0.115-0.178c-0.045-0.043-0.093-0.073-0.145-0.093
				c-0.052-0.019-0.103-0.023-0.154-0.021c-0.052,0.003-0.102,0.017-0.148,0.035l-0.29,0.123c-0.092,0.039-0.167,0.084-0.228,0.134
				c-0.059,0.05-0.108,0.115-0.147,0.193c-0.039,0.082-0.068,0.182-0.091,0.303c-0.021,0.119-0.036,0.268-0.043,0.443l-0.258,5.001
				c-0.015,0.259-0.025,0.527-0.032,0.809c-0.009,0.279-0.011,0.549-0.009,0.812l-0.011,0.005c-0.108-0.274-0.221-0.553-0.337-0.835
				c-0.115-0.283-0.232-0.562-0.351-0.842l-1.867-4.398c-0.011-0.024-0.028-0.048-0.053-0.065s-0.058-0.026-0.097-0.024
				c-0.041,0-0.089,0.009-0.149,0.022c-0.059,0.016-0.132,0.039-0.219,0.076c-0.086,0.038-0.155,0.071-0.207,0.105
				c-0.051,0.031-0.09,0.062-0.117,0.089c-0.028,0.025-0.043,0.056-0.046,0.086c-0.006,0.03-0.002,0.06,0.011,0.085l2.854,6.724
				c0.063,0.15,0.147,0.241,0.252,0.271c0.104,0.031,0.201,0.026,0.292-0.013l0.435-0.184c0.102-0.043,0.182-0.088,0.242-0.137
				c0.062-0.048,0.108-0.105,0.146-0.171c0.036-0.066,0.064-0.149,0.082-0.247c0.018-0.101,0.03-0.22,0.037-0.357l0.192-3.856
				c0.013-0.236,0.023-0.467,0.034-0.688c0.011-0.225,0.018-0.444,0.024-0.659c0.006-0.216,0.011-0.428,0.019-0.636
				c0.007-0.21,0.012-0.418,0.016-0.628l0.005-0.004c0.12,0.301,0.246,0.609,0.382,0.933c0.133,0.322,0.263,0.63,0.39,0.929
				l1.678,3.952c0.011,0.027,0.029,0.048,0.052,0.064c0.025,0.016,0.058,0.025,0.099,0.028c0.041,0.001,0.092-0.006,0.15-0.021
				c0.06-0.016,0.132-0.043,0.223-0.081c0.079-0.034,0.146-0.066,0.199-0.099c0.056-0.032,0.095-0.063,0.12-0.094
				c0.024-0.031,0.04-0.062,0.046-0.09c0.004-0.027,0.002-0.056-0.011-0.082L-15.51-2.536z"/>
		</g>
	</g>
	<g id="Discovery_1_">
		<path fill="#231F1C" d="M-4.692-6.257h1.087V1.5h-1.087V-6.257z"/>
		<path fill="#231F1C" d="M0.487-2.088l-0.832,0.5c-0.372,0.223-0.644,0.437-0.812,0.64s-0.252,0.42-0.252,0.653
			c0,0.262,0.114,0.477,0.342,0.644C-0.837,0.517-0.546,0.6-0.189,0.6c0.63,0,1.22-0.269,1.768-0.806v1.26
			C1.048,1.417,0.466,1.6-0.168,1.6c-0.664,0-1.205-0.19-1.618-0.571C-2.202,0.647-2.411,0.15-2.411-0.46
			c0-0.405,0.11-0.767,0.33-1.078c0.221-0.312,0.589-0.631,1.108-0.954l0.826-0.513c0.667-0.424,1-0.872,1-1.344
			c0-0.292-0.112-0.534-0.34-0.729c-0.227-0.191-0.509-0.29-0.851-0.29c-0.772,0-1.453,0.381-2.04,1.14v-1.409
			c0.616-0.471,1.301-0.707,2.051-0.707c0.653,0,1.184,0.193,1.591,0.584c0.409,0.389,0.612,0.894,0.612,1.515
			C1.877-3.373,1.414-2.653,0.487-2.088z"/>
		<path fill="#231F1C" d="M4.644-4.501c-0.566,0.546-0.85,1.247-0.85,2.099c0,0.844,0.288,1.545,0.863,2.107
			c0.575,0.559,1.298,0.84,2.168,0.84c0.85,0,1.718-0.26,2.605-0.778v1.194C8.456,1.387,7.567,1.6,6.771,1.6
			c-1.157,0-2.129-0.386-2.92-1.153C3.063-0.325,2.669-1.274,2.669-2.402c0-0.711,0.171-1.373,0.517-1.98
			C3.531-4.995,3.999-5.474,4.59-5.821c0.591-0.35,1.311-0.522,2.159-0.522c1.045,0,1.967,0.221,2.764,0.666v1.221
			C8.636-5.033,7.736-5.323,6.814-5.323C5.932-5.323,5.209-5.05,4.644-4.501z"/>
		<path fill="#231F1C" d="M14.469,1.611c-1.174,0-2.146-0.381-2.914-1.141c-0.768-0.758-1.151-1.718-1.151-2.874
			c0-1.131,0.381-2.067,1.145-2.817c0.764-0.751,1.716-1.125,2.861-1.125c1.2,0,2.195,0.374,2.983,1.125
			c0.787,0.75,1.182,1.695,1.182,2.839s-0.392,2.096-1.173,2.854C16.622,1.23,15.644,1.611,14.469,1.611z M16.603-4.475
			c-0.568-0.566-1.274-0.85-2.122-0.85c-0.845,0-1.548,0.277-2.108,0.833c-0.562,0.556-0.844,1.251-0.844,2.088
			c0,0.861,0.279,1.569,0.842,2.125c0.559,0.557,1.272,0.833,2.143,0.833c0.826,0,1.521-0.28,2.09-0.84
			c0.567-0.562,0.851-1.254,0.851-2.076C17.453-3.202,17.17-3.907,16.603-4.475z"/>
		<path fill="#231F1C" d="M21.897-3.946L19.612,1.5h-1.095l3.275-7.788h0.247L25.253,1.5h-1.084L21.897-3.946z"/>
		<path fill="#231F1C" d="M27.062-2.848h3.113v0.992h-3.113V0.51h3.222V1.5h-4.31v-7.746h4.413v0.988h-3.325V-2.848L27.062-2.848z"
			/>
		<path fill="#231F1C" d="M36.287-4.708c-0.42,0.7-0.748,1.191-0.979,1.473c-0.232,0.281-0.47,0.503-0.714,0.665
			c0.415,0.164,0.731,0.409,0.952,0.739c0.221,0.329,0.332,0.719,0.332,1.171c0,0.662-0.225,1.188-0.677,1.577
			c-0.45,0.388-1.062,0.583-1.83,0.583h-1.906v-7.757h1.09v3.377h0.282c0.356,0,0.609-0.043,0.761-0.125
			c0.149-0.083,0.318-0.219,0.507-0.407c0.188-0.188,0.394-0.443,0.616-0.762l0.364-0.605l0.337-0.564l0.214-0.308
			c0.031-0.044,0.053-0.073,0.063-0.094l0.331-0.512h1.296l-0.404,0.556C36.764-5.479,36.552-5.147,36.287-4.708z M34.101-1.749
			c-0.204-0.095-0.582-0.143-1.134-0.143h-0.412v2.446h0.325c0.534,0,0.917-0.041,1.145-0.123c0.231-0.08,0.409-0.219,0.538-0.418
			c0.126-0.197,0.19-0.419,0.19-0.664c0-0.247-0.058-0.468-0.173-0.664C34.466-1.508,34.308-1.651,34.101-1.749z"/>
		<path fill="#231F1C" d="M41.508,1.5l-2.062-2.675L37.413,1.5h-1.314l2.809-3.653v-4.104h1.114v4.104L42.828,1.5H41.508z"/>
	</g>
	<g>
		<path display="none" fill="#1E1F21" d="M-8.924,5.422c-0.013,0.007-0.022,0.014-0.033,0.021C-9.119,5.539-9.048,5.496-8.924,5.422
			z"/>
		<path display="none" fill="#1E1F21" d="M-8.924,5.422C-8.906,5.411-8.888,5.4-8.87,5.389C-8.301,5.043-8.699,5.285-8.924,5.422z"
			/>
		<path fill="#1E1F21" d="M-5.926,0.968c-0.148,1.157-0.577,2.167-1.287,3.029C-7.622,4.496-8.176,4.958-8.87,5.389
			C-8.927,5.423-8.993,5.462-9.071,5.51c-0.178,0.107-0.275,0.035-0.49-0.164c-0.119-0.108-0.443-0.396-0.287-0.557
			c0.023-0.023,0.045-0.047,0.067-0.071c1.596-0.894,2.687-2.585,2.721-4.545c0.051-2.934-2.286-5.353-5.22-5.404
			c-0.514-0.009-1.013,0.059-1.484,0.187c-0.003,0-0.007-0.002-0.009-0.002c-0.297-0.021-0.312-0.567-0.286-0.788
			c0.014-0.127,0.028-0.201,0.233-0.264c0.041-0.014,0.037-0.014,0.142-0.036c0.391-0.081,0.833-0.145,1.341-0.152
			c0.863-0.027,1.69,0.123,2.486,0.448c0.778,0.312,1.467,0.766,2.064,1.357C-7.191-3.889-6.729-3.2-6.397-2.415
			C-5.936-1.317-5.778-0.188-5.926,0.968z"/>
		<path display="none" fill="#1E1F21" d="M-8.104-1.643C-6.853,1.25-8.127,3.012-9.78,4.717c-0.792,0.445-1.71,0.692-2.684,0.676
			c-2.936-0.052-5.272-2.472-5.221-5.405c0.043-2.419,1.696-4.433,3.921-5.033C-11.745-4.893-9.329-4.475-8.104-1.643z"/>
	</g>
</symbol>
<use xlink:href="#Atlas"  width="23.008" height="22.936" x="-11.504" y="-11.468" transform="matrix(1.3908 0 0 -1.3953 11.5032 11.468)" overflow="visible"/>
<use xlink:href="#Logo"  width="85.656" height="12.69" x="-42.828" y="-6.346" transform="matrix(1.1291 0 0 -1.1291 82.5266 5.0178)" overflow="visible"/>
<g enable-background="new    ">
	<path fill="#1C1E1F" d="M62.604,15.609l2.046,8.982h-0.631l-0.731-3.199h-3.284l-1.509,3.199H57.87l4.188-8.982H62.604z
		 M60.284,20.795h2.867L62.216,16.7L60.284,20.795z"/>
	<path fill="#1C1E1F" d="M69.023,18.751l-0.063,0.432h-1.547l-0.535,2.806c-0.106,0.677-0.159,1.094-0.159,1.251
		c0,0.33,0.089,0.586,0.267,0.768s0.397,0.273,0.66,0.273c0.351,0,0.724-0.17,1.117-0.508v0.533
		c-0.411,0.266-0.814,0.399-1.212,0.399c-0.423,0-0.769-0.144-1.038-0.432c-0.269-0.288-0.403-0.646-0.403-1.073
		c0-0.321,0.057-0.755,0.171-1.301l0.558-2.717h-1.161l0.07-0.432h1.15l0.265-1.333h0.57l-0.274,1.333H69.023z"/>
	<path fill="#1C1E1F" d="M71.124,15.724l-1.244,8.867h-0.577l1.25-8.867H71.124z"/>
	<path fill="#1C1E1F" d="M76.987,18.751l-0.823,5.84h-0.571l0.097-0.69c-0.624,0.536-1.292,0.805-2.008,0.805
		c-0.588,0-1.075-0.22-1.46-0.66s-0.578-0.999-0.578-1.676c0-1.016,0.381-1.892,1.144-2.628c0.762-0.736,1.764-1.104,3.004-1.104
		C76.242,18.637,76.64,18.675,76.987,18.751z M75.785,23.232l0.576-4.087c-0.208-0.051-0.446-0.076-0.717-0.076
		c-0.927,0-1.724,0.32-2.39,0.962c-0.667,0.641-1,1.446-1,2.415c0,0.542,0.139,0.975,0.416,1.298
		c0.277,0.324,0.644,0.486,1.101,0.486C74.427,24.23,75.098,23.897,75.785,23.232z"/>
	<path fill="#1C1E1F" d="M81.757,19.183v0.635c-0.69-0.432-1.322-0.647-1.898-0.647c-0.33,0-0.613,0.082-0.847,0.245
		c-0.235,0.163-0.353,0.358-0.353,0.588c0,0.16,0.066,0.324,0.199,0.492c0.133,0.167,0.506,0.441,1.121,0.821
		c0.614,0.38,1.018,0.712,1.213,0.995c0.195,0.284,0.292,0.572,0.292,0.863c0,0.424-0.185,0.784-0.555,1.083
		c-0.371,0.298-0.822,0.447-1.355,0.447c-0.707,0-1.36-0.254-1.961-0.762l0.178-0.616c0.529,0.563,1.132,0.845,1.809,0.845
		c0.368,0,0.673-0.089,0.914-0.267s0.362-0.4,0.362-0.667c0-0.183-0.072-0.371-0.215-0.565c-0.144-0.195-0.517-0.488-1.121-0.879
		c-0.603-0.391-0.992-0.711-1.165-0.961s-0.26-0.497-0.26-0.742c0-0.411,0.178-0.756,0.533-1.035s0.798-0.419,1.327-0.419
		C80.587,18.637,81.181,18.819,81.757,19.183z"/>
	<path fill="#1C1E1F" d="M88.879,18.637c0.626,0,1.125,0.22,1.495,0.66c0.37,0.44,0.555,1.034,0.555,1.784
		c0,1.083-0.275,1.958-0.825,2.624c-0.55,0.667-1.202,1-1.955,1c-0.584,0-1.065-0.219-1.444-0.657
		c-0.379-0.438-0.568-1.037-0.568-1.799c0-1.062,0.257-1.93,0.771-2.604C87.422,18.974,88.079,18.637,88.879,18.637z M88.123,24.172
		c0.605,0,1.123-0.3,1.552-0.898c0.429-0.599,0.644-1.329,0.644-2.192c0-0.584-0.133-1.049-0.4-1.394s-0.622-0.518-1.066-0.518
		c-0.635,0-1.145,0.297-1.53,0.892s-0.578,1.328-0.578,2.199c0,0.593,0.124,1.06,0.371,1.4C87.365,24.002,87.7,24.172,88.123,24.172
		z"/>
	<path fill="#1C1E1F" d="M95.042,18.751l-0.064,0.432h-1.383l-1.112,7.998h-0.57l1.116-7.998h-1.173l0.069-0.432h1.164l0.106-0.762
		c0.102-0.749,0.358-1.333,0.771-1.752c0.412-0.419,0.94-0.629,1.583-0.629c0.491,0,0.971,0.121,1.441,0.362l-0.063,0.482
		c-0.47-0.241-0.917-0.362-1.341-0.362c-1,0-1.584,0.533-1.754,1.6l-0.17,1.061H95.042z"/>
</g>
<g enable-background="new    ">
	<path fill="#0093D0" d="M107.172,15.724l-1.251,8.867h-0.608l0.592-4.228h-5.83l-0.59,4.228h-0.609l1.232-8.867h0.615l-0.564,4.043
		h5.83l0.568-4.043H107.172z"/>
	<path fill="#0093D0" d="M112.96,18.751l-0.819,5.84h-0.57l0.165-1.034l-0.031-0.02c-0.728,0.778-1.483,1.168-2.267,1.168
		c-0.397,0-0.736-0.131-1.016-0.394s-0.418-0.615-0.418-1.061c0-0.102,0.006-0.205,0.019-0.311l0.584-4.189h0.57l-0.581,4.164
		c-0.009,0.081-0.014,0.157-0.014,0.229c0,0.317,0.094,0.568,0.279,0.752c0.187,0.185,0.44,0.276,0.762,0.276
		c0.664,0,1.397-0.46,2.2-1.381l0.566-4.04H112.96z"/>
	<path fill="#0093D0" d="M115.137,18.751l-0.143,1.019c0.828-0.755,1.574-1.133,2.238-1.133c0.355,0,0.662,0.115,0.92,0.347
		c0.258,0.23,0.41,0.532,0.457,0.904c0.754-0.834,1.5-1.251,2.241-1.251c0.44,0,0.801,0.138,1.083,0.413
		c0.281,0.274,0.422,0.609,0.422,1.002c0,0.072-0.004,0.143-0.013,0.21l-0.61,4.329h-0.57l0.597-4.228
		c0.009-0.072,0.013-0.142,0.013-0.21c0-0.3-0.094-0.539-0.283-0.717c-0.188-0.178-0.415-0.267-0.682-0.267
		c-0.322,0-0.684,0.113-1.086,0.34s-0.771,0.538-1.109,0.937l-0.586,4.145h-0.57l0.571-4.068c0.017-0.119,0.025-0.231,0.025-0.337
		c0-0.677-0.319-1.016-0.958-1.016c-0.707,0-1.439,0.43-2.195,1.288l-0.58,4.133h-0.57l0.818-5.84H115.137z"/>
	<path fill="#0093D0" d="M128.771,18.751l-0.823,5.84h-0.57l0.097-0.69c-0.624,0.536-1.292,0.805-2.008,0.805
		c-0.589,0-1.075-0.22-1.46-0.66s-0.578-0.999-0.578-1.676c0-1.016,0.381-1.892,1.145-2.628c0.762-0.736,1.764-1.104,3.004-1.104
		C128.026,18.637,128.424,18.675,128.771,18.751z M127.569,23.232l0.576-4.087c-0.207-0.051-0.446-0.076-0.717-0.076
		c-0.928,0-1.725,0.32-2.391,0.962c-0.666,0.641-1,1.446-1,2.415c0,0.542,0.139,0.975,0.416,1.298
		c0.277,0.324,0.645,0.486,1.102,0.486C126.211,24.23,126.882,23.897,127.569,23.232z"/>
	<path fill="#0093D0" d="M130.975,18.751l-0.137,0.975l0.037,0.016c0.735-0.736,1.476-1.104,2.221-1.104
		c0.427,0,0.777,0.156,1.053,0.47s0.412,0.707,0.412,1.181c0,0.102-0.006,0.201-0.019,0.298l-0.559,4.006h-0.577l0.547-3.923
		c0.017-0.123,0.025-0.239,0.025-0.349c0-0.364-0.093-0.646-0.277-0.848c-0.186-0.201-0.439-0.302-0.762-0.302
		c-0.654,0-1.389,0.43-2.204,1.288l-0.579,4.133h-0.57l0.818-5.84H130.975z"/>
	<path fill="#0093D0" d="M146.305,15.724l-4.875,4.056l4.666,4.812h-0.805l-4.68-4.816l-0.68,4.816h-0.609l1.251-8.867h0.609
		l-0.547,3.907l4.767-3.907H146.305z"/>
	<path fill="#0093D0" d="M147.586,18.751l-0.137,0.975l0.037,0.016c0.736-0.736,1.477-1.104,2.221-1.104
		c0.428,0,0.778,0.156,1.053,0.47c0.275,0.313,0.413,0.707,0.413,1.181c0,0.102-0.007,0.201-0.019,0.298l-0.559,4.006h-0.577
		l0.546-3.923c0.018-0.123,0.025-0.239,0.025-0.349c0-0.364-0.092-0.646-0.277-0.848c-0.185-0.201-0.438-0.302-0.762-0.302
		c-0.653,0-1.389,0.43-2.203,1.288l-0.58,4.133h-0.57l0.818-5.84H147.586z"/>
	<path fill="#0093D0" d="M155.014,18.637c0.627,0,1.125,0.22,1.496,0.66c0.369,0.44,0.555,1.034,0.555,1.784
		c0,1.083-0.275,1.958-0.825,2.624c-0.55,0.667-1.202,1-1.955,1c-0.584,0-1.065-0.219-1.444-0.657
		c-0.379-0.438-0.568-1.037-0.568-1.799c0-1.062,0.258-1.93,0.771-2.604C153.557,18.974,154.215,18.637,155.014,18.637z
		 M154.259,24.172c0.604,0,1.122-0.3,1.552-0.898s0.645-1.329,0.645-2.192c0-0.584-0.133-1.049-0.4-1.394
		c-0.266-0.345-0.621-0.518-1.066-0.518c-0.635,0-1.145,0.297-1.529,0.892s-0.578,1.328-0.578,2.199c0,0.593,0.125,1.06,0.371,1.4
		C153.5,24.002,153.836,24.172,154.259,24.172z"/>
	<path fill="#0093D0" d="M162.824,23.436l2.395-4.685h0.574l-3.088,5.954h-0.206l-0.778-4.603l-2.319,4.603h-0.208l-1.367-5.954
		h0.545l1.084,4.685l2.346-4.685h0.225L162.824,23.436z"/>
	<path fill="#0093D0" d="M167.697,15.724l-1.244,8.867h-0.577l1.25-8.867H167.697z"/>
	<path fill="#0093D0" d="M172.711,23.448v0.609c-0.57,0.432-1.182,0.647-1.834,0.647c-0.774,0-1.398-0.256-1.873-0.769
		c-0.474-0.512-0.711-1.19-0.711-2.037c0-0.918,0.263-1.691,0.787-2.32c0.525-0.628,1.164-0.942,1.918-0.942
		c0.63,0,1.134,0.221,1.51,0.663c0.377,0.442,0.565,1.045,0.565,1.807c0,0.131-0.009,0.279-0.025,0.443h-4.12
		c-0.017,0.152-0.025,0.277-0.025,0.375c0,0.609,0.182,1.137,0.543,1.58c0.361,0.445,0.844,0.667,1.444,0.667
		C171.504,24.172,172.111,23.931,172.711,23.448z M169.024,21.042h3.479c0.025-0.584-0.102-1.042-0.381-1.374
		s-0.658-0.498-1.137-0.498c-0.439,0-0.854,0.178-1.244,0.533C169.352,20.059,169.113,20.505,169.024,21.042z"/>
	<path fill="#0093D0" d="M179.801,15.724l-1.236,8.804c-0.668,0.118-1.193,0.178-1.574,0.178c-0.994,0-1.744-0.271-2.248-0.815
		c-0.503-0.544-0.755-1.174-0.755-1.889c0-0.842,0.335-1.613,1.003-2.313c0.669-0.7,1.657-1.051,2.965-1.051
		c0.127,0,0.412,0.017,0.857,0.051l0.418-2.964H179.801z M178.043,24.134l0.701-4.964c-0.263-0.067-0.532-0.102-0.808-0.102
		c-1.03,0-1.844,0.292-2.44,0.876c-0.596,0.584-0.893,1.28-0.893,2.088c0,0.694,0.232,1.242,0.697,1.645
		c0.466,0.402,1.043,0.604,1.733,0.604C177.348,24.281,177.684,24.232,178.043,24.134z"/>
	<path fill="#0093D0" d="M185.553,18.637l-0.07,0.432h-1.637v0.025c0.57,0.343,0.856,0.872,0.856,1.587
		c0,0.479-0.127,0.905-0.381,1.282s-0.538,0.63-0.854,0.759s-0.739,0.23-1.27,0.305c-0.531,0.074-0.872,0.16-1.022,0.26
		c-0.15,0.099-0.225,0.216-0.225,0.352c0,0.144,0.07,0.247,0.213,0.313c0.142,0.065,0.597,0.191,1.364,0.378
		c0.769,0.188,1.297,0.406,1.587,0.658c0.289,0.252,0.435,0.558,0.435,0.918c0,0.465-0.228,0.86-0.683,1.187
		s-1.095,0.489-1.92,0.489c-0.744,0-1.322-0.138-1.732-0.413c-0.411-0.275-0.616-0.622-0.616-1.041c0-0.686,0.667-1.192,1.999-1.522
		v-0.025c-0.799-0.161-1.199-0.456-1.199-0.883c0-0.437,0.4-0.729,1.199-0.877v-0.025c-0.833-0.309-1.25-0.922-1.25-1.84
		c0-0.631,0.236-1.175,0.711-1.632s1.043-0.686,1.707-0.686H185.553z M184.004,25.945c0-0.376-0.277-0.656-0.832-0.841
		s-0.885-0.276-0.99-0.276c-0.305,0-0.721,0.127-1.247,0.381c-0.526,0.253-0.79,0.59-0.79,1.009c0,0.283,0.154,0.509,0.463,0.679
		c0.31,0.169,0.73,0.254,1.264,0.254c0.689,0,1.218-0.111,1.584-0.333C183.821,26.595,184.004,26.304,184.004,25.945z
		 M182.639,19.119c-0.465,0-0.872,0.185-1.222,0.552c-0.349,0.369-0.523,0.805-0.523,1.309c0,0.418,0.132,0.78,0.394,1.085
		s0.609,0.457,1.041,0.457c0.576,0,1.02-0.207,1.333-0.622s0.47-0.849,0.47-1.301c0-0.428-0.15-0.781-0.451-1.061
		C183.38,19.259,183.033,19.119,182.639,19.119z"/>
	<path fill="#0093D0" d="M190.187,23.448v0.609c-0.571,0.432-1.183,0.647-1.835,0.647c-0.773,0-1.398-0.256-1.872-0.769
		c-0.474-0.512-0.711-1.19-0.711-2.037c0-0.918,0.263-1.691,0.787-2.32c0.524-0.628,1.163-0.942,1.917-0.942
		c0.631,0,1.135,0.221,1.511,0.663s0.565,1.045,0.565,1.807c0,0.131-0.009,0.279-0.025,0.443h-4.12
		c-0.017,0.152-0.025,0.277-0.025,0.375c0,0.609,0.181,1.137,0.543,1.58c0.361,0.445,0.843,0.667,1.444,0.667
		C188.979,24.172,189.586,23.931,190.187,23.448z M186.498,21.042h3.479c0.025-0.584-0.102-1.042-0.381-1.374
		s-0.658-0.498-1.136-0.498c-0.44,0-0.854,0.178-1.244,0.533S186.588,20.505,186.498,21.042z"/>
</g>
</svg>
