<?xml version="1.0" encoding="utf-8"?>
<!-- Generator: Adobe Illustrator 15.1.0, SVG Export Plug-In . SVG Version: 6.00 Build 0)  -->
<!DOCTYPE svg PUBLIC "-//W3C//DTD SVG 1.1//EN" "http://www.w3.org/Graphics/SVG/1.1/DTD/svg11.dtd">
<svg version="1.1" id="Layer_1" xmlns="http://www.w3.org/2000/svg" xmlns:xlink="http://www.w3.org/1999/xlink" x="0px" y="0px"
	 width="195.598px" height="32.221px" viewBox="-4.497 -4.532 195.598 32.221"
	 enable-background="new -4.497 -4.532 195.598 32.221" xml:space="preserve">
<symbol  id="Atlas" viewBox="-11.504 -11.468 23.008 22.935">
	<g>
		<path fill="#22AD80" d="M-11.504-10.047c0-0.783,0.635-1.418,1.418-1.418h20.098c0.783,0,1.418,0.635,1.418,1.418v20.098
			c0,0.781-0.635,1.416-1.418,1.416h-20.098c-0.783,0-1.418-0.635-1.418-1.416V-10.047z"/>
	</g>
	<path id="Around_Globe_8_" display="none" fill="none" stroke="#FFFFFF" stroke-width="0.75" stroke-miterlimit="10" d="
		M0.246,9.332c-5.363,0-9.727-4.363-9.727-9.727s4.363-9.729,9.727-9.729c5.362,0,9.726,4.363,9.726,9.729
		C9.972,4.969,5.607,9.332,0.246,9.332z"/>
	<path id="Around_Globe_7_" display="none" fill="#FFFFFF" d="M0.246-10.621c-5.64,0-10.227,4.588-10.227,10.229
		c0,5.639,4.587,10.227,10.227,10.227c5.638,0,10.226-4.586,10.226-10.227S5.884-10.621,0.246-10.621z M0.246,9.332
		c-5.363,0-9.727-4.363-9.727-9.727s4.363-9.729,9.727-9.729c5.362,0,9.726,4.363,9.726,9.729C9.972,4.969,5.607,9.332,0.246,9.332z
		"/>
	<linearGradient id="Around_Globe_1_" gradientUnits="userSpaceOnUse" x1="5.5415" y1="7.7598" x2="-5.0507" y2="-8.5509">
		<stop  offset="0" style="stop-color:#FFFFFF;stop-opacity:0"/>
		<stop  offset="1" style="stop-color:#FFFFFF"/>
	</linearGradient>
	<path id="Around_Globe_6_" opacity="0.3" fill="url(#Around_Globe_1_)" d="M0.246,9.332c-5.363,0-9.727-4.363-9.727-9.727
		s4.363-9.729,9.727-9.729c5.362,0,9.726,4.363,9.726,9.729C9.972,4.969,5.607,9.332,0.246,9.332z"/>
	<path id="Left_Hand_2_" fill="#FFFFFF" d="M-11.504,10.398V5.945c0.332-0.074,0.887-0.514,0.905-0.656
		c0.017-0.146,0.319-1.924,0.89-2.943c0.568-1.023,0.035-2.338,0.021-2.51c-0.038-0.504,1.021-0.117,1.264,0.557
		c0.17,0.475-0.056,2.492,0.522,3.486c0.368,0.625,1.177,0.316,2.153,0.016c1.627-0.496,3.938-1.82,4.59-1.188
		c0.505,0.49,0.019,0.723-0.217,0.758c-1.301,0.186-2.123,0.721-2.9,0.953c-0.451,0.135-1.311,0.412-1.131,0.51
		C-5.055,5.119-4.76,5.102-4.4,5.094c0,0-0.048,0.074,1.559-0.326c0.409-0.102,0.883-0.082,1.488-0.203
		c0.964-0.193,1.391,0.34,1.277,0.568c-0.086,0.17-0.776,0.271-1.422,0.312c-0.432,0.023-0.569,0.113-1.273,0.25
		C-3.311,5.799-4.391,5.967-4.353,6.1c0.039,0.135,0.642,0.346,1.075,0.512c0.643,0.25,0.934,0.277,1.298,0.346
		c0.8,0.146,1.212,0.217,1.632,0.234c0.42,0.02,0.538,0.334,0.314,0.461c-0.223,0.129-1.84,0.061-2.299,0.008
		c-0.457-0.059-0.986-0.377-1.562-0.395S-4.156,7.629-3.873,7.84c0.341,0.254,0.67,0.555,1.168,0.787
		c0.354,0.164,1.287,0.801,0.693,0.92c-0.228,0.047-0.912-0.271-1.549-0.658c-0.635-0.387-1.199-1.09-1.523-1.041
		C-5.407,7.895-5.826,8.1-6.812,8.137c-0.984,0.037,0.41,0.021-1.426,0.057s-2.434,1.32-2.985,2.037
		C-11.273,10.295-11.373,10.377-11.504,10.398z"/>
	<path id="Right_Hand_2_" fill="#FFFFFF" d="M2.076-10.855c0,0,0.611,1.025,1.101,1.924C3.664-8.037,5.099-6.184,5.86-5.639
		c0.765,0.545,2.197,2.414,2.197,2.414C8.369-2.811,8.343-2.52,8.172-2.445c-0.17,0.076-0.799-0.52-1.661-1.477
		C6.199-4.268,5.42-4.787,5.274-4.768C5.172-4.756,5.158-4.873,5.072-4.713c-0.062,0.119,2.743,3.516,3.01,3.91
		c0.265,0.395,0.099,0.748-0.246,0.627C7.494-0.293,6.607-1.709,6.093-2.145C5.61-2.553,4.863-3.512,4.531-3.609
		c-0.334-0.098-0.248,0.217-0.152,0.4S5.774-0.73,6.041-0.395c0.603,0.77,0.66,0.842,0.871,1.189c0.26,0.43,0.117,0.662-0.137,0.691
		C6.521,1.514,5.33,0.207,4.908-0.523c-0.423-0.73-1.175-2.025-1.4-2.014C3.357-2.525,3.31-2.379,3.465-1.955
		c0.152,0.424,1.129,3.752,1.242,4.158c0.111,0.406-0.363,0.273-0.363,0.273C4.049,2.414,2.828-0.77,2.601-1.387
		C2.402-1.922,2.26-1.992,1.369-3.039C0.92-3.568,0.744-2.713,0.847-2.188c0.104,0.521,0.258,2.52-0.235,2.668
		C0.322,0.566,0.162-0.334-0.145-1.123c-0.279-0.713-0.589-3.846-0.669-4.314c-0.08-0.471-1.347-3.115-1.997-4.195v-0.717
		L2.076-10.855z"/>
	<path id="D_2_" fill="#FFFFFF" d="M11.434,0.977c-0.221,2.021-0.936,3.789-2.146,5.312c-0.715,0.9-1.691,1.742-2.932,2.527
		c-0.078,0.051-0.156,0.1-0.254,0.158c-0.309,0.193-0.479,0.07-0.859-0.268C5.127,8.604,4.906,8.41,4.771,8.209
		c3.092-1.629,5.2-4.869,5.2-8.604c0-5.373-4.354-9.729-9.726-9.729c-1.07,0-2.098,0.18-3.061,0.498
		c-0.125-0.318-0.132-0.758-0.109-0.992c0.021-0.221,0.043-0.35,0.396-0.465c0.07-0.023,0.066-0.023,0.247-0.062
		c0.676-0.156,1.446-0.279,2.33-0.311c1.499-0.072,2.946,0.162,4.341,0.705c1.361,0.52,2.574,1.287,3.634,2.301
		s1.888,2.197,2.485,3.555C11.348-2.996,11.656-1.037,11.434,0.977z"/>
</symbol>
<symbol  id="Logo" viewBox="-42.827 -6.346 85.654 12.691">
	<g id="_x2D_23_xB0__3_">
		<g>
			<path fill="#0C67B1" d="M-39.102-5.792c0-0.08-0.005-0.149-0.013-0.203c-0.007-0.057-0.02-0.103-0.036-0.142
				c-0.016-0.038-0.037-0.066-0.061-0.086c-0.025-0.018-0.053-0.026-0.087-0.026h-3.174c-0.085,0-0.166,0.03-0.242,0.094
				c-0.077,0.062-0.114,0.175-0.114,0.333v7.329c0,0.033,0.007,0.062,0.021,0.087c0.016,0.023,0.041,0.042,0.078,0.057
				c0.038,0.015,0.087,0.027,0.149,0.037c0.064,0.011,0.139,0.016,0.228,0.016c0.092,0,0.169-0.005,0.229-0.016
				c0.062-0.01,0.11-0.022,0.148-0.037c0.037-0.015,0.062-0.033,0.078-0.057c0.014-0.025,0.021-0.054,0.021-0.087v-6.845h2.576
				c0.034,0,0.062-0.011,0.085-0.028c0.025-0.018,0.044-0.045,0.062-0.078c0.016-0.036,0.027-0.082,0.036-0.139
				C-39.107-5.641-39.102-5.71-39.102-5.792z"/>
			<path fill="#0C67B1" d="M-34.209-5.814c0-0.073-0.003-0.14-0.011-0.194c-0.007-0.054-0.021-0.1-0.039-0.137
				c-0.018-0.036-0.041-0.062-0.063-0.08c-0.025-0.017-0.05-0.023-0.08-0.023h-3.448c-0.085,0-0.165,0.032-0.24,0.094
				c-0.076,0.062-0.114,0.175-0.114,0.333v7.061c0,0.158,0.038,0.27,0.114,0.332c0.075,0.064,0.155,0.096,0.24,0.096h3.409
				c0.029,0,0.057-0.009,0.08-0.023c0.024-0.018,0.044-0.044,0.059-0.08c0.014-0.037,0.026-0.083,0.035-0.138
				c0.009-0.056,0.015-0.124,0.015-0.204c0-0.074-0.006-0.139-0.015-0.193s-0.021-0.1-0.035-0.135
				c-0.015-0.035-0.034-0.06-0.059-0.077c-0.023-0.017-0.051-0.023-0.08-0.023h-2.81v-2.484h2.408c0.03,0,0.058-0.009,0.082-0.027
				c0.023-0.02,0.043-0.044,0.061-0.076c0.017-0.033,0.028-0.078,0.036-0.135c0.007-0.058,0.011-0.125,0.011-0.201
				c0-0.075-0.004-0.138-0.011-0.19c-0.008-0.054-0.02-0.097-0.036-0.129c-0.018-0.033-0.037-0.057-0.061-0.071
				c-0.024-0.014-0.052-0.021-0.082-0.021h-2.408v-2.832h2.849c0.03,0,0.057-0.008,0.08-0.023c0.022-0.018,0.044-0.043,0.063-0.078
				c0.019-0.034,0.032-0.078,0.039-0.134C-34.212-5.665-34.209-5.733-34.209-5.814z"/>
			<path fill="#0C67B1" d="M-27.299-5.877c0.028-0.089,0.044-0.162,0.046-0.218c0.002-0.055-0.013-0.096-0.041-0.124
				c-0.03-0.028-0.078-0.047-0.147-0.056c-0.069-0.007-0.16-0.012-0.274-0.012c-0.115,0-0.206,0.003-0.275,0.009
				c-0.067,0.007-0.119,0.018-0.155,0.03c-0.035,0.014-0.061,0.033-0.078,0.059c-0.016,0.024-0.032,0.055-0.046,0.093l-0.616,1.926
				h-2.986l-0.59-1.901c-0.011-0.037-0.024-0.069-0.044-0.096c-0.018-0.025-0.045-0.049-0.08-0.068
				c-0.036-0.018-0.086-0.03-0.149-0.037c-0.064-0.009-0.149-0.014-0.253-0.014c-0.107,0-0.194,0.007-0.264,0.016
				c-0.069,0.011-0.117,0.03-0.145,0.059c-0.028,0.028-0.04,0.069-0.039,0.125c0.002,0.055,0.019,0.128,0.049,0.217l2.408,7.353
				c0.014,0.045,0.033,0.082,0.059,0.111c0.022,0.027,0.059,0.051,0.104,0.066c0.047,0.016,0.105,0.027,0.179,0.033
				c0.07,0.007,0.163,0.01,0.273,0.01c0.119,0,0.218-0.003,0.294-0.01c0.078-0.006,0.141-0.018,0.19-0.033
				c0.048-0.016,0.084-0.04,0.11-0.07c0.025-0.03,0.046-0.068,0.061-0.113L-27.299-5.877z M-30.393,0.614h-0.005l-1.237-3.944h2.497
				L-30.393,0.614z"/>
			<path fill="#0C67B1" d="M-21.518-6.091c0-0.032-0.006-0.062-0.017-0.085c-0.012-0.025-0.035-0.045-0.072-0.061
				c-0.038-0.019-0.089-0.029-0.155-0.038c-0.065-0.007-0.154-0.012-0.267-0.012c-0.097,0-0.175,0.005-0.235,0.012
				c-0.061,0.009-0.11,0.021-0.147,0.039c-0.037,0.02-0.066,0.045-0.086,0.077c-0.021,0.033-0.037,0.074-0.053,0.122l-0.661,1.866
				c-0.076,0.212-0.158,0.407-0.241,0.583c-0.082,0.179-0.182,0.332-0.298,0.46c-0.113,0.128-0.249,0.228-0.404,0.299
				c-0.154,0.071-0.341,0.108-0.561,0.108h-0.639v-3.371c0-0.032-0.007-0.062-0.025-0.085c-0.016-0.025-0.042-0.045-0.076-0.06
				C-25.49-6.249-25.539-6.26-25.6-6.271c-0.062-0.011-0.139-0.016-0.23-0.016c-0.093,0-0.17,0.005-0.23,0.016
				s-0.11,0.021-0.147,0.035c-0.035,0.015-0.062,0.034-0.076,0.06c-0.017,0.022-0.023,0.053-0.023,0.085v7.329
				c0,0.158,0.039,0.27,0.114,0.332c0.076,0.064,0.156,0.096,0.242,0.096h1.526c0.182,0,0.331-0.006,0.452-0.016
				c0.12-0.01,0.229-0.021,0.324-0.033c0.277-0.053,0.523-0.137,0.737-0.251c0.212-0.114,0.39-0.259,0.534-0.435
				c0.146-0.175,0.252-0.376,0.325-0.603c0.071-0.226,0.108-0.477,0.108-0.749c0-0.266-0.033-0.504-0.098-0.714
				c-0.064-0.208-0.158-0.395-0.279-0.556c-0.123-0.161-0.269-0.301-0.439-0.42c-0.17-0.117-0.361-0.219-0.571-0.299
				c0.119-0.057,0.226-0.13,0.321-0.217c0.097-0.089,0.186-0.192,0.27-0.315c0.083-0.123,0.162-0.264,0.236-0.422
				c0.073-0.16,0.147-0.338,0.221-0.539l0.645-1.742c0.052-0.148,0.085-0.25,0.1-0.311C-21.524-6.013-21.518-6.059-21.518-6.091z
				 M-22.956-0.53c0,0.31-0.062,0.571-0.187,0.787c-0.127,0.213-0.338,0.366-0.634,0.46c-0.093,0.029-0.197,0.051-0.313,0.061
				c-0.117,0.014-0.271,0.02-0.459,0.02h-0.805v-2.666h0.933c0.251,0,0.47,0.032,0.653,0.1c0.182,0.068,0.335,0.162,0.457,0.281
				c0.121,0.121,0.212,0.262,0.27,0.426C-22.984-0.898-22.956-0.723-22.956-0.53z"/>
			<path fill="#0C67B1" d="M-15.511-2.536c-0.031-0.076-0.069-0.136-0.115-0.178c-0.045-0.043-0.093-0.073-0.145-0.093
				c-0.052-0.018-0.103-0.023-0.154-0.02c-0.052,0.003-0.102,0.016-0.148,0.035l-0.29,0.123c-0.092,0.039-0.167,0.084-0.228,0.134
				c-0.059,0.05-0.108,0.115-0.147,0.193c-0.039,0.082-0.068,0.182-0.091,0.303c-0.021,0.119-0.036,0.268-0.043,0.443l-0.258,5.001
				c-0.015,0.259-0.025,0.528-0.032,0.809c-0.009,0.279-0.011,0.549-0.009,0.811l-0.011,0.005c-0.108-0.274-0.221-0.552-0.337-0.835
				c-0.115-0.283-0.232-0.562-0.351-0.841l-1.867-4.399c-0.011-0.024-0.028-0.048-0.053-0.065c-0.025-0.018-0.058-0.027-0.097-0.025
				c-0.041,0-0.089,0.009-0.149,0.023c-0.059,0.015-0.132,0.039-0.219,0.076c-0.086,0.038-0.155,0.071-0.207,0.105
				c-0.051,0.032-0.09,0.062-0.117,0.089c-0.028,0.026-0.043,0.056-0.046,0.086c-0.006,0.03-0.002,0.06,0.011,0.085l2.854,6.724
				c0.063,0.15,0.147,0.241,0.252,0.271c0.104,0.031,0.201,0.027,0.292-0.012l0.435-0.184c0.102-0.043,0.182-0.088,0.242-0.137
				c0.062-0.048,0.108-0.105,0.146-0.171c0.036-0.066,0.064-0.149,0.082-0.247c0.018-0.1,0.03-0.219,0.037-0.357l0.192-3.857
				c0.013-0.236,0.023-0.466,0.034-0.688c0.011-0.225,0.018-0.444,0.024-0.659c0.006-0.216,0.011-0.428,0.019-0.636
				c0.007-0.21,0.012-0.418,0.016-0.628l0.005-0.004c0.12,0.301,0.246,0.61,0.382,0.933c0.133,0.322,0.263,0.63,0.39,0.928
				l1.678,3.953c0.011,0.027,0.029,0.047,0.052,0.064c0.025,0.016,0.058,0.025,0.099,0.028c0.041,0.001,0.092-0.005,0.15-0.021
				c0.06-0.016,0.132-0.043,0.223-0.081c0.079-0.034,0.146-0.067,0.199-0.099c0.056-0.032,0.095-0.063,0.12-0.094
				c0.024-0.031,0.04-0.061,0.046-0.089c0.004-0.028,0.002-0.056-0.011-0.082L-15.511-2.536z"/>
		</g>
	</g>
	<g id="Discovery_3_">
		<path fill="#231F1C" d="M-4.693-6.257h1.087V1.5h-1.087V-6.257z"/>
		<path fill="#231F1C" d="M0.486-2.088l-0.832,0.5c-0.372,0.223-0.644,0.437-0.812,0.64C-1.326-0.745-1.41-0.528-1.41-0.295
			c0,0.262,0.114,0.477,0.342,0.644C-0.838,0.517-0.547,0.6-0.19,0.6c0.63,0,1.22-0.269,1.768-0.806v1.26
			C1.047,1.417,0.465,1.6-0.169,1.6c-0.664,0-1.205-0.191-1.618-0.572c-0.416-0.381-0.625-0.878-0.625-1.488
			c0-0.405,0.11-0.767,0.33-1.078c0.221-0.313,0.589-0.631,1.108-0.954l0.826-0.513c0.667-0.424,1-0.872,1-1.344
			c0-0.292-0.112-0.534-0.34-0.729c-0.227-0.192-0.509-0.29-0.851-0.29c-0.772,0-1.453,0.381-2.04,1.139v-1.409
			c0.616-0.47,1.301-0.707,2.051-0.707c0.653,0,1.184,0.194,1.591,0.584c0.409,0.389,0.612,0.894,0.612,1.515
			C1.876-3.373,1.413-2.653,0.486-2.088z"/>
		<path fill="#231F1C" d="M4.643-4.501c-0.566,0.546-0.85,1.247-0.85,2.099c0,0.843,0.288,1.545,0.863,2.107
			c0.575,0.559,1.298,0.84,2.168,0.84c0.85,0,1.718-0.26,2.605-0.778v1.194C8.455,1.387,7.566,1.6,6.77,1.6
			c-1.157,0-2.129-0.386-2.92-1.154c-0.788-0.771-1.182-1.72-1.182-2.848c0-0.711,0.171-1.373,0.517-1.981
			c0.345-0.612,0.813-1.091,1.404-1.438C5.18-6.171,5.9-6.344,6.748-6.344c1.045,0,1.967,0.221,2.764,0.666v1.221
			C8.635-5.033,7.735-5.323,6.813-5.323C5.931-5.323,5.208-5.05,4.643-4.501z"/>
		<path fill="#231F1C" d="M14.468,1.611c-1.174,0-2.146-0.381-2.914-1.14c-0.768-0.758-1.151-1.718-1.151-2.874
			c0-1.131,0.381-2.068,1.145-2.818c0.764-0.751,1.716-1.125,2.861-1.125c1.2,0,2.195,0.374,2.983,1.125
			c0.787,0.75,1.182,1.696,1.182,2.839c0,1.144-0.392,2.096-1.173,2.854C16.621,1.23,15.643,1.611,14.468,1.611z M16.602-4.475
			c-0.568-0.566-1.274-0.849-2.122-0.849c-0.845,0-1.548,0.277-2.108,0.833c-0.562,0.555-0.844,1.251-0.844,2.088
			c0,0.861,0.279,1.569,0.842,2.125c0.559,0.556,1.272,0.833,2.143,0.833c0.826,0,1.521-0.281,2.09-0.84
			c0.567-0.562,0.851-1.254,0.851-2.076C17.452-3.202,17.169-3.907,16.602-4.475z"/>
		<path fill="#231F1C" d="M21.896-3.946L19.611,1.5h-1.095l3.275-7.788h0.247L25.252,1.5h-1.084L21.896-3.946z"/>
		<path fill="#231F1C" d="M27.061-2.848h3.113v0.993h-3.113v2.365h3.222V1.5h-4.31v-7.746h4.413v0.988h-3.325V-2.848L27.061-2.848z"
			/>
		<path fill="#231F1C" d="M36.286-4.708c-0.42,0.7-0.748,1.191-0.979,1.473c-0.232,0.281-0.47,0.503-0.714,0.665
			c0.415,0.164,0.731,0.409,0.952,0.739c0.221,0.329,0.332,0.719,0.332,1.171c0,0.662-0.225,1.188-0.677,1.577
			C34.75,1.305,34.138,1.5,33.37,1.5h-1.906v-7.757h1.09v3.377h0.282c0.356,0,0.609-0.043,0.761-0.125
			c0.149-0.083,0.318-0.219,0.507-0.407c0.188-0.188,0.394-0.443,0.616-0.762l0.364-0.605l0.337-0.565l0.214-0.307
			c0.031-0.044,0.053-0.074,0.063-0.094l0.331-0.512h1.296l-0.404,0.556C36.763-5.479,36.551-5.147,36.286-4.708z M34.1-1.749
			c-0.204-0.095-0.582-0.143-1.134-0.143h-0.412v2.447h0.325c0.534,0,0.917-0.041,1.145-0.123c0.231-0.08,0.409-0.219,0.538-0.418
			c0.126-0.198,0.19-0.419,0.19-0.664c0-0.247-0.058-0.468-0.173-0.664C34.465-1.508,34.307-1.651,34.1-1.749z"/>
		<path fill="#231F1C" d="M41.507,1.5l-2.062-2.675L37.412,1.5h-1.314l2.809-3.653v-4.104h1.114v4.104L42.827,1.5H41.507z"/>
	</g>
	<g>
		<path display="none" fill="#1E1F21" d="M-8.925,5.422c-0.013,0.007-0.022,0.014-0.033,0.021C-9.12,5.539-9.049,5.496-8.925,5.422z
			"/>
		<path display="none" fill="#1E1F21" d="M-8.925,5.422c0.018-0.011,0.036-0.022,0.054-0.033C-8.302,5.043-8.7,5.285-8.925,5.422z"
			/>
		<path fill="#1E1F21" d="M-5.927,0.968c-0.148,1.157-0.577,2.167-1.287,3.029c-0.409,0.499-0.963,0.961-1.657,1.392
			C-8.928,5.423-8.994,5.462-9.072,5.51C-9.25,5.617-9.347,5.545-9.562,5.346c-0.119-0.109-0.443-0.397-0.287-0.557
			c0.023-0.023,0.045-0.047,0.067-0.071c1.596-0.894,2.687-2.585,2.721-4.545c0.051-2.934-2.286-5.353-5.22-5.404
			c-0.514-0.009-1.013,0.058-1.484,0.186c-0.003,0-0.007-0.002-0.009-0.002c-0.297-0.021-0.312-0.567-0.286-0.788
			c0.014-0.127,0.028-0.201,0.233-0.264c0.041-0.013,0.037-0.013,0.142-0.036c0.391-0.081,0.833-0.144,1.341-0.152
			c0.863-0.027,1.69,0.123,2.486,0.448c0.778,0.313,1.467,0.766,2.064,1.358C-7.192-3.889-6.73-3.2-6.398-2.415
			C-5.937-1.317-5.779-0.188-5.927,0.968z"/>
		<path display="none" fill="#1E1F21" d="M-8.105-1.643c1.251,2.893-0.023,4.655-1.676,6.36c-0.792,0.445-1.71,0.692-2.684,0.676
			c-2.936-0.052-5.272-2.472-5.221-5.406c0.043-2.419,1.696-4.432,3.921-5.033C-11.746-4.893-9.33-4.475-8.105-1.643z"/>
	</g>
</symbol>
<use xlink:href="#Atlas"  width="23.008" height="22.935" x="-11.504" y="-11.468" transform="matrix(1.3908 0 0 -1.3953 11.5034 11.4675)" overflow="visible"/>
<use xlink:href="#Logo"  width="85.654" height="12.691" x="-42.827" y="-6.346" transform="matrix(1.1291 0 0 -1.1291 82.5269 5.0164)" overflow="visible"/>
<text transform="matrix(1 0 0 1 58.2319 24.5911)"><tspan x="0" y="0" fill="#1C1E1F" font-family="'GillSans-LightItalic'" font-size="13">Atlas of </tspan><tspan x="40.123" y="0" fill="#0093D0" font-family="'GillSans-LightItalic'" font-size="13">Human Knowledge</tspan></text>
</svg>
