<?xml version="1.0" encoding="utf-8"?>
<!-- Generator: Adobe Illustrator 16.0.4, SVG Export Plug-In . SVG Version: 6.00 Build 0)  -->
<!DOCTYPE svg PUBLIC "-//W3C//DTD SVG 1.1//EN" "http://www.w3.org/Graphics/SVG/1.1/DTD/svg11.dtd">
<svg version="1.1" id="Layer_1" xmlns="http://www.w3.org/2000/svg" xmlns:xlink="http://www.w3.org/1999/xlink" x="0px" y="0px"
	 width="20px" height="20px" viewBox="0 0 20 20" enable-background="new 0 0 20 20" xml:space="preserve">
<path d="M10,0C4.477,0,0,4.477,0,10c0,5.522,4.477,10,10,10c5.522,0,10-4.478,10-10C20,4.477,15.522,0,10,0z M15.897,14.243
	c0.586,0.586,0.586,1.535,0,2.121c-0.293,0.293-0.677,0.439-1.061,0.439s-0.768-0.146-1.061-0.439L9.842,12.43l-3.935,3.934
	c-0.293,0.293-0.677,0.439-1.061,0.439s-0.768-0.146-1.061-0.439c-0.586-0.586-0.586-1.535,0-2.121l3.935-3.934L3.787,6.374
	c-0.586-0.586-0.586-1.536,0-2.121c0.586-0.586,1.535-0.586,2.121,0l3.934,3.935l3.935-3.934c0.586-0.586,1.535-0.586,2.121,0
	s0.586,1.536,0,2.121l-3.935,3.934L15.897,14.243z"/>
</svg>
