<?xml version="1.0" encoding="utf-8"?>
<!-- Generator: Adobe Illustrator 16.0.4, SVG Export Plug-In . SVG Version: 6.00 Build 0)  -->
<!DOCTYPE svg PUBLIC "-//W3C//DTD SVG 1.1//EN" "http://www.w3.org/Graphics/SVG/1.1/DTD/svg11.dtd">
<svg version="1.1" id="Layer_1" xmlns="http://www.w3.org/2000/svg" xmlns:xlink="http://www.w3.org/1999/xlink" x="0px" y="0px"
	 width="20px" height="20px" viewBox="0 0 20 20" enable-background="new 0 0 20 20" xml:space="preserve">
<path fill-rule="evenodd" clip-rule="evenodd" fill="#222222" d="M-0.004,10c0,5.514,4.485,10,10,10c5.514,0,10-4.486,10-10
	c0-5.514-4.486-10-10-10C4.481,0-0.004,4.486-0.004,10z M1.537,10c0-4.663,3.795-8.458,8.458-8.458c4.664,0,8.458,3.794,8.458,8.458
	c0,4.664-3.794,8.458-8.458,8.458C5.332,18.458,1.537,14.664,1.537,10z"/>
<text transform="matrix(1 0 0 1 6.9224 16)" fill="#222222" font-family="'Georgia-Italic'" font-size="17">i</text>
</svg>
