<?xml version="1.0" encoding="utf-8"?>
<!-- Generator: Adobe Illustrator 16.0.4, SVG Export Plug-In . SVG Version: 6.00 Build 0)  -->
<!DOCTYPE svg PUBLIC "-//W3C//DTD SVG 1.1//EN" "http://www.w3.org/Graphics/SVG/1.1/DTD/svg11.dtd">
<svg version="1.1" id="Isolation_Mode" xmlns="http://www.w3.org/2000/svg" xmlns:xlink="http://www.w3.org/1999/xlink" x="0px"
	 y="0px" width="241.263px" height="43.745px" viewBox="0 0 241.263 43.745" enable-background="new 0 0 241.263 43.745"
	 xml:space="preserve">
<g id="LD-23_2_1_">
	<g id="_x2D_23_xB0__1_">
		<g>
			<path fill="#0768B0" d="M10.534,34.325c0,0.231-0.011,0.424-0.031,0.58c-0.021,0.155-0.055,0.289-0.103,0.398
				c-0.047,0.109-0.104,0.189-0.173,0.241c-0.068,0.052-0.149,0.078-0.243,0.078h-8.98c-0.241,0-0.468-0.089-0.683-0.269
				C0.107,35.177,0,34.861,0,34.412V13.686c0-0.093,0.021-0.173,0.062-0.242s0.115-0.124,0.22-0.164
				c0.104-0.041,0.246-0.075,0.424-0.104c0.178-0.028,0.393-0.043,0.644-0.043c0.261,0,0.479,0.015,0.651,0.043
				c0.173,0.029,0.311,0.063,0.416,0.104c0.104,0.04,0.178,0.095,0.22,0.164C2.679,13.513,2.7,13.593,2.7,13.686v19.359h7.284
				c0.094,0,0.175,0.026,0.243,0.078c0.068,0.053,0.126,0.127,0.173,0.225c0.047,0.099,0.081,0.229,0.103,0.39
				C10.523,33.899,10.534,34.096,10.534,34.325z"/>
			<path fill="#0768B0" d="M24.376,34.395c0,0.208-0.011,0.39-0.031,0.545c-0.021,0.155-0.058,0.286-0.11,0.39
				c-0.052,0.104-0.112,0.179-0.18,0.226c-0.068,0.045-0.144,0.068-0.228,0.068h-9.749c-0.241,0-0.468-0.089-0.683-0.269
				c-0.215-0.178-0.322-0.493-0.322-0.942V14.447c0-0.45,0.107-0.765,0.322-0.943c0.214-0.179,0.442-0.269,0.683-0.269h9.639
				c0.084,0,0.16,0.024,0.228,0.069c0.068,0.047,0.123,0.121,0.165,0.225s0.076,0.234,0.102,0.39
				c0.026,0.156,0.039,0.349,0.039,0.579c0,0.208-0.013,0.39-0.039,0.546c-0.026,0.155-0.06,0.282-0.102,0.381
				c-0.042,0.098-0.097,0.169-0.165,0.216c-0.068,0.046-0.144,0.069-0.228,0.069h-7.943v7.023h6.813
				c0.083,0,0.159,0.026,0.228,0.078c0.068,0.052,0.125,0.124,0.173,0.216c0.047,0.094,0.081,0.22,0.102,0.382
				c0.021,0.161,0.031,0.352,0.031,0.57c0,0.208-0.01,0.387-0.031,0.536c-0.021,0.15-0.055,0.271-0.102,0.363
				c-0.047,0.093-0.105,0.158-0.173,0.199c-0.068,0.041-0.144,0.061-0.228,0.061h-6.813v8.01h8.053c0.084,0,0.16,0.024,0.228,0.069
				c0.068,0.047,0.128,0.119,0.18,0.217c0.053,0.098,0.089,0.225,0.11,0.38C24.366,33.971,24.376,34.164,24.376,34.395z"/>
			<path fill="#0768B0" d="M43.917,34.568c0.083,0.253,0.128,0.458,0.133,0.613c0.005,0.156-0.034,0.273-0.118,0.355
				c-0.084,0.08-0.222,0.132-0.416,0.154c-0.194,0.023-0.453,0.035-0.777,0.035c-0.325,0-0.583-0.008-0.777-0.025
				c-0.193-0.018-0.34-0.047-0.439-0.087s-0.172-0.095-0.22-0.164s-0.092-0.156-0.133-0.26l-1.743-5.45h-8.446l-1.664,5.382
				c-0.031,0.104-0.073,0.192-0.125,0.268c-0.053,0.075-0.128,0.138-0.228,0.19c-0.1,0.052-0.241,0.089-0.424,0.111
				c-0.184,0.023-0.422,0.035-0.714,0.035c-0.304,0-0.552-0.015-0.746-0.043c-0.193-0.029-0.33-0.084-0.408-0.164
				c-0.078-0.081-0.115-0.199-0.109-0.355c0.005-0.155,0.049-0.36,0.133-0.613l6.813-20.796c0.042-0.127,0.097-0.231,0.165-0.312
				c0.068-0.08,0.167-0.144,0.298-0.19c0.131-0.046,0.298-0.078,0.502-0.095c0.204-0.018,0.463-0.026,0.777-0.026
				c0.334,0,0.612,0.009,0.832,0.026c0.219,0.017,0.397,0.049,0.534,0.095c0.136,0.047,0.24,0.112,0.314,0.198
				c0.073,0.087,0.131,0.194,0.172,0.32L43.917,34.568z M35.172,16.212h-0.016L31.656,27.37h7.065L35.172,16.212z"/>
			<path fill="#0768B0" d="M60.271,35.173c0,0.093-0.016,0.173-0.047,0.243c-0.032,0.069-0.1,0.126-0.204,0.173
				c-0.105,0.046-0.251,0.08-0.439,0.103c-0.188,0.023-0.439,0.035-0.753,0.035c-0.272,0-0.495-0.012-0.667-0.035
				c-0.173-0.022-0.312-0.06-0.416-0.111c-0.105-0.053-0.186-0.125-0.243-0.217c-0.058-0.092-0.107-0.207-0.149-0.346l-1.868-5.277
				c-0.22-0.599-0.447-1.15-0.683-1.651c-0.235-0.502-0.516-0.935-0.84-1.298s-0.706-0.646-1.146-0.848
				c-0.439-0.202-0.968-0.303-1.585-0.303h-1.805v9.532c0,0.093-0.024,0.173-0.071,0.243c-0.047,0.069-0.121,0.124-0.22,0.164
				c-0.1,0.04-0.235,0.074-0.409,0.104c-0.172,0.028-0.39,0.043-0.651,0.043s-0.479-0.015-0.651-0.043
				c-0.172-0.029-0.312-0.063-0.416-0.104s-0.178-0.095-0.22-0.164c-0.042-0.07-0.062-0.15-0.062-0.243V14.447
				c0-0.45,0.107-0.765,0.321-0.943c0.215-0.179,0.442-0.269,0.683-0.269h4.317c0.513,0,0.939,0.015,1.279,0.044
				c0.34,0.028,0.646,0.061,0.918,0.095c0.785,0.149,1.478,0.387,2.08,0.709c0.602,0.323,1.107,0.733,1.515,1.229
				c0.408,0.496,0.714,1.064,0.918,1.704c0.204,0.641,0.306,1.348,0.306,2.119c0,0.75-0.092,1.422-0.274,2.016
				c-0.183,0.595-0.448,1.119-0.792,1.575c-0.346,0.455-0.759,0.851-1.241,1.185c-0.481,0.335-1.02,0.617-1.617,0.848
				c0.335,0.162,0.638,0.366,0.911,0.615c0.272,0.247,0.525,0.544,0.761,0.89c0.235,0.347,0.458,0.745,0.667,1.194
				c0.209,0.449,0.418,0.958,0.628,1.522l1.821,4.931c0.146,0.415,0.241,0.707,0.282,0.874
				C60.25,34.951,60.271,35.081,60.271,35.173z M56.205,19.447c0-0.877-0.178-1.618-0.534-2.224
				c-0.356-0.605-0.953-1.041-1.79-1.307c-0.262-0.08-0.558-0.138-0.887-0.173c-0.33-0.034-0.761-0.052-1.295-0.052h-2.276v7.543
				h2.637c0.712,0,1.327-0.095,1.845-0.285s0.95-0.456,1.295-0.796s0.599-0.741,0.762-1.202
				C56.124,20.491,56.205,19.989,56.205,19.447z"/>
			<path display="none" fill="#0768B0" d="M76.262,25.124c-0.09,0.212-0.199,0.379-0.328,0.501
				c-0.127,0.121-0.264,0.207-0.409,0.258c-0.146,0.052-0.292,0.07-0.439,0.059c-0.147-0.013-0.287-0.046-0.416-0.102l-0.822-0.349
				c-0.259-0.11-0.474-0.236-0.643-0.377s-0.309-0.325-0.417-0.553c-0.109-0.228-0.194-0.512-0.256-0.851
				c-0.061-0.34-0.103-0.759-0.122-1.256L71.68,8.312c-0.041-0.731-0.073-1.494-0.093-2.286c-0.022-0.792-0.03-1.557-0.025-2.294
				l-0.029-0.012c-0.306,0.773-0.623,1.56-0.951,2.359c-0.329,0.801-0.659,1.594-0.993,2.379l-5.279,12.438
				c-0.032,0.073-0.083,0.137-0.153,0.188c-0.07,0.052-0.161,0.076-0.273,0.072c-0.112-0.004-0.252-0.026-0.421-0.066
				c-0.169-0.041-0.375-0.112-0.619-0.217c-0.244-0.104-0.439-0.201-0.586-0.294c-0.146-0.095-0.257-0.179-0.333-0.255
				c-0.076-0.076-0.12-0.156-0.131-0.243c-0.012-0.086-0.001-0.167,0.03-0.241l8.071-19.015c0.18-0.425,0.418-0.682,0.714-0.769
				c0.295-0.088,0.572-0.077,0.831,0.032l1.223,0.52c0.288,0.122,0.518,0.252,0.689,0.387c0.171,0.136,0.308,0.298,0.411,0.484
				c0.103,0.188,0.179,0.421,0.231,0.699c0.051,0.28,0.087,0.616,0.105,1.013l0.546,10.907c0.036,0.668,0.067,1.316,0.096,1.949
				c0.028,0.632,0.05,1.253,0.067,1.861c0.016,0.607,0.034,1.207,0.052,1.798s0.034,1.184,0.045,1.776l0.014,0.007
				c0.336-0.848,0.695-1.726,1.076-2.636c0.38-0.91,0.748-1.783,1.104-2.623l4.746-11.18c0.031-0.074,0.081-0.134,0.149-0.181
				c0.067-0.046,0.159-0.073,0.276-0.08c0.117-0.006,0.259,0.014,0.426,0.058c0.167,0.046,0.376,0.123,0.63,0.231
				c0.224,0.095,0.413,0.188,0.566,0.277c0.154,0.091,0.266,0.179,0.337,0.266s0.114,0.17,0.128,0.251
				c0.013,0.081,0.004,0.159-0.027,0.233L76.262,25.124z"/>
			<path fill="#0768B0" d="M76.262,25.124c-0.09,0.212-0.199,0.379-0.328,0.501c-0.127,0.121-0.264,0.207-0.409,0.258
				c-0.146,0.052-0.292,0.07-0.439,0.059c-0.147-0.013-0.287-0.046-0.416-0.102l-0.822-0.349c-0.259-0.11-0.474-0.236-0.643-0.377
				s-0.309-0.325-0.417-0.553c-0.109-0.228-0.194-0.512-0.256-0.851c-0.061-0.34-0.103-0.759-0.122-1.256L71.68,8.312
				c-0.041-0.731-0.073-1.494-0.093-2.286c-0.022-0.792-0.03-1.557-0.025-2.294l-0.029-0.012c-0.306,0.773-0.623,1.56-0.951,2.359
				c-0.329,0.801-0.659,1.594-0.993,2.379l-5.279,12.438c-0.032,0.073-0.083,0.137-0.153,0.188c-0.07,0.052-0.161,0.076-0.273,0.072
				c-0.112-0.004-0.252-0.026-0.421-0.066c-0.169-0.041-0.375-0.112-0.619-0.217c-0.244-0.104-0.439-0.201-0.586-0.294
				c-0.146-0.095-0.257-0.179-0.333-0.255c-0.076-0.076-0.12-0.156-0.131-0.243c-0.012-0.086-0.001-0.167,0.03-0.241l8.071-19.015
				c0.18-0.425,0.418-0.682,0.714-0.769c0.295-0.088,0.572-0.077,0.831,0.032l1.223,0.52c0.288,0.122,0.518,0.252,0.689,0.387
				c0.171,0.136,0.308,0.298,0.411,0.484c0.103,0.188,0.179,0.421,0.231,0.699c0.051,0.28,0.087,0.616,0.105,1.013l0.546,10.907
				c0.036,0.668,0.067,1.316,0.096,1.949c0.028,0.632,0.05,1.253,0.067,1.861c0.016,0.607,0.034,1.207,0.052,1.798
				s0.034,1.184,0.045,1.776l0.014,0.007c0.336-0.848,0.695-1.726,1.076-2.636c0.38-0.91,0.748-1.783,1.104-2.623l4.746-11.18
				c0.031-0.074,0.081-0.134,0.149-0.181c0.067-0.046,0.159-0.073,0.276-0.08c0.117-0.006,0.259,0.014,0.426,0.058
				c0.167,0.046,0.376,0.123,0.63,0.231c0.224,0.095,0.413,0.188,0.566,0.277c0.154,0.091,0.266,0.179,0.337,0.266
				s0.114,0.17,0.128,0.251c0.013,0.081,0.004,0.159-0.027,0.233L76.262,25.124z"/>
		</g>
	</g>
	<g id="xDiscovery_-_Logotipo_-_XD_based_on_logarithmic_spiral_1_1_">
		<g id="Discovery_2_">
			<path display="none" fill="#221E1B" d="M94.308,2.94c-0.498-0.317-0.774-0.12-1.398,0.43c-0.342,0.302-1.278,1.094-0.848,1.556
				c4.647,5,8.288,10.099,4.505,18.312c-3.657,7.939-10.53,8.959-16.26,9.257c-0.842,0.044-0.919,1.587-0.862,2.217
				c0.033,0.355,0.07,0.566,0.641,0.758c0.116,0.039,0.108,0.04,0.4,0.108c1.098,0.26,2.351,0.465,3.786,0.522
				c2.436,0.131,4.791-0.237,7.065-1.104c2.221-0.833,4.197-2.067,5.929-3.706c1.733-1.637,3.092-3.554,4.077-5.752
				c1.38-3.078,1.899-6.259,1.561-9.541c-0.34-3.283-1.486-6.168-3.439-8.655c-1.175-1.496-2.788-2.897-4.842-4.204
				C93.261,2.27,97.853,5.2,94.308,2.94z"/>
			<path fill="#221E1B" d="M106.855,35.807h3.078V13.87h-3.078V35.807z"/>
			<path fill="#221E1B" d="M121.502,24.02l-2.349-1.419c-1.054-0.631-1.82-1.233-2.297-1.807c-0.475-0.572-0.714-1.188-0.714-1.845
				c0-0.743,0.325-1.35,0.97-1.823c0.647-0.475,1.471-0.712,2.478-0.712c1.783,0,3.452,0.76,5.001,2.28v-3.563
				c-1.499-1.027-3.145-1.543-4.941-1.543c-1.875,0-3.403,0.54-4.575,1.617c-1.177,1.079-1.766,2.481-1.766,4.209
				c0,1.149,0.312,2.169,0.931,3.053c0.622,0.886,1.665,1.783,3.134,2.697l2.338,1.451c1.887,1.198,2.831,2.466,2.831,3.8
				c0,0.826-0.32,1.51-0.961,2.059c-0.641,0.547-1.443,0.82-2.407,0.82c-2.188,0-4.11-1.074-5.771-3.223v3.988
				c1.742,1.333,3.678,1.997,5.801,1.997c1.848,0,3.345-0.548,4.5-1.647c1.155-1.099,1.734-2.529,1.734-4.285
				C125.439,27.652,124.127,25.618,121.502,24.02z"/>
			<path fill="#221E1B" d="M133.262,30.844c-1.601-1.548-2.401-3.527-2.401-5.935c0-2.387,0.811-4.372,2.439-5.96
				c1.626-1.584,3.669-2.379,6.132-2.379c2.4,0,4.857,0.733,7.371,2.199v-3.376c-2.76-1.203-5.27-1.806-7.525-1.806
				c-3.271,0-6.025,1.09-8.255,3.267c-2.233,2.178-3.347,4.863-3.347,8.055c0,2.01,0.486,3.879,1.463,5.604
				c0.974,1.728,2.299,3.085,3.971,4.066c1.671,0.986,3.708,1.477,6.109,1.477c2.955,0,5.56-0.628,7.816-1.883V30.72
				c-2.482,1.631-5.025,2.449-7.633,2.449C136.908,33.169,134.862,32.394,133.262,30.844z"/>
			<path fill="#221E1B" d="M161.052,13.557c-3.32,0-6.068,1.073-8.242,3.219c-2.172,2.146-3.258,4.857-3.258,8.134
				c0,3.193,1.078,5.85,3.236,7.97s4.855,3.178,8.094,3.178c3.395,0,6.209-1.058,8.438-3.178s3.344-4.798,3.344-8.033
				c0-3.233-1.105-5.925-3.314-8.07S164.374,13.557,161.052,13.557z M167.087,30.767c-1.605,1.602-3.605,2.402-6.002,2.402
				c-2.391,0-4.377-0.786-5.967-2.355c-1.588-1.57-2.383-3.539-2.383-5.904c0-2.438,0.791-4.442,2.377-6.014
				c1.582-1.57,3.604-2.356,6.064-2.356c2.336,0,4.305,0.796,5.91,2.379c1.605,1.588,2.406,3.542,2.406,5.867
				C169.493,27.17,168.692,29.164,167.087,30.767z"/>
			<path fill="#221E1B" d="M182.063,29.274l-6.463-15.404h-3.098l9.264,22.03h0.697l9.088-22.03h-3.066L182.063,29.274z"/>
			<path fill="#221E1B" d="M196.669,26.165h8.803v-2.81h-8.803v-6.691h9.109V13.87h-12.186v21.905h12.48v-2.794h-9.404V26.165z"/>
			<path fill="#221E1B" d="M222.761,31.425c-1.189-1.978-2.113-3.364-2.77-4.161c-0.658-0.795-1.328-1.422-2.018-1.883
				c1.17-0.462,2.066-1.158,2.693-2.089c0.625-0.932,0.938-2.035,0.938-3.314c0-1.872-0.639-3.358-1.914-4.459
				c-1.277-1.1-3.006-1.648-5.178-1.648h-5.389v21.937h3.078V26.26h0.801c1.006,0,1.723,0.117,2.15,0.352
				c0.426,0.236,0.904,0.62,1.434,1.152c0.529,0.534,1.111,1.251,1.744,2.151l1.029,1.712l0.953,1.604l0.602,0.865
				c0.092,0.124,0.152,0.213,0.184,0.267l0.938,1.444h3.662l-1.141-1.57C224.108,33.607,223.509,32.673,222.761,31.425z
				 M216.579,23.058c-0.578,0.271-1.646,0.405-3.207,0.405h-1.17v-6.924h0.926c1.508,0,2.588,0.116,3.236,0.348
				c0.652,0.229,1.158,0.624,1.518,1.184c0.359,0.561,0.539,1.187,0.539,1.878c0,0.7-0.162,1.326-0.486,1.877
				C217.612,22.374,217.161,22.784,216.579,23.058z"/>
			<path fill="#221E1B" d="M237.528,13.87l-5.832,7.563l-5.75-7.563h-3.717l7.941,10.333v11.604h3.154V24.203l7.938-10.333H237.528z
				"/>
			<path fill="#221E1B" d="M106.855,35.807h3.078V13.87h-3.078V35.807z"/>
			<path fill="#221E1B" d="M121.502,24.02l-2.349-1.419c-1.054-0.631-1.82-1.233-2.297-1.807c-0.475-0.572-0.714-1.188-0.714-1.845
				c0-0.743,0.325-1.35,0.97-1.823c0.647-0.475,1.471-0.712,2.478-0.712c1.783,0,3.452,0.76,5.001,2.28v-3.563
				c-1.499-1.027-3.145-1.543-4.941-1.543c-1.875,0-3.403,0.54-4.575,1.617c-1.177,1.079-1.766,2.481-1.766,4.209
				c0,1.149,0.312,2.169,0.931,3.053c0.622,0.886,1.665,1.783,3.134,2.697l2.338,1.451c1.887,1.198,2.831,2.466,2.831,3.8
				c0,0.826-0.32,1.51-0.961,2.059c-0.641,0.547-1.443,0.82-2.407,0.82c-2.188,0-4.11-1.074-5.771-3.223v3.988
				c1.742,1.333,3.678,1.997,5.801,1.997c1.848,0,3.345-0.548,4.5-1.647c1.155-1.099,1.734-2.529,1.734-4.285
				C125.439,27.652,124.127,25.618,121.502,24.02z"/>
			<path fill="#221E1B" d="M133.262,30.844c-1.601-1.548-2.401-3.527-2.401-5.935c0-2.387,0.811-4.372,2.439-5.96
				c1.626-1.584,3.669-2.379,6.132-2.379c2.4,0,4.857,0.733,7.371,2.199v-3.376c-2.76-1.203-5.27-1.806-7.525-1.806
				c-3.271,0-6.025,1.09-8.255,3.267c-2.233,2.178-3.347,4.863-3.347,8.055c0,2.01,0.486,3.879,1.463,5.604
				c0.974,1.728,2.299,3.085,3.971,4.066c1.671,0.986,3.708,1.477,6.109,1.477c2.955,0,5.56-0.628,7.816-1.883V30.72
				c-2.482,1.631-5.025,2.449-7.633,2.449C136.908,33.169,134.862,32.394,133.262,30.844z"/>
			<path fill="#221E1B" d="M161.052,13.557c-3.32,0-6.068,1.073-8.242,3.219c-2.172,2.146-3.258,4.857-3.258,8.134
				c0,3.193,1.078,5.85,3.236,7.97s4.855,3.178,8.094,3.178c3.395,0,6.209-1.058,8.438-3.178s3.344-4.798,3.344-8.033
				c0-3.233-1.105-5.925-3.314-8.07S164.374,13.557,161.052,13.557z M167.087,30.767c-1.605,1.602-3.605,2.402-6.002,2.402
				c-2.391,0-4.377-0.786-5.967-2.355c-1.588-1.57-2.383-3.539-2.383-5.904c0-2.438,0.791-4.442,2.377-6.014
				c1.582-1.57,3.604-2.356,6.064-2.356c2.336,0,4.305,0.796,5.91,2.379c1.605,1.588,2.406,3.542,2.406,5.867
				C169.493,27.17,168.692,29.164,167.087,30.767z"/>
			<path fill="#221E1B" d="M182.063,29.274l-6.463-15.404h-3.098l9.264,22.03h0.697l9.088-22.03h-3.066L182.063,29.274z"/>
			<path fill="#221E1B" d="M196.669,26.165h8.803v-2.81h-8.803v-6.691h9.109V13.87h-12.186v21.905h12.48v-2.794h-9.404V26.165z"/>
			<path fill="#221E1B" d="M222.761,31.425c-1.189-1.978-2.113-3.364-2.77-4.161c-0.658-0.795-1.328-1.422-2.018-1.883
				c1.17-0.462,2.066-1.158,2.693-2.089c0.625-0.932,0.938-2.035,0.938-3.314c0-1.872-0.639-3.358-1.914-4.459
				c-1.277-1.1-3.006-1.648-5.178-1.648h-5.389v21.937h3.078V26.26h0.801c1.006,0,1.723,0.117,2.15,0.352
				c0.426,0.236,0.904,0.62,1.434,1.152c0.529,0.534,1.111,1.251,1.744,2.151l1.029,1.712l0.953,1.604l0.602,0.865
				c0.092,0.124,0.152,0.213,0.184,0.267l0.938,1.444h3.662l-1.141-1.57C224.108,33.607,223.509,32.673,222.761,31.425z
				 M216.579,23.058c-0.578,0.271-1.646,0.405-3.207,0.405h-1.17v-6.924h0.926c1.508,0,2.588,0.116,3.236,0.348
				c0.652,0.229,1.158,0.624,1.518,1.184c0.359,0.561,0.539,1.187,0.539,1.878c0,0.7-0.162,1.326-0.486,1.877
				C217.612,22.374,217.161,22.784,216.579,23.058z"/>
			<path fill="#221E1B" d="M237.528,13.87l-5.832,7.563l-5.75-7.563h-3.717l7.941,10.333v11.604h3.154V24.203l7.938-10.333H237.528z
				"/>
		</g>
		<g id="xD-23__x7C__110_x25__-_based_on_golde_1">
			<g>
				<path display="none" fill="#1D1E20" d="M94.886,2.776c-0.032-0.02-0.062-0.039-0.094-0.058
					C94.336,2.443,94.539,2.566,94.886,2.776z"/>
				<path display="none" fill="#1D1E20" d="M94.886,2.776c0.052,0.032,0.102,0.064,0.152,0.096
					C96.65,3.848,95.524,3.164,94.886,2.776z"/>
				<path fill="#1D1E20" d="M103.366,15.376c-0.415-3.274-1.629-6.13-3.638-8.568c-1.16-1.409-2.726-2.72-4.69-3.936
					c-0.161-0.097-0.347-0.21-0.564-0.342c-0.507-0.306-0.777-0.101-1.388,0.461c-0.335,0.31-1.252,1.124-0.811,1.576
					c0.064,0.066,0.13,0.134,0.194,0.201c4.508,2.527,7.593,7.312,7.689,12.853c0.146,8.298-6.464,15.143-14.761,15.287
					c-1.454,0.025-2.862-0.161-4.198-0.523c-0.009,0.001-0.018,0.002-0.025,0.002c-0.841,0.063-0.882,1.607-0.81,2.234
					c0.039,0.356,0.081,0.565,0.658,0.743c0.116,0.036,0.107,0.036,0.402,0.099c1.102,0.234,2.359,0.411,3.794,0.434
					c2.438,0.074,4.783-0.347,7.034-1.266c2.199-0.887,4.146-2.166,5.839-3.843c1.692-1.676,3.004-3.624,3.938-5.844
					C103.34,21.837,103.783,18.646,103.366,15.376z"/>
				<path display="none" fill="#1D1E20" d="M97.206,22.758c3.536-8.181-0.069-13.167-4.736-17.989
					c-2.244-1.259-4.839-1.958-7.596-1.91c-8.299,0.145-14.907,6.988-14.763,15.287c0.119,6.844,4.797,12.535,11.089,14.239
					C86.912,31.951,93.742,30.766,97.206,22.758z"/>
			</g>
		</g>
	</g>
	<line fill="none" x1="73.078" y1="35.623" x2="68.791" y2="43.745"/>
</g>
</svg>
