<?xml version="1.0" encoding="utf-8"?>
<!-- Generator: Adobe Illustrator 15.1.0, SVG Export Plug-In . SVG Version: 6.00 Build 0)  -->
<!DOCTYPE svg PUBLIC "-//W3C//DTD SVG 1.1//EN" "http://www.w3.org/Graphics/SVG/1.1/DTD/svg11.dtd">
<svg version="1.1" id="Layer_1" xmlns="http://www.w3.org/2000/svg" xmlns:xlink="http://www.w3.org/1999/xlink" x="0px" y="0px"
	 width="595.328px" height="565.937px" viewBox="0 0 595.328 565.937" enable-background="new 0 0 595.328 565.937"
	 xml:space="preserve">
<linearGradient id="Around_Globe_minus_Hand_1_" gradientUnits="userSpaceOnUse" x1="516.6348" y1="-34.6606" x2="72.045" y2="649.9476">
	<stop  offset="0" style="stop-color:#FFFFFF;stop-opacity:0"/>
	<stop  offset="0.1279" style="stop-color:#FBFBFB;stop-opacity:0.0384"/>
	<stop  offset="0.2605" style="stop-color:#EEEFEF;stop-opacity:0.0781"/>
	<stop  offset="0.3953" style="stop-color:#DADADA;stop-opacity:0.1186"/>
	<stop  offset="0.5316" style="stop-color:#BDBDBD;stop-opacity:0.1595"/>
	<stop  offset="0.6692" style="stop-color:#979898;stop-opacity:0.2008"/>
	<stop  offset="0.8077" style="stop-color:#696A6B;stop-opacity:0.2423"/>
	<stop  offset="0.9445" style="stop-color:#343637;stop-opacity:0.2834"/>
	<stop  offset="1" style="stop-color:#1C1E1F;stop-opacity:0.3"/>
</linearGradient>
<path id="Around_Globe_minus_Hand" opacity="0.3" fill="url(#Around_Globe_minus_Hand_1_)" d="M304.024,28.137
	c-20.468,0-40.366,2.479-59.427,7.118c0,0,0,0,0,0c-5.24,4.622-12.6,9.147-16.808,11.094c-12.865,6.004-21.367,13.774-30.17,20.332
	c-7.315,5.45-15.388,15.287-0.53,14.834c14.859-0.454,28.532-8.678,40.337-10.191c11.856-1.363,53.632-3.129,59.383,0.202
	c5.776,3.28,2.724,11.402-8.123,11.907c-10.848,0.454-21.494,2.27-42.154,6.054c-9.409,1.766-16.926,2.472-33.525,8.93
	c-11.2,4.289-26.766,9.738-27.774,13.219c-0.984,3.431,26.917,7.769,40.841,10.443c18.188,3.532,21.745,5.853,32.896,6.458
	c16.675,1.061,34.509,3.684,36.73,8.073c2.926,5.902-8.098,19.677-32.997,14.682c-15.64-3.128-27.875-2.624-38.444-5.247
	c-41.498-10.343-40.262-8.426-40.262-8.426c-9.283-0.202-16.902-0.656-25.983,4.289c-4.641,2.522,17.558,9.687,29.213,13.167
	c20.08,6.003,41.32,19.828,74.922,24.621c6.08,0.908,18.643,6.912,5.6,19.576c-16.825,16.346-76.536-17.86-118.564-30.675
	c-25.227-7.771-46.114-15.742-55.625,0.404c-14.934,25.68-9.106,77.798-13.497,90.057c-4.396,12.233-19.211,20.789-27.294,20.284
	c0,0.016,0,0.033,0,0.049c0,138.544,112.712,251.306,251.256,251.306c138.519,0,251.23-112.711,251.23-251.306
	C555.255,140.848,442.519,28.137,304.024,28.137z"/>
<path id="Left_hand_1_" fill="#1C1E1F" fill-opacity="0.05" stroke="#1C1E1F" stroke-miterlimit="10" stroke-opacity="0.1" d="
	M213.008,98.418c16.599-6.458,24.117-7.165,33.525-8.93c20.661-3.784,31.307-5.601,42.154-6.054
	c10.847-0.505,13.898-8.627,8.123-11.907c-5.751-3.331-47.527-1.564-59.383-0.202c-11.806,1.513-25.479,9.738-40.337,10.191
	c-14.858,0.453-6.785-9.384,0.53-14.834c8.804-6.558,17.306-14.328,30.17-20.332c9.158-4.238,33.249-20.685,17.911-23.763
	c-5.878-1.21-23.562,7.013-40.009,17.002c-16.397,9.99-30.978,28.153-39.354,26.891c-8.35-1.21-19.172-6.508-44.65-7.466
	c-25.429-0.959,10.595-0.556-36.831-1.464S21.993,23.445,7.74,4.929C6.454,3.263,3.881,1.145,0.5,0.589v115.033
	c8.577,1.918,22.905,13.27,23.384,16.953c0.429,3.783,8.249,49.695,22.982,76.033c14.682,26.437,0.908,60.392,0.555,64.831
	c-0.983,13.017,26.387,3.028,32.643-14.379c4.39-12.259-1.437-64.377,13.497-90.057c9.511-16.146,30.398-8.174,55.625-0.404
	c42.028,12.815,101.739,47.021,118.564,30.675c13.042-12.664,0.48-18.668-5.6-19.576c-33.602-4.793-54.842-18.618-74.922-24.621
	c-11.655-3.481-33.854-10.646-29.213-13.167c9.082-4.945,16.701-4.491,25.983-4.289c0,0-1.236-1.917,40.262,8.426
	c10.569,2.623,22.805,2.119,38.444,5.247c24.899,4.995,35.923-8.779,32.997-14.682c-2.221-4.39-20.055-7.013-36.73-8.073
	c-11.15-0.605-14.707-2.926-32.896-6.458c-13.925-2.674-41.825-7.012-40.841-10.443C186.242,108.156,201.808,102.707,213.008,98.418
	z"/>
<path fill="#1C1E1F" fill-opacity="0.05" stroke="#1C1E1F" stroke-miterlimit="10" stroke-opacity="0.1" d="M593.02,243.974
	c-5.702-52.219-24.167-97.879-55.448-137.232c-18.467-23.259-43.692-45.004-75.729-65.286c-2.02-1.312-4.036-2.573-6.56-4.087
	c-7.973-4.995-12.36-1.816-22.198,6.912c-2.977,2.674-8.68,7.669-12.16,12.866c79.868,42.078,134.331,125.778,134.331,222.245
	c0,117.057-80.009,215.414-188.3,243.354c4.152-7.264,8.631-15.218,12.773-22.825c12.588-23.105,49.646-70.986,69.322-85.062
	c19.753-14.076,56.76-62.359,56.76-62.359c8.048-10.696,7.367-18.215,2.952-20.132c-4.39-1.968-20.636,13.421-42.91,38.143
	c-8.047,8.93-28.178,22.35-31.938,21.846c-2.648-0.303-3.001,2.724-5.222-1.412c-1.589-3.077,70.861-90.814,77.749-101.007
	c6.836-10.192,2.548-19.324-6.357-16.196c-8.829,3.028-31.735,39.606-45.03,50.856c-12.462,10.545-31.76,35.317-40.336,37.841
	c-8.627,2.522-6.408-5.601-3.936-10.342c2.472-4.743,36.048-64.027,42.936-72.704c15.564-19.878,17.053-21.745,22.501-30.726
	c6.711-11.1,3.028-17.104-3.531-17.86c-6.558-0.707-37.335,33.046-48.232,51.916c-10.923,18.869-30.348,52.32-36.175,52.017
	c-3.886-0.302-5.12-4.086-1.11-15.034c3.936-10.949,29.162-96.92,32.088-107.414c2.876-10.495-9.384-7.063-9.384-7.063
	c-7.619,1.614-39.151,83.853-45.029,99.796c-5.121,13.823-8.804,15.64-31.811,42.683c-11.604,13.673-16.146-8.427-13.496-21.997
	c2.699-13.471,6.66-65.084-6.08-68.919c-7.467-2.219-11.604,21.039-19.524,41.421c-7.215,18.415-15.212,99.343-17.28,111.452
	c-2.065,12.139-34.679,80.241-51.504,108.23c-0.062-0.021-0.124-0.039-0.186-0.06c-3.229,8.223-3.405,19.575-2.825,25.63
	c0.531,5.701,1.111,9.03,10.243,12.007c1.815,0.605,1.715,0.605,6.381,1.614c17.458,4.037,37.361,7.216,60.19,8.022
	c38.723,1.866,76.108-4.187,112.131-18.213c35.166-13.421,66.497-33.249,93.868-59.434s48.763-56.76,64.201-91.825
	C590.8,346.595,598.771,295.991,593.02,243.974z"/>
</svg>
