<?xml version="1.0" encoding="utf-8"?>
<!-- Generator: Adobe Illustrator 18.1.0, SVG Export Plug-In . SVG Version: 6.00 Build 0)  -->
<svg version="1.1"
	 id="svg11699" sodipodi:docname="xdiscovery-button-share" inkscape:version="0.48.4 r9939" xmlns:dc="http://purl.org/dc/elements/1.1/" xmlns:cc="http://creativecommons.org/ns#" xmlns:rdf="http://www.w3.org/1999/02/22-rdf-syntax-ns#" xmlns:svg="http://www.w3.org/2000/svg" xmlns:sodipodi="http://sodipodi.sourceforge.net/DTD/sodipodi-0.dtd" xmlns:inkscape="http://www.inkscape.org/namespaces/inkscape"
	 xmlns="http://www.w3.org/2000/svg" xmlns:xlink="http://www.w3.org/1999/xlink" x="0px" y="0px" viewBox="0 0 360 360"
	 enable-background="new 0 0 360 360" xml:space="preserve">
<sodipodi:namedview  fit-margin-bottom="0" fit-margin-right="0" inkscape:current-layer="layer1" inkscape:window-maximized="1" inkscape:window-y="24" inkscape:window-x="1649" inkscape:window-height="1056" inkscape:window-width="1871" inkscape:pageshadow="2" inkscape:pageopacity="0.0" fit-margin-left="0" fit-margin-top="0" inkscape:cy="-225.19282" inkscape:cx="1235.6593" inkscape:zoom="0.35" showgrid="false" borderopacity="1.0" pagecolor="#ffffff" bordercolor="#666666" id="base" inkscape:document-units="px">
	</sodipodi:namedview>
<g id="layer1" transform="translate(1193.5165,499.58787)" inkscape:groupmode="layer" inkscape:label="Layer 1">
	<g id="g11676" transform="matrix(0,-17.254173,17.254173,0,10442.693,-2252.8555)">
		
			<path id="path11666" sodipodi:ry="7.5474257" sodipodi:rx="7.5474257" sodipodi:cy="309.50256" sodipodi:cx="-141.92842" sodipodi:type="arc" d="
			M-115.8-658c0,1.9-1.5,3.3-3.3,3.3c-1.8,0-3.3-1.5-3.3-3.3c0-1.8,1.5-3.3,3.3-3.3C-117.3-661.4-115.8-659.8-115.8-658z"/>
		
			<path id="path11668" sodipodi:ry="7.5474257" sodipodi:rx="7.5474257" sodipodi:cy="309.50256" sodipodi:cx="-141.92842" sodipodi:type="arc" d="
			M-101.6-658c0,1.9-1.5,3.3-3.3,3.3c-1.8,0-3.3-1.5-3.3-3.3c0-1.8,1.5-3.3,3.3-3.3C-103.2-661.4-101.6-659.8-101.6-658z"/>
		
			<path id="path11670" sodipodi:ry="7.5474257" sodipodi:rx="7.5474257" sodipodi:cy="309.50256" sodipodi:cx="-141.92842" sodipodi:type="arc" d="
			M-108.7-670c0,1.9-1.5,3.3-3.3,3.3c-1.8,0-3.3-1.5-3.3-3.3s1.5-3.3,3.3-3.3C-110.2-673.3-108.7-671.8-108.7-670z"/>
		
			<rect id="rect11672" x="-121.3" y="-665.8" transform="matrix(0.5 -0.866 0.866 0.5 518.4138 -432.2924)" width="12.3" height="1.3"/>
		
			<rect id="rect11674" x="-115.3" y="-665.6" transform="matrix(-0.5 -0.866 0.866 -0.5 412.2175 -1091.9667)" width="12.3" height="1.3"/>
	</g>
</g>
</svg>
