<?xml version="1.0" encoding="utf-8"?>
<!-- Generator: Adobe Illustrator 16.0.4, SVG Export Plug-In . SVG Version: 6.00 Build 0)  -->
<!DOCTYPE svg PUBLIC "-//W3C//DTD SVG 1.1//EN" "http://www.w3.org/Graphics/SVG/1.1/DTD/svg11.dtd">
<svg version="1.1" id="Layer_1" xmlns="http://www.w3.org/2000/svg" xmlns:xlink="http://www.w3.org/1999/xlink" x="0px" y="0px"
	 width="20px" height="20px" viewBox="0 0 20 20" enable-background="new 0 0 20 20" xml:space="preserve">
<g>
	<path fill="#222222" d="M19.662,6.596l-3.677,2.836c-0.086,4.257-3.547,7.684-7.812,7.684c-4.318,0-6.856-3.301-6.856-7.633
		c0-4.332,3.5-7.667,6.792-7.875c0.581-0.037,1.212-0.111,1.757,0.01l0.001-1.5c-0.197-0.013-0.395-0.03-0.595-0.03
		C4.159,0.086,0,4.257,0,9.383c0,3.767,2.248,7.01,5.464,8.47c-0.008,0.201,0.001,0.37,0.01,0.462
		c0.023,0.243,0.094,0.979,1.066,1.3c0.07,0.023,0.082,0.029,0.299,0.082c0.747,0.171,1.469,0.266,2.191,0.292
		C9.198,19.997,9.364,20,9.532,20c1.257,0,2.492-0.232,3.665-0.689c1.305-0.502,2.477-1.245,3.479-2.21
		c1.007-0.965,1.808-2.111,2.379-3.408c0.793-1.805,1.089-3.695,0.879-5.615C19.879,7.568,19.786,7.076,19.662,6.596z"/>
	<path fill="#222222" d="M10.967,7.352h0.583v3.38l7.125-5.494L11.55,0v3.261h-0.583c-4.397,0-5.958,0.929-7.37,2.758
		C2.945,6.865,2.634,7.775,2.496,8.518C4.008,7.268,6.25,7.352,10.967,7.352z"/>
</g>
</svg>
