<?xml version="1.0" encoding="utf-8"?>
<!-- Generator: Adobe Illustrator 16.0.4, SVG Export Plug-In . SVG Version: 6.00 Build 0)  -->
<!DOCTYPE svg PUBLIC "-//W3C//DTD SVG 1.1//EN" "http://www.w3.org/Graphics/SVG/1.1/DTD/svg11.dtd">
<svg version="1.1" id="Layer_1" xmlns="http://www.w3.org/2000/svg" xmlns:xlink="http://www.w3.org/1999/xlink" x="0px" y="0px"
	 width="80px" height="80px" viewBox="0 0 80 80" enable-background="new 0 0 80 80" xml:space="preserve">
<g id="up">
	<path fill="#535353" d="M7,16.412v20.309c2,1.875,8.685,2.821,10.091,2.889C18.504,39.678,30.154,40,30.728,40
		c0.346,0,0.778-0.355,0.948-0.677c3.749-7.134,5.355-17.312,5.355-23.067c0-0.781-0.424-1.073-0.943-1.25
		c-0.517-0.176-12.55-1.328-15.336-1.197c0,0,1.196-4.036,1.196-6.535c0.001-2.03,0-4.322-2.577-6.795
		c-0.61-0.585-0.86-0.469-1.25-0.469c-0.39,0-1.093,0.215-1.093,0.859c0,2.447-0.059,5.13-2.968,9.737
		c-1.25,1.978-4.05,3.619-6.65,4.965C6.82,15.876,7,16.412,7,16.412z"/>
	<path fill="#535353" d="M4,37.75C4,38.439,3.44,39,2.75,39h-1.5C0.56,39,0,38.439,0,37.75v-22.5C0,14.56,0.56,14,1.25,14h1.5
		C3.44,14,4,14.56,4,15.25V37.75z"/>
</g>
<g id="down">
	<path fill="#535353" d="M47,23.588V3.279c2-1.874,8.686-2.821,10.091-2.889C58.504,0.322,70.154,0,70.729,0
		c0.346,0,0.777,0.356,0.947,0.677c3.749,7.134,5.355,17.312,5.355,23.067c0,0.781-0.424,1.072-0.943,1.25
		c-0.518,0.176-12.55,1.328-15.336,1.197c0,0,1.196,4.035,1.196,6.535c0.001,2.029,0,4.321-2.577,6.795
		c-0.609,0.584-0.859,0.469-1.25,0.469s-1.094-0.215-1.094-0.859c0-2.445-0.06-5.13-2.969-9.736c-1.25-1.979-4.05-3.619-6.649-4.965
		C46.82,24.123,47,23.588,47,23.588z"/>
	<path fill="#535353" d="M44,2.25C44,1.56,43.439,1,42.75,1h-1.5C40.561,1,40,1.56,40,2.25v22.5c0,0.689,0.561,1.25,1.25,1.25h1.5
		c0.689,0,1.25-0.561,1.25-1.25V2.25z"/>
</g>
<g id="up_1_">
	<path fill="#428BCA" d="M7,56.412v20.309c2,1.875,8.685,2.821,10.091,2.889C18.504,79.678,30.154,80,30.728,80
		c0.346,0,0.778-0.355,0.948-0.677c3.749-7.134,5.355-17.312,5.355-23.067c0-0.781-0.424-1.072-0.943-1.25
		c-0.517-0.176-12.55-1.328-15.336-1.197c0,0,1.196-4.035,1.196-6.535c0.001-2.029,0-4.321-2.577-6.795
		c-0.61-0.584-0.86-0.469-1.25-0.469c-0.39,0-1.093,0.215-1.093,0.859c0,2.447-0.059,5.13-2.968,9.736
		c-1.25,1.979-4.05,3.619-6.65,4.965C6.82,55.876,7,56.412,7,56.412z"/>
	<path fill="#428BCA" d="M4,77.75C4,78.439,3.44,79,2.75,79h-1.5C0.56,79,0,78.439,0,77.75v-22.5C0,54.561,0.56,54,1.25,54h1.5
		C3.44,54,4,54.561,4,55.25V77.75z"/>
</g>
<g id="down_1_">
	<path fill="#428BCA" d="M47,63.588V43.279c2-1.875,8.686-2.821,10.091-2.889C58.504,40.322,70.154,40,70.729,40
		c0.346,0,0.777,0.355,0.947,0.677c3.749,7.134,5.355,17.312,5.355,23.067c0,0.781-0.424,1.072-0.943,1.25
		c-0.518,0.176-12.55,1.328-15.336,1.197c0,0,1.196,4.035,1.196,6.535c0.001,2.029,0,4.321-2.577,6.795
		c-0.609,0.584-0.859,0.469-1.25,0.469s-1.094-0.215-1.094-0.859c0-2.445-0.06-5.13-2.969-9.736c-1.25-1.979-4.05-3.619-6.649-4.965
		C46.82,64.123,47,63.588,47,63.588z"/>
	<path fill="#428BCA" d="M44,42.25c0-0.689-0.561-1.25-1.25-1.25h-1.5C40.561,41,40,41.561,40,42.25v22.5
		c0,0.689,0.561,1.25,1.25,1.25h1.5c0.689,0,1.25-0.561,1.25-1.25V42.25z"/>
</g>
</svg>
