<?xml version="1.0" encoding="utf-8"?>
<!-- Generator: Adobe Illustrator 18.1.0, SVG Export Plug-In . SVG Version: 6.00 Build 0)  -->
<svg version="1.1" id="Layer_1" xmlns="http://www.w3.org/2000/svg" xmlns:xlink="http://www.w3.org/1999/xlink" x="0px" y="0px"
	 viewBox="-87.6 164 36.1 32.9" enable-background="new -87.6 164 36.1 32.9" xml:space="preserve">
<symbol  id="xD-23__x7C__110_x25__-_based_on_golde_1" viewBox="-32.5 -29.6 64.9 59.2">
	<path id="X_3_" fill="#25AD81" d="M-12-11.5c0-0.4-0.1-0.7-0.2-1c-0.1-0.2-0.3-0.4-0.5-0.5c-0.2-0.1-0.5-0.1-0.8,0
		c-0.3,0.1-1.7,0.6-2.2,0.8c-0.5,0.2-0.8,0.4-1.1,0.5c-0.2,0.2-0.4,0.3-0.6,0.5c-0.1,0.2-0.2,0.3-0.2,0.5s0,0.4,0,0.6
		c0,0,0.6,4.4,0.7,5.9c0.2,1.5,0.1,1.5,0.5,3.4c0.2,1,0.4,4.2,0.4,4.2s-4.2-3.7-5.7-5.5c-0.9-1.2-3.7-3.7-4.7-4.7
		c-0.3-0.3-1.2-1.5-1.2-1.5c-0.1-0.2-0.3-0.3-0.4-0.4C-28-8.9-28.1-9-28.3-9c-0.2,0-0.4,0-0.7,0.1c-0.3,0.1-1.4,0.6-1.9,0.7
		c-0.4,0.2-0.8,0.4-1,0.6c-0.3,0.2-0.4,0.4-0.5,0.6c-0.1,0.2,0,0.4,0.1,0.7c0.1,0.2,0.3,0.5,0.6,0.8c0,0,3,2.7,3.9,3.7
		c1.5,1.7,3.4,3.2,4.8,4.6c1.3,1.4,5.2,5.6,5.2,5.6s0.4,3.6,0.5,4.6c0.1,1.5-0.1,4.6,0.2,7.4c0.1,1.6,0.5,7.5,0.5,7.5
		c0,0.4,0.1,0.7,0.2,1c0.1,0.2,0.3,0.4,0.5,0.5c0.2,0.1,0.5,0.1,0.8,0c0.3-0.1,1.5-0.6,2-0.8c0.4-0.2,0.8-0.4,1-0.5
		c0.3-0.2,0.4-0.3,0.6-0.4c0.1-0.1,0.2-0.3,0.2-0.5c0-0.2,0-0.4,0-0.6c0,0-0.6-2.9-0.7-3.7c-0.1-1.6-0.5-3.9-0.4-6.1
		c0-1.3-0.3-5.5-0.3-5.5s3.5,3.3,4.7,4.8c0.9,1.1,0.7,0.7,1.7,1.7c0.5,0.5,1.8,2.1,1.8,2.1c0.1,0.1,0.3,0.2,0.4,0.3
		c0.1,0.1,0.3,0.2,0.5,0.2c0.2,0,0.4,0,0.6,0c0.3-0.1,1.5-0.6,2-0.8c0.4-0.2,0.8-0.4,1.1-0.6c0.3-0.2,0.4-0.4,0.5-0.6
		c0.1-0.2,0-0.4-0.1-0.7c-0.1-0.3-0.3-0.5-0.7-0.9c0,0-1.8-2-2.4-2.6c-1.4-1.4-1.7-1.4-3-3c-1.1-1.3-4.9-4.9-4.9-4.9
		s-0.5-5.2-0.6-6.9c-0.1-2.4-0.2-4.3-0.6-7C-12-8.4-12-11.5-12-11.5z"/>
	<path display="none" fill="#231F1C" d="M18.1,24.7c-0.8,0.5-1.3,0.2-2.3-0.7c-0.6-0.5-2.1-1.8-1.4-2.6C22.1,13.4,28.1,5.1,22-8.4
		c-5.9-13-17.1-14.7-26.4-15.3c-1.4-0.1-1.5-2.6-1.4-3.6c0.1-0.6,0.1-0.9,1.1-1.2c0.2-0.1,0.2-0.1,0.7-0.2c1.8-0.4,3.8-0.7,6.2-0.8
		c4-0.2,7.8,0.4,11.5,1.9c3.6,1.4,6.8,3.4,9.6,6.1s5,5.8,6.6,9.4c2.2,5,3,10.2,2.5,15.6c-0.6,5.4-2.5,10.1-5.7,14.1
		c-1.9,2.4-4.6,4.7-7.9,6.8C16.4,25.8,23.9,21.1,18.1,24.7z"/>
	<g display="none">
		<path display="inline" fill="#FFFFFF" d="M18,24.9c-0.8,0.5-1.3,0.2-2.3-0.7c-0.6-0.5-2.1-1.8-1.4-2.6c7.7-8.2,13.7-16.5,7.6-30
			C16-21.4,4.8-23.2-4.6-23.7C-6-23.8-6.1-26.3-6-27.3c0.1-0.6,0.1-0.9,1.1-1.2c0.2-0.1,0.2-0.1,0.7-0.2c1.8-0.4,3.9-0.7,6.2-0.8
			c4-0.2,7.9,0.4,11.6,1.9c3.6,1.4,6.9,3.4,9.7,6.1c2.8,2.7,5,5.9,6.6,9.5C32.1-7,32.9-1.8,32.3,3.6c-0.6,5.4-2.5,10.1-5.7,14.2
			c-1.9,2.4-4.6,4.7-8,6.9C16.3,26,23.9,21.3,18,24.9z"/>
		<path display="inline" fill="none" d="M18,24.9c-0.8,0.5-1.3,0.2-2.3-0.7c-0.6-0.5-2.1-1.8-1.4-2.6c7.7-8.2,13.7-16.5,7.6-30
			C16-21.4,4.8-23.2-4.6-23.7C-6-23.8-6.1-26.3-6-27.3c0.1-0.6,0.1-0.9,1.1-1.2c0.2-0.1,0.2-0.1,0.7-0.2c1.8-0.4,3.9-0.7,6.2-0.8
			c4-0.2,7.9,0.4,11.6,1.9c3.6,1.4,6.9,3.4,9.7,6.1c2.8,2.7,5,5.9,6.6,9.5C32.1-7,32.9-1.8,32.3,3.6c-0.6,5.4-2.5,10.1-5.7,14.2
			c-1.9,2.4-4.6,4.7-8,6.9C16.3,26,23.9,21.3,18,24.9z"/>
	</g>
	<g display="none">
		<path display="inline" fill="#1E1F21" d="M-23.1-0.1c0,14.1,11.4,25.5,25.5,25.5c14.1,0,25.5-11.4,25.5-25.5S16.4-25.5,2.4-25.5
			C-11.7-25.5-23.1-14.1-23.1-0.1z"/>
		<path display="inline" fill="#FFFFFF" d="M2.4-26.3c-14.5,0-26.3,11.8-26.3,26.3c0,14.5,11.8,26.3,26.3,26.3
			c14.5,0,26.3-11.8,26.3-26.3C28.7-14.6,16.9-26.3,2.4-26.3z M2.4,24.6c-13.6,0-24.7-11.1-24.7-24.6s11.1-24.7,24.7-24.7
			C16-24.7,27-13.7,27-0.1S16,24.6,2.4,24.6z"/>
	</g>
	<g>
		<path display="none" fill="#1E1F21" d="M18.8,24.3c-0.1,0-0.1,0.1-0.2,0.1C17.9,24.9,18.2,24.7,18.8,24.3z"/>
		<path display="none" fill="#1E1F21" d="M18.8,24.3c0.1-0.1,0.2-0.1,0.2-0.2C21.6,22.5,19.8,23.7,18.8,24.3z"/>
		<path fill="#1E1F21" d="M32.3,3.5c-0.6,5.4-2.5,10.1-5.7,14.1c-1.9,2.3-4.4,4.5-7.5,6.6c-0.3,0.2-0.6,0.4-0.9,0.6
			c-0.8,0.5-1.3,0.2-2.3-0.7c-0.6-0.5-2.1-1.8-1.4-2.6c0.1-0.1,0.2-0.2,0.3-0.3C22.1,16.9,27,9,27-0.1c0-13.6-11-24.5-24.5-24.5
			c-2.4,0-4.7,0.3-6.8,1c0,0,0,0,0,0c-1.4-0.1-1.5-2.6-1.4-3.6c0.1-0.6,0.1-0.9,1.1-1.2c0.2-0.1,0.2-0.1,0.7-0.2
			c1.8-0.4,3.8-0.7,6.2-0.8c4-0.2,7.8,0.4,11.5,1.9c3.6,1.4,6.8,3.4,9.6,6.1s5,5.8,6.6,9.4C32-7,32.8-1.8,32.3,3.5z"/>
		<path display="none" fill="#1E1F21" d="M22-8.4c6,13.3,0.3,21.5-7.2,29.5c-3.6,2.1-7.8,3.3-12.3,3.3c-13.6,0-24.5-11-24.5-24.5
			c0-11.2,7.5-20.6,17.7-23.6C4.9-23.1,16.1-21.3,22-8.4z"/>
	</g>
	<path display="none" fill="#FFFFFF" d="M-28.4,28.2V16.5c0.9-0.2,2.3-1.3,2.4-1.7c0-0.4,0.8-5,2.3-7.7c1.5-2.7,0.1-6.1,0.1-6.6
		C-23.7-0.8-21,0.2-20.3,2c0.4,1.2-0.1,6.5,1.4,9.1c1,1.6,3.1,0.8,5.6,0C-9.1,9.9-3,6.4-1.3,8.1c1.3,1.3,0,1.9-0.6,2
		c-3.4,0.5-5.6,1.9-7.6,2.5c-1.2,0.4-3.4,1.1-3,1.3c0.9,0.5,1.7,0.5,2.6,0.4c0,0-0.1,0.2,4.1-0.9c1.1-0.3,2.3-0.2,3.9-0.5
		c2.5-0.5,3.6,0.9,3.3,1.5c-0.2,0.4-2,0.7-3.7,0.8c-1.1,0.1-1.5,0.3-3.3,0.7c-1.4,0.3-4.2,0.7-4.1,1.1c0.1,0.3,1.7,0.9,2.8,1.3
		c1.7,0.7,2.4,0.7,3.4,0.9c2.1,0.4,3.2,0.6,4.3,0.6c1.1,0.1,1.4,0.9,0.8,1.2s-4.8,0.2-6,0c-1.2-0.1-2.6-1-4.1-1
		c-1.5,0-0.7,0.9,0.1,1.5c0.9,0.7,1.8,1.4,3.1,2.1C-4.4,24-2,25.7-3.5,26c-0.6,0.1-2.4-0.7-4.1-1.7c-1.7-1-3.1-2.9-4-2.7
		c-0.8,0.1-1.9,0.7-4.5,0.8c-2.6,0.1,1.1,0.1-3.7,0.1c-4.8,0.1-6.4,3.5-7.8,5.3C-27.8,27.9-28,28.1-28.4,28.2z"/>
	<g display="none">
		<path display="inline" fill="#FFFFFF" d="M5.8-27.5c0,0,2.2,2.7,3.4,5.1c1.3,2.3,5.8,7.2,7.8,8.6c2,1.4,5.8,6.3,5.8,6.3
			c0.8,1.1,0.7,1.8,0.3,2c-0.4,0.2-2.1-1.4-4.4-3.9c-0.8-0.9-2.9-2.3-3.2-2.2c-0.3,0-0.3-0.3-0.5,0.1c-0.2,0.3,7.2,9.2,7.9,10.2
			c0.7,1,0.3,2-0.6,1.6c-0.9-0.3-3.2-4-4.6-5.2c-1.3-1.1-3.2-3.6-4.1-3.8c-0.9-0.3-0.6,0.6-0.4,1c0.2,0.5,3.7,6.5,4.4,7.4
			c1.6,2,1.7,2.2,2.3,3.1c0.7,1.1,0.3,1.7-0.4,1.8c-0.7,0.1-3.8-3.4-4.9-5.3c-1.1-1.9-3.1-5.3-3.7-5.3c-0.4,0-0.5,0.4-0.1,1.5
			c0.4,1.1,3,9.8,3.3,10.9c0.3,1.1-1,0.7-1,0.7C12.3,7.3,9.1-1,8.5-2.6C8-4,7.6-4.2,5.3-7C4.1-8.4,3.7-6.1,3.9-4.7
			c0.3,1.4,0.7,6.6-0.6,7C2.6,2.5,2.1,0.1,1.3-2C0.6-3.8-0.2-12-0.4-13.3c-0.2-1.2-2.8-8.2-4.5-11L5.8-27.5z"/>
		<path display="inline" fill="none" d="M5.8-27.5c0,0,2.2,2.7,3.4,5.1c1.3,2.3,5.8,7.2,7.8,8.6c2,1.4,5.8,6.3,5.8,6.3
			c0.8,1.1,0.7,1.8,0.3,2c-0.4,0.2-2.1-1.4-4.4-3.9c-0.8-0.9-2.9-2.3-3.2-2.2c-0.3,0-0.3-0.3-0.5,0.1c-0.2,0.3,7.2,9.2,7.9,10.2
			c0.7,1,0.3,2-0.6,1.6c-0.9-0.3-3.2-4-4.6-5.2c-1.3-1.1-3.2-3.6-4.1-3.8c-0.9-0.3-0.6,0.6-0.4,1c0.2,0.5,3.7,6.5,4.4,7.4
			c1.6,2,1.7,2.2,2.3,3.1c0.7,1.1,0.3,1.7-0.4,1.8c-0.7,0.1-3.8-3.4-4.9-5.3c-1.1-1.9-3.1-5.3-3.7-5.3c-0.4,0-0.5,0.4-0.1,1.5
			c0.4,1.1,3,9.8,3.3,10.9c0.3,1.1-1,0.7-1,0.7C12.3,7.3,9.1-1,8.5-2.6C8-4,7.6-4.2,5.3-7C4.1-8.4,3.7-6.1,3.9-4.7
			c0.3,1.4,0.7,6.6-0.6,7C2.6,2.5,2.1,0.1,1.3-2C0.6-3.8-0.2-12-0.4-13.3c-0.2-1.2-2.8-8.2-4.5-11L5.8-27.5z"/>
	</g>
</symbol>
<symbol  id="xD-23__x7C__110_x25__-_based_on_golde_2" viewBox="-32.5 -29.6 64.9 59.1">
	<path id="X_1_" fill="#25AD81" d="M-12-11.5c0-0.4-0.1-0.7-0.2-1c-0.1-0.2-0.3-0.4-0.5-0.5c-0.2-0.1-0.5-0.1-0.8,0
		c-0.3,0.1-1.7,0.6-2.2,0.8c-0.5,0.2-0.8,0.4-1.1,0.5c-0.2,0.2-0.4,0.3-0.6,0.5c-0.1,0.2-0.2,0.3-0.2,0.5s0,0.4,0,0.6
		c0,0,0.6,4.4,0.7,5.9c0.2,1.5,0.1,1.5,0.5,3.4c0.2,1,0.4,4.2,0.4,4.2s-4.2-3.7-5.7-5.5c-0.9-1.2-3.7-3.7-4.7-4.7
		c-0.3-0.3-1.2-1.5-1.2-1.5c-0.1-0.2-0.3-0.3-0.4-0.4C-28-8.9-28.1-9-28.3-9c-0.2,0-0.4,0-0.7,0.1c-0.3,0.1-1.4,0.6-1.9,0.7
		c-0.4,0.2-0.8,0.4-1,0.6c-0.3,0.2-0.4,0.4-0.5,0.6c-0.1,0.2,0,0.4,0.1,0.7c0.1,0.2,0.3,0.5,0.6,0.8c0,0,3,2.7,3.9,3.7
		c1.5,1.7,3.4,3.2,4.8,4.6c1.3,1.4,5.2,5.6,5.2,5.6s0.4,3.6,0.5,4.6c0.1,1.5-0.1,4.6,0.2,7.4c0.1,1.6,0.5,7.5,0.5,7.5
		c0,0.4,0.1,0.7,0.2,1c0.1,0.2,0.3,0.4,0.5,0.5c0.2,0.1,0.5,0.1,0.8,0c0.3-0.1,1.5-0.6,2-0.8c0.4-0.2,0.8-0.4,1-0.5
		c0.3-0.2,0.4-0.3,0.6-0.4c0.1-0.1,0.2-0.3,0.2-0.5c0-0.2,0-0.4,0-0.6c0,0-0.6-2.9-0.7-3.7c-0.1-1.6-0.5-3.9-0.4-6.1
		c0-1.3-0.3-5.5-0.3-5.5s3.5,3.3,4.7,4.8c0.9,1.1,0.7,0.7,1.7,1.7c0.5,0.5,1.8,2.1,1.8,2.1c0.1,0.1,0.3,0.2,0.4,0.3
		c0.1,0.1,0.3,0.2,0.5,0.2c0.2,0,0.4,0,0.6,0c0.3-0.1,1.5-0.6,2-0.8c0.4-0.2,0.8-0.4,1.1-0.6c0.3-0.2,0.4-0.4,0.5-0.6
		c0.1-0.2,0-0.4-0.1-0.7c-0.1-0.3-0.3-0.5-0.7-0.9c0,0-1.8-2-2.4-2.6c-1.4-1.4-1.7-1.4-3-3c-1.1-1.3-4.9-4.9-4.9-4.9
		s-0.5-5.2-0.6-6.9c-0.1-2.4-0.2-4.3-0.6-7C-12-8.5-12-11.5-12-11.5z"/>
	<path fill="#231F1C" d="M18.1,24.7c-0.8,0.5-1.3,0.2-2.3-0.7c-0.6-0.5-2.1-1.8-1.4-2.6C22.1,13.3,28.1,5,22-8.4
		c-5.9-13-17.1-14.7-26.4-15.3c-1.4-0.1-1.5-2.6-1.4-3.6c0.1-0.6,0.1-0.9,1.1-1.2c0.2-0.1,0.2-0.1,0.7-0.2c1.8-0.4,3.8-0.7,6.2-0.8
		c4-0.2,7.8,0.4,11.5,1.9c3.6,1.4,6.8,3.4,9.6,6.1s5,5.8,6.6,9.4c2.2,5,3,10.2,2.5,15.6c-0.6,5.4-2.5,10.1-5.7,14.1
		c-1.9,2.4-4.6,4.7-7.9,6.8C16.4,25.8,23.9,21,18.1,24.7z"/>
</symbol>
<g id="xDiscovery_-_Logotipo_-_XD_based_on_logarithmic_spiral_1">
	<g id="Discovery_4_" display="none">
		<path display="inline" fill="#231F1C" d="M-59.5,166.8c-0.5-0.3-0.7-0.1-1.3,0.4c-0.3,0.3-1.2,1-0.8,1.4c4.2,4.5,7.5,9.2,4.1,16.6
			c-3.3,7.2-9.6,8.1-14.8,8.4c-0.8,0-0.8,1.4-0.8,2c0,0.3,0.1,0.5,0.6,0.7c0.1,0,0.1,0,0.4,0.1c1,0.2,2.1,0.4,3.4,0.5
			c2.2,0.1,4.4-0.2,6.4-1c2-0.8,3.8-1.9,5.4-3.4c1.6-1.5,2.8-3.2,3.7-5.2c1.3-2.8,1.7-5.7,1.4-8.7c-0.3-3-1.3-5.6-3.1-7.9
			c-1.1-1.4-2.5-2.6-4.4-3.8C-60.4,166.2-56.3,168.8-59.5,166.8z"/>
		<path display="inline" fill="#231F1C" d="M-49.2,184.5h1.9v-13.9h-1.9V184.5z"/>
		<path display="inline" fill="#231F1C" d="M-39.9,177.1l-1.5-0.9c-0.7-0.4-1.2-0.8-1.5-1.1c-0.3-0.4-0.5-0.8-0.5-1.2
			c0-0.5,0.2-0.9,0.6-1.2c0.4-0.3,0.9-0.4,1.6-0.4c1.1,0,2.2,0.5,3.2,1.4v-2.3c-0.9-0.7-2-1-3.1-1c-1.2,0-2.2,0.3-2.9,1
			c-0.7,0.7-1.1,1.6-1.1,2.7c0,0.7,0.2,1.4,0.6,1.9c0.4,0.6,1.1,1.1,2,1.7l1.5,0.9c1.2,0.8,1.8,1.6,1.8,2.4c0,0.5-0.2,1-0.6,1.3
			c-0.4,0.3-0.9,0.5-1.5,0.5c-1.4,0-2.6-0.7-3.7-2v2.5c1.1,0.8,2.3,1.3,3.7,1.3c1.2,0,2.1-0.3,2.8-1c0.7-0.7,1.1-1.6,1.1-2.7
			C-37.5,179.3-38.3,178.1-39.9,177.1z"/>
		<path display="inline" fill="#231F1C" d="M-32.5,181.4c-1-1-1.5-2.2-1.5-3.8c0-1.5,0.5-2.8,1.5-3.8c1-1,2.3-1.5,3.9-1.5
			c1.5,0,3.1,0.5,4.7,1.4v-2.1c-1.7-0.8-3.3-1.1-4.8-1.1c-2.1,0-3.8,0.7-5.2,2.1c-1.4,1.4-2.1,3.1-2.1,5.1c0,1.3,0.3,2.5,0.9,3.5
			c0.6,1.1,1.5,2,2.5,2.6c1.1,0.6,2.3,0.9,3.9,0.9c1.9,0,3.5-0.4,4.9-1.2v-2.2c-1.6,1-3.2,1.6-4.8,1.6
			C-30.2,182.8-31.5,182.3-32.5,181.4z"/>
		<path display="inline" fill="#231F1C" d="M-14.9,170.4c-2.1,0-3.8,0.7-5.2,2c-1.4,1.4-2.1,3.1-2.1,5.1c0,2,0.7,3.7,2,5
			s3.1,2,5.1,2c2.1,0,3.9-0.7,5.3-2s2.1-3,2.1-5.1c0-2-0.7-3.7-2.1-5.1C-11.1,171.1-12.8,170.4-14.9,170.4z M-11.1,181.3
			c-1,1-2.3,1.5-3.8,1.5c-1.5,0-2.8-0.5-3.8-1.5c-1-1-1.5-2.2-1.5-3.7c0-1.5,0.5-2.8,1.5-3.8c1-1,2.3-1.5,3.8-1.5
			c1.5,0,2.7,0.5,3.7,1.5c1,1,1.5,2.2,1.5,3.7C-9.6,179-10.1,180.3-11.1,181.3z"/>
		<path display="inline" fill="#231F1C" d="M-1.6,180.4l-4.1-9.7h-2l5.9,13.9h0.4l5.7-13.9H2.4L-1.6,180.4z"/>
		<path display="inline" fill="#231F1C" d="M7.6,178.4h5.6v-1.8H7.6v-4.2h5.8v-1.8H5.7v13.9h7.9v-1.8H7.6L7.6,178.4L7.6,178.4z"/>
		<path display="inline" fill="#231F1C" d="M24.1,181.7c-0.8-1.3-1.3-2.1-1.8-2.6c-0.4-0.5-0.8-0.9-1.3-1.2c0.7-0.3,1.3-0.7,1.7-1.3
			c0.4-0.6,0.6-1.3,0.6-2.1c0-1.2-0.4-2.1-1.2-2.8c-0.8-0.7-1.9-1-3.3-1h-3.4v13.9h1.9v-6h0.5c0.6,0,1.1,0.1,1.4,0.2
			c0.3,0.1,0.6,0.4,0.9,0.7c0.3,0.3,0.7,0.8,1.1,1.4l0.7,1.1l0.6,1l0.4,0.5c0.1,0.1,0.1,0.1,0.1,0.2l0.6,0.9H26l-0.7-1
			C25,183.1,24.6,182.5,24.1,181.7z M20.2,176.4c-0.4,0.2-1,0.3-2,0.3h-0.7v-4.4H18c1,0,1.6,0.1,2,0.2c0.4,0.1,0.7,0.4,1,0.7
			c0.2,0.4,0.3,0.8,0.3,1.2c0,0.4-0.1,0.8-0.3,1.2C20.9,176,20.6,176.3,20.2,176.4z"/>
		<path display="inline" fill="#231F1C" d="M33.5,170.6l-3.7,4.8l-3.6-4.8h-2.4l5,6.5v7.3h2v-7.3l5-6.5H33.5z"/>
		<path display="inline" fill="#231F1C" d="M-49.2,184.5h1.9v-13.9h-1.9V184.5z"/>
		<path display="inline" fill="#231F1C" d="M-39.9,177.1l-1.5-0.9c-0.7-0.4-1.2-0.8-1.5-1.1c-0.3-0.4-0.5-0.8-0.5-1.2
			c0-0.5,0.2-0.9,0.6-1.2c0.4-0.3,0.9-0.4,1.6-0.4c1.1,0,2.2,0.5,3.2,1.4v-2.3c-0.9-0.7-2-1-3.1-1c-1.2,0-2.2,0.3-2.9,1
			c-0.7,0.7-1.1,1.6-1.1,2.7c0,0.7,0.2,1.4,0.6,1.9c0.4,0.6,1.1,1.1,2,1.7l1.5,0.9c1.2,0.8,1.8,1.6,1.8,2.4c0,0.5-0.2,1-0.6,1.3
			c-0.4,0.3-0.9,0.5-1.5,0.5c-1.4,0-2.6-0.7-3.7-2v2.5c1.1,0.8,2.3,1.3,3.7,1.3c1.2,0,2.1-0.3,2.8-1c0.7-0.7,1.1-1.6,1.1-2.7
			C-37.5,179.3-38.3,178.1-39.9,177.1z"/>
		<path display="inline" fill="#231F1C" d="M-32.5,181.4c-1-1-1.5-2.2-1.5-3.8c0-1.5,0.5-2.8,1.5-3.8c1-1,2.3-1.5,3.9-1.5
			c1.5,0,3.1,0.5,4.7,1.4v-2.1c-1.7-0.8-3.3-1.1-4.8-1.1c-2.1,0-3.8,0.7-5.2,2.1c-1.4,1.4-2.1,3.1-2.1,5.1c0,1.3,0.3,2.5,0.9,3.5
			c0.6,1.1,1.5,2,2.5,2.6c1.1,0.6,2.3,0.9,3.9,0.9c1.9,0,3.5-0.4,4.9-1.2v-2.2c-1.6,1-3.2,1.6-4.8,1.6
			C-30.2,182.8-31.5,182.3-32.5,181.4z"/>
		<path display="inline" fill="#231F1C" d="M-14.9,170.4c-2.1,0-3.8,0.7-5.2,2c-1.4,1.4-2.1,3.1-2.1,5.1c0,2,0.7,3.7,2,5
			s3.1,2,5.1,2c2.1,0,3.9-0.7,5.3-2s2.1-3,2.1-5.1c0-2-0.7-3.7-2.1-5.1C-11.1,171.1-12.8,170.4-14.9,170.4z M-11.1,181.3
			c-1,1-2.3,1.5-3.8,1.5c-1.5,0-2.8-0.5-3.8-1.5c-1-1-1.5-2.2-1.5-3.7c0-1.5,0.5-2.8,1.5-3.8c1-1,2.3-1.5,3.8-1.5
			c1.5,0,2.7,0.5,3.7,1.5c1,1,1.5,2.2,1.5,3.7C-9.6,179-10.1,180.3-11.1,181.3z"/>
		<path display="inline" fill="#231F1C" d="M-1.6,180.4l-4.1-9.7h-2l5.9,13.9h0.4l5.7-13.9H2.4L-1.6,180.4z"/>
		<path display="inline" fill="#231F1C" d="M7.6,178.4h5.6v-1.8H7.6v-4.2h5.8v-1.8H5.7v13.9h7.9v-1.8H7.6L7.6,178.4L7.6,178.4z"/>
		<path display="inline" fill="#231F1C" d="M24.1,181.7c-0.8-1.3-1.3-2.1-1.8-2.6c-0.4-0.5-0.8-0.9-1.3-1.2c0.7-0.3,1.3-0.7,1.7-1.3
			c0.4-0.6,0.6-1.3,0.6-2.1c0-1.2-0.4-2.1-1.2-2.8c-0.8-0.7-1.9-1-3.3-1h-3.4v13.9h1.9v-6h0.5c0.6,0,1.1,0.1,1.4,0.2
			c0.3,0.1,0.6,0.4,0.9,0.7c0.3,0.3,0.7,0.8,1.1,1.4l0.7,1.1l0.6,1l0.4,0.5c0.1,0.1,0.1,0.1,0.1,0.2l0.6,0.9H26l-0.7-1
			C25,183.1,24.6,182.5,24.1,181.7z M20.2,176.4c-0.4,0.2-1,0.3-2,0.3h-0.7v-4.4H18c1,0,1.6,0.1,2,0.2c0.4,0.1,0.7,0.4,1,0.7
			c0.2,0.4,0.3,0.8,0.3,1.2c0,0.4-0.1,0.8-0.3,1.2C20.9,176,20.6,176.3,20.2,176.4z"/>
		<path display="inline" fill="#231F1C" d="M33.5,170.6l-3.7,4.8l-3.6-4.8h-2.4l5,6.5v7.3h2v-7.3l5-6.5H33.5z"/>
	</g>
	<path id="X_5_" display="none" fill="#25AD81" d="M-74.3,186.5c0,0.2-0.1,0.4-0.1,0.5c-0.1,0.1-0.1,0.2-0.2,0.3
		c-0.1,0-0.2,0.1-0.4,0c-0.2,0-0.9-0.3-1.1-0.4c-0.2-0.1-0.4-0.2-0.5-0.3c-0.1-0.1-0.2-0.2-0.3-0.2c-0.1-0.1-0.1-0.2-0.1-0.3
		c0-0.1,0-0.2,0-0.3c0,0,0.3-2.3,0.4-3c0.1-0.8,0.1-0.8,0.2-1.7c0.1-0.5,0.2-2.1,0.2-2.1s-2.2,1.9-2.9,2.8c-0.5,0.6-1.9,1.9-2.4,2.4
		c-0.2,0.2-0.6,0.8-0.6,0.8c-0.1,0.1-0.1,0.1-0.2,0.2c-0.1,0.1-0.2,0.1-0.3,0.1c-0.1,0-0.2,0-0.4,0c-0.1,0-0.7-0.3-0.9-0.4
		c-0.2-0.1-0.4-0.2-0.5-0.3c-0.1-0.1-0.2-0.2-0.2-0.3c0-0.1,0-0.2,0-0.4c0.1-0.1,0.2-0.3,0.3-0.4c0,0,1.5-1.4,2-1.9
		c0.8-0.9,1.7-1.6,2.4-2.3c0.7-0.7,2.7-2.8,2.7-2.8s0.2-1.8,0.2-2.4c0.1-0.8,0-2.4,0.1-3.8c0.1-0.8,0.3-3.8,0.3-3.8
		c0-0.2,0.1-0.4,0.1-0.5s0.1-0.2,0.2-0.3c0.1-0.1,0.2-0.1,0.4,0c0.2,0,0.8,0.3,1,0.4c0.2,0.1,0.4,0.2,0.5,0.3
		c0.1,0.1,0.2,0.2,0.3,0.2c0.1,0.1,0.1,0.2,0.1,0.2c0,0.1,0,0.2,0,0.3c0,0-0.3,1.5-0.4,1.9c-0.1,0.8-0.3,2-0.2,3.1
		c0,0.6-0.2,2.8-0.2,2.8s1.8-1.7,2.4-2.4c0.4-0.6,0.4-0.4,0.9-0.9c0.2-0.3,0.9-1.1,0.9-1.1c0.1-0.1,0.1-0.1,0.2-0.2
		c0.1,0,0.1-0.1,0.2-0.1c0.1,0,0.2,0,0.3,0c0.1,0,0.8,0.3,1,0.4c0.2,0.1,0.4,0.2,0.5,0.3c0.1,0.1,0.2,0.2,0.3,0.3c0,0.1,0,0.2,0,0.3
		c-0.1,0.1-0.2,0.3-0.3,0.4c0,0-0.9,1-1.2,1.3c-0.7,0.7-0.9,0.7-1.6,1.5c-0.6,0.7-2.5,2.5-2.5,2.5s-0.3,2.7-0.3,3.5
		c-0.1,1.2-0.1,2.2-0.3,3.6C-74.3,185-74.3,186.5-74.3,186.5z"/>
	
		<use xlink:href="#xD-23__x7C__110_x25__-_based_on_golde_2"  width="64.9" height="59.1" x="-32.5" y="-29.6" transform="matrix(0.5563 0 0 -0.5563 -69.5786 180.4754)" display="none" overflow="visible"/>
	
		<use xlink:href="#xD-23__x7C__110_x25__-_based_on_golde_1"  width="64.9" height="59.2" id="XMLID_2_" x="-32.5" y="-29.6" transform="matrix(0.5561 0 0 -0.5561 -69.5707 180.5031)" overflow="visible"/>
</g>
</svg>
