<?xml version="1.0" encoding="utf-8"?>
<!-- Generator: Adobe Illustrator 15.1.0, SVG Export Plug-In . SVG Version: 6.00 Build 0)  -->
<!DOCTYPE svg PUBLIC "-//W3C//DTD SVG 1.1//EN" "http://www.w3.org/Graphics/SVG/1.1/DTD/svg11.dtd">
<svg version="1.1" id="Layer_1" xmlns="http://www.w3.org/2000/svg" xmlns:xlink="http://www.w3.org/1999/xlink" x="0px" y="0px"
	 width="40.562px" height="37px" viewBox="0 0 40.562 37" enable-background="new 0 0 40.562 37" xml:space="preserve">
<symbol  id="xD-23__x7C__110_x25__-_based_on_golde_1" viewBox="-35.033 -29.476 64.933 59.23">
	<path id="X_8_" fill="#25AD81" d="M-14.542-11.347c-0.034-0.415-0.107-0.748-0.214-0.994c-0.107-0.248-0.27-0.419-0.485-0.513
		c-0.211-0.087-0.481-0.101-0.809-0.04c-0.327,0.07-1.68,0.623-2.156,0.83c-0.458,0.2-0.812,0.377-1.064,0.534
		c-0.249,0.157-0.438,0.312-0.557,0.478c-0.122,0.162-0.194,0.332-0.215,0.511c-0.021,0.179-0.025,0.374-0.005,0.581
		c0,0,0.598,4.432,0.749,5.88c0.154,1.533,0.094,1.48,0.468,3.413c0.203,1.035,0.431,4.179,0.431,4.179s-4.203-3.656-5.71-5.547
		c-0.933-1.167-3.654-3.653-4.692-4.711c-0.305-0.305-1.157-1.511-1.157-1.511c-0.143-0.154-0.286-0.289-0.433-0.391
		c-0.144-0.107-0.319-0.171-0.521-0.191c-0.199-0.023-0.438,0.007-0.712,0.08c-0.283,0.076-1.425,0.555-1.853,0.741
		c-0.445,0.192-0.792,0.388-1.049,0.574c-0.255,0.19-0.414,0.392-0.474,0.603c-0.064,0.213-0.035,0.443,0.077,0.683
		c0.115,0.245,0.322,0.519,0.621,0.824c0,0,3.025,2.683,3.913,3.704c1.515,1.743,3.376,3.17,4.779,4.612
		c1.332,1.368,5.236,5.612,5.236,5.612s0.392,3.552,0.455,4.646c0.091,1.534-0.063,4.634,0.163,7.385
		c0.136,1.646,0.496,7.506,0.498,7.503c0.035,0.419,0.1,0.749,0.203,1.003c0.1,0.247,0.261,0.427,0.479,0.53
		c0.222,0.105,0.49,0.122,0.812,0.045c0.32-0.082,1.514-0.572,2.006-0.787c0.444-0.193,0.792-0.367,1.041-0.528
		c0.253-0.152,0.437-0.304,0.556-0.448c0.122-0.146,0.189-0.299,0.21-0.461c0.019-0.168,0.02-0.355-0.001-0.564
		c0,0-0.61-2.896-0.667-3.725c-0.108-1.643-0.5-3.904-0.44-6.107c0.036-1.261-0.334-5.457-0.334-5.457s3.512,3.277,4.708,4.799
		c0.859,1.094,0.709,0.746,1.677,1.734c0.488,0.504,1.824,2.104,1.824,2.104c0.132,0.131,0.262,0.244,0.396,0.337
		c0.133,0.098,0.285,0.16,0.455,0.198c0.17,0.033,0.383,0.02,0.636-0.049c0.256-0.064,1.54-0.602,1.954-0.785
		c0.444-0.191,0.795-0.375,1.057-0.552c0.261-0.176,0.428-0.365,0.503-0.568c0.078-0.204,0.05-0.432-0.079-0.687
		c-0.129-0.253-0.347-0.545-0.656-0.871c0,0-1.779-1.999-2.424-2.643c-1.399-1.396-1.697-1.395-3.027-3.007
		c-1.117-1.348-4.932-4.915-4.932-4.915s-0.484-5.235-0.587-6.931c-0.144-2.388-0.23-4.259-0.572-6.979
		C-14.602-8.276-14.542-11.347-14.542-11.347z"/>
	<path display="none" fill="#231F1C" d="M15.537,24.868c-0.817,0.514-1.266,0.188-2.279-0.712c-0.556-0.497-2.074-1.8-1.368-2.551
		c7.634-8.112,13.622-16.398,7.531-29.839c-5.892-12.992-17.1-14.721-26.446-15.263C-8.4-23.575-8.511-26.095-8.41-27.12
		c0.054-0.583,0.115-0.926,1.053-1.232c0.188-0.062,0.174-0.062,0.654-0.172c1.792-0.415,3.84-0.738,6.182-0.817
		c3.977-0.191,7.818,0.43,11.521,1.868c3.614,1.383,6.831,3.417,9.642,6.105c2.811,2.688,5.008,5.833,6.596,9.428
		c2.225,5.038,3.04,10.234,2.452,15.584c-0.584,5.357-2.483,10.054-5.695,14.093c-1.931,2.432-4.577,4.701-7.941,6.817
		C13.821,25.954,21.344,21.216,15.537,24.868z"/>
	<g display="none">
		<path display="inline" fill="#FFFFFF" d="M15.483,25.084c-0.825,0.516-1.276,0.186-2.292-0.718
			c-0.562-0.501-2.088-1.812-1.377-2.565c7.676-8.16,13.7-16.494,7.573-30.012C13.46-21.279,2.19-23.017-7.212-23.562
			c-1.383-0.081-1.494-2.614-1.393-3.646c0.056-0.586,0.117-0.928,1.059-1.236c0.191-0.065,0.174-0.065,0.66-0.177
			c1.802-0.415,3.863-0.741,6.217-0.821c4-0.191,7.865,0.434,11.588,1.881c3.634,1.389,6.87,3.436,9.696,6.139
			c2.828,2.703,5.039,5.868,6.633,9.483c2.237,5.067,3.059,10.294,2.468,15.675c-0.588,5.39-2.497,10.111-5.728,14.175
			c-1.941,2.446-4.604,4.729-7.988,6.855C13.756,26.175,21.321,21.408,15.483,25.084z"/>
		<path display="inline" fill-rule="evenodd" clip-rule="evenodd" fill="none" d="M15.483,25.084
			c-0.825,0.516-1.276,0.186-2.292-0.718c-0.562-0.501-2.088-1.812-1.377-2.565c7.676-8.16,13.7-16.494,7.573-30.012
			C13.46-21.279,2.19-23.017-7.212-23.562c-1.383-0.081-1.494-2.614-1.393-3.646c0.056-0.586,0.117-0.928,1.059-1.236
			c0.191-0.065,0.174-0.065,0.66-0.177c1.802-0.415,3.863-0.741,6.217-0.821c4-0.191,7.865,0.434,11.588,1.881
			c3.634,1.389,6.87,3.436,9.696,6.139c2.828,2.703,5.039,5.868,6.633,9.483c2.237,5.067,3.059,10.294,2.468,15.675
			c-0.588,5.39-2.497,10.111-5.728,14.175c-1.941,2.446-4.604,4.729-7.988,6.855C13.756,26.175,21.321,21.408,15.483,25.084z"/>
	</g>
	<g display="none">
		<path display="inline" fill="#1E1F21" d="M-25.655,0.078c0,14.066,11.4,25.468,25.468,25.468
			c14.063,0,25.463-11.401,25.463-25.468s-11.4-25.467-25.463-25.467C-14.254-25.389-25.655-13.988-25.655,0.078z"/>
		<path display="inline" fill="#FFFFFF" d="M-0.187-26.203c-14.492,0-26.283,11.788-26.283,26.281
			c0,14.491,11.791,26.28,26.283,26.28c14.49,0,26.279-11.789,26.279-26.28C26.092-14.415,14.303-26.203-0.187-26.203z
			 M-0.187,24.728c-13.594,0-24.652-11.057-24.652-24.649s11.058-24.652,24.652-24.652c13.59,0,24.649,11.06,24.649,24.652
			S13.403,24.728-0.187,24.728z"/>
	</g>
	<g>
		<path display="none" fill="#1E1F21" d="M16.203,24.455c-0.052,0.033-0.1,0.066-0.151,0.099
			C15.315,25.016,15.644,24.809,16.203,24.455z"/>
		<path display="none" fill="#1E1F21" d="M16.203,24.455c0.083-0.053,0.163-0.107,0.246-0.16
			C19.054,22.656,17.235,23.804,16.203,24.455z"/>
		<path fill="#1E1F21" d="M29.688,3.644c-0.584,5.357-2.483,10.054-5.695,14.093c-1.853,2.333-4.372,4.516-7.544,6.559
			c-0.259,0.162-0.56,0.352-0.912,0.573c-0.817,0.514-1.266,0.188-2.279-0.712c-0.556-0.497-2.074-1.8-1.368-2.551
			c0.104-0.111,0.208-0.223,0.312-0.334C19.489,17.018,24.39,9.118,24.39,0.069c0-13.552-10.984-24.536-24.534-24.536
			c-2.375,0-4.668,0.344-6.84,0.974c-0.014-0.001-0.027-0.002-0.041-0.003C-8.4-23.575-8.511-26.095-8.41-27.12
			c0.054-0.583,0.115-0.926,1.053-1.232c0.188-0.062,0.174-0.062,0.654-0.172c1.792-0.415,3.84-0.738,6.182-0.817
			c3.977-0.191,7.818,0.43,11.521,1.868c3.614,1.383,6.831,3.417,9.642,6.105c2.811,2.688,5.008,5.833,6.596,9.428
			C29.461-6.902,30.276-1.706,29.688,3.644z"/>
		<path display="none" fill="#1E1F21" d="M19.421-8.233c6.007,13.256,0.263,21.498-7.22,29.505
			c-3.627,2.117-7.843,3.336-12.345,3.336c-13.553,0-24.538-10.985-24.538-24.538c0-11.177,7.475-20.601,17.697-23.562
			C2.354-22.949,13.538-21.207,19.421-8.233z"/>
	</g>
	<path display="none" fill="#FFFFFF" d="M-30.949,28.338V16.675c0.867-0.19,2.323-1.339,2.371-1.715
		c0.041-0.38,0.834-5.037,2.328-7.71c1.488-2.685,0.093-6.118,0.058-6.57c-0.099-1.318,2.673-0.309,3.306,1.458
		c0.449,1.239-0.143,6.527,1.371,9.127c0.961,1.64,3.08,0.828,5.638,0.045c4.259-1.306,10.311-4.772,12.015-3.113
		c1.322,1.285,0.05,1.896-0.564,1.986c-3.411,0.481-5.565,1.894-7.6,2.493c-1.179,0.356-3.43,1.083-2.959,1.334
		c0.92,0.502,1.688,0.459,2.631,0.438c0,0-0.124,0.192,4.084-0.854c1.07-0.265,2.309-0.214,3.896-0.535
		c2.525-0.508,3.644,0.884,3.344,1.49c-0.226,0.444-2.031,0.706-3.719,0.815c-1.131,0.067-1.495,0.302-3.339,0.656
		c-1.408,0.273-4.236,0.714-4.134,1.063c0.102,0.348,1.679,0.898,2.813,1.331c1.682,0.656,2.443,0.735,3.399,0.908
		c2.093,0.388,3.173,0.565,4.271,0.611c1.099,0.053,1.411,0.875,0.825,1.21c-0.586,0.335-4.816,0.16-6.018,0.017
		c-1.201-0.145-2.584-0.984-4.09-1.024c-1.506-0.048-0.691,0.949,0.05,1.503c0.893,0.661,1.755,1.449,3.062,2.058
		c0.927,0.431,3.371,2.098,1.812,2.41c-0.596,0.122-2.389-0.712-4.054-1.721c-1.663-1.011-3.142-2.855-3.988-2.729
		c-0.844,0.126-1.943,0.66-4.526,0.758c-2.578,0.096,1.076,0.057-3.73,0.145c-4.81,0.092-6.377,3.459-7.817,5.335
		C-30.346,28.063-30.607,28.281-30.949,28.338z"/>
	<g display="none">
		<path display="inline" fill="#FFFFFF" d="M3.269-27.347c0,0,2.167,2.723,3.447,5.068c1.28,2.343,5.797,7.196,7.795,8.623
			c1.997,1.432,5.752,6.321,5.752,6.321c0.809,1.082,0.749,1.847,0.302,2.045c-0.446,0.202-2.093-1.359-4.354-3.865
			c-0.809-0.901-2.85-2.266-3.236-2.215c-0.261,0.033-0.31-0.274-0.529,0.144c-0.16,0.313,7.183,9.204,7.875,10.238
			c0.695,1.038,0.258,1.958-0.641,1.644c-0.894-0.31-3.213-4.016-4.565-5.156c-1.264-1.07-3.223-3.577-4.093-3.831
			c-0.872-0.253-0.646,0.563-0.398,1.047c0.248,0.481,3.656,6.492,4.351,7.373c1.577,2.011,1.729,2.2,2.28,3.115
			c0.679,1.125,0.309,1.736-0.353,1.813c-0.665,0.074-3.791-3.351-4.893-5.262c-1.102-1.91-3.071-5.303-3.663-5.267
			C7.948-5.482,7.824-5.098,8.229-3.987C8.63-2.878,11.188,5.837,11.48,6.9c0.296,1.061-0.952,0.719-0.952,0.719
			C9.76,7.451,6.563-0.883,5.967-2.498C5.448-3.902,5.075-4.084,2.743-6.825C1.568-8.212,1.103-5.971,1.371-4.603
			c0.271,1.37,0.675,6.597-0.618,6.987C-0.002,2.61-0.42,0.249-1.226-1.817c-0.729-1.864-1.542-10.066-1.752-11.3
			c-0.211-1.229-2.778-8.208-4.481-11.035L3.269-27.347z"/>
		<path display="inline" fill-rule="evenodd" clip-rule="evenodd" fill="none" d="M3.269-27.347c0,0,2.167,2.723,3.447,5.068
			c1.28,2.343,5.797,7.196,7.795,8.623c1.997,1.432,5.752,6.321,5.752,6.321c0.809,1.082,0.749,1.847,0.302,2.045
			c-0.446,0.202-2.093-1.359-4.354-3.865c-0.809-0.901-2.85-2.266-3.236-2.215c-0.261,0.033-0.31-0.274-0.529,0.144
			c-0.16,0.313,7.183,9.204,7.875,10.238c0.695,1.038,0.258,1.958-0.641,1.644c-0.894-0.31-3.213-4.016-4.565-5.156
			c-1.264-1.07-3.223-3.577-4.093-3.831c-0.872-0.253-0.646,0.563-0.398,1.047c0.248,0.481,3.656,6.492,4.351,7.373
			c1.577,2.011,1.729,2.2,2.28,3.115c0.679,1.125,0.309,1.736-0.353,1.813c-0.665,0.074-3.791-3.351-4.893-5.262
			c-1.102-1.91-3.071-5.303-3.663-5.267C7.948-5.482,7.824-5.098,8.229-3.987C8.63-2.878,11.188,5.837,11.48,6.9
			c0.296,1.061-0.952,0.719-0.952,0.719C9.76,7.451,6.563-0.883,5.967-2.498C5.448-3.902,5.075-4.084,2.743-6.825
			C1.568-8.212,1.103-5.971,1.371-4.603c0.271,1.37,0.675,6.597-0.618,6.987C-0.002,2.61-0.42,0.249-1.226-1.817
			c-0.729-1.864-1.542-10.066-1.752-11.3c-0.211-1.229-2.778-8.208-4.481-11.035L3.269-27.347z"/>
	</g>
</symbol>
<use xlink:href="#xD-23__x7C__110_x25__-_based_on_golde_1"  width="64.933" height="59.23" id="XMLID_1_" x="-35.033" y="-29.476" transform="matrix(0.6247 0 0 -0.6247 21.8843 18.5869)" overflow="visible"/>
</svg>
