<?xml version="1.0" encoding="utf-8"?>
<!-- Generator: Adobe Illustrator 16.0.4, SVG Export Plug-In . SVG Version: 6.00 Build 0)  -->
<!DOCTYPE svg PUBLIC "-//W3C//DTD SVG 1.1//EN" "http://www.w3.org/Graphics/SVG/1.1/DTD/svg11.dtd">
<svg version="1.1" id="Layer_1" xmlns="http://www.w3.org/2000/svg" xmlns:xlink="http://www.w3.org/1999/xlink" x="0px" y="0px"
	 width="265.721px" height="36.988px" viewBox="0 0 265.721 36.988" enable-background="new 0 0 265.721 36.988"
	 xml:space="preserve">
<symbol  id="xD-23__x7C__110_x25__-_based_on_golde_1" viewBox="-35.033 -29.476 64.933 59.23">
	<path id="X_8_" fill="#23AC80" d="M-14.542-11.347c-0.034-0.415-0.107-0.748-0.214-0.994c-0.107-0.248-0.27-0.419-0.485-0.513
		c-0.211-0.087-0.481-0.101-0.809-0.04c-0.327,0.07-1.68,0.623-2.156,0.83c-0.458,0.2-0.812,0.377-1.064,0.534
		c-0.249,0.157-0.438,0.312-0.557,0.478c-0.122,0.162-0.194,0.332-0.215,0.511c-0.021,0.179-0.025,0.374-0.005,0.581
		c0,0,0.598,4.432,0.749,5.88c0.154,1.533,0.094,1.48,0.468,3.413c0.203,1.035,0.431,4.179,0.431,4.179s-4.203-3.656-5.71-5.547
		c-0.933-1.167-3.654-3.653-4.692-4.711c-0.305-0.305-1.157-1.511-1.157-1.511c-0.143-0.154-0.286-0.289-0.433-0.391
		c-0.144-0.107-0.319-0.171-0.521-0.191c-0.199-0.023-0.438,0.007-0.712,0.08c-0.283,0.076-1.425,0.555-1.853,0.741
		c-0.445,0.192-0.792,0.388-1.049,0.574c-0.255,0.19-0.414,0.392-0.474,0.603c-0.064,0.213-0.035,0.443,0.077,0.683
		c0.115,0.245,0.322,0.519,0.621,0.824c0,0,3.025,2.683,3.913,3.704c1.515,1.743,3.376,3.17,4.779,4.612
		c1.332,1.368,5.236,5.612,5.236,5.612s0.392,3.552,0.455,4.646c0.091,1.534-0.063,4.634,0.163,7.385
		c0.136,1.646,0.496,7.506,0.498,7.503c0.035,0.419,0.1,0.749,0.203,1.003c0.1,0.247,0.261,0.427,0.479,0.53
		c0.222,0.105,0.49,0.122,0.812,0.045c0.32-0.082,1.514-0.572,2.006-0.787c0.444-0.193,0.792-0.367,1.041-0.528
		c0.253-0.152,0.437-0.304,0.556-0.448c0.122-0.146,0.189-0.299,0.21-0.461c0.019-0.168,0.02-0.355-0.001-0.564
		c0,0-0.61-2.896-0.667-3.725c-0.108-1.643-0.5-3.904-0.44-6.107c0.036-1.261-0.334-5.457-0.334-5.457s3.512,3.277,4.708,4.799
		c0.859,1.094,0.709,0.746,1.677,1.734c0.488,0.504,1.824,2.104,1.824,2.104c0.132,0.131,0.262,0.244,0.396,0.337
		c0.133,0.098,0.285,0.16,0.455,0.198c0.17,0.033,0.383,0.02,0.636-0.049c0.256-0.064,1.54-0.602,1.954-0.785
		c0.444-0.191,0.795-0.375,1.057-0.552c0.261-0.176,0.428-0.365,0.503-0.568c0.078-0.204,0.05-0.432-0.079-0.687
		c-0.129-0.253-0.347-0.545-0.656-0.871c0,0-1.779-1.999-2.424-2.643c-1.399-1.396-1.697-1.395-3.027-3.007
		c-1.117-1.348-4.932-4.915-4.932-4.915s-0.484-5.235-0.587-6.931c-0.144-2.388-0.23-4.259-0.572-6.979
		C-14.602-8.276-14.542-11.347-14.542-11.347z"/>
	<path display="none" fill="#221E1B" d="M15.537,24.868c-0.817,0.514-1.266,0.188-2.279-0.712c-0.556-0.497-2.074-1.8-1.368-2.551
		c7.634-8.112,13.622-16.398,7.531-29.839c-5.892-12.992-17.1-14.721-26.446-15.263C-8.4-23.575-8.511-26.095-8.41-27.12
		c0.054-0.583,0.115-0.926,1.053-1.232c0.188-0.062,0.174-0.062,0.654-0.172c1.792-0.415,3.84-0.738,6.182-0.817
		c3.977-0.191,7.818,0.43,11.521,1.868c3.614,1.383,6.831,3.417,9.642,6.105c2.811,2.688,5.008,5.833,6.596,9.428
		c2.225,5.038,3.04,10.234,2.452,15.584c-0.584,5.357-2.483,10.054-5.695,14.093c-1.931,2.432-4.577,4.701-7.941,6.817
		C13.821,25.954,21.344,21.216,15.537,24.868z"/>
	<g display="none">
		<path display="inline" fill="#FFFFFF" d="M15.483,25.084c-0.825,0.516-1.276,0.186-2.292-0.718
			c-0.562-0.501-2.088-1.812-1.377-2.565c7.676-8.16,13.7-16.494,7.573-30.012C13.46-21.279,2.19-23.017-7.212-23.562
			c-1.383-0.081-1.494-2.614-1.393-3.646c0.056-0.586,0.117-0.928,1.059-1.236c0.191-0.065,0.174-0.065,0.66-0.177
			c1.802-0.415,3.863-0.741,6.217-0.821c4-0.191,7.865,0.434,11.588,1.881c3.634,1.389,6.87,3.436,9.696,6.139
			c2.828,2.703,5.039,5.868,6.633,9.483c2.237,5.067,3.059,10.294,2.468,15.675c-0.588,5.39-2.497,10.111-5.728,14.175
			c-1.941,2.446-4.604,4.729-7.988,6.855C13.756,26.175,21.321,21.408,15.483,25.084z"/>
		<path display="inline" fill-rule="evenodd" clip-rule="evenodd" fill="none" d="M15.483,25.084
			c-0.825,0.516-1.276,0.186-2.292-0.718c-0.562-0.501-2.088-1.812-1.377-2.565c7.676-8.16,13.7-16.494,7.573-30.012
			C13.46-21.279,2.19-23.017-7.212-23.562c-1.383-0.081-1.494-2.614-1.393-3.646c0.056-0.586,0.117-0.928,1.059-1.236
			c0.191-0.065,0.174-0.065,0.66-0.177c1.802-0.415,3.863-0.741,6.217-0.821c4-0.191,7.865,0.434,11.588,1.881
			c3.634,1.389,6.87,3.436,9.696,6.139c2.828,2.703,5.039,5.868,6.633,9.483c2.237,5.067,3.059,10.294,2.468,15.675
			c-0.588,5.39-2.497,10.111-5.728,14.175c-1.941,2.446-4.604,4.729-7.988,6.855C13.756,26.175,21.321,21.408,15.483,25.084z"/>
	</g>
	<g display="none">
		<path display="inline" fill="#1E1E21" d="M-25.655,0.078c0,14.066,11.4,25.468,25.468,25.468
			c14.063,0,25.463-11.401,25.463-25.468s-11.4-25.467-25.463-25.467C-14.254-25.389-25.655-13.988-25.655,0.078z"/>
		<path display="inline" fill="#FFFFFF" d="M-0.187-26.203c-14.492,0-26.283,11.788-26.283,26.281
			c0,14.491,11.791,26.28,26.283,26.28c14.49,0,26.279-11.789,26.279-26.28C26.092-14.415,14.303-26.203-0.187-26.203z
			 M-0.187,24.728c-13.594,0-24.652-11.057-24.652-24.649s11.058-24.652,24.652-24.652c13.59,0,24.649,11.06,24.649,24.652
			S13.403,24.728-0.187,24.728z"/>
	</g>
	<g>
		<path display="none" fill="#1E1E21" d="M16.203,24.455c-0.052,0.033-0.1,0.066-0.151,0.099
			C15.315,25.016,15.644,24.809,16.203,24.455z"/>
		<path display="none" fill="#1E1E21" d="M16.203,24.455c0.083-0.053,0.163-0.107,0.246-0.16
			C19.054,22.656,17.235,23.804,16.203,24.455z"/>
		<path fill="#1E1E21" d="M29.688,3.644c-0.584,5.357-2.483,10.054-5.695,14.093c-1.853,2.333-4.372,4.516-7.544,6.559
			c-0.259,0.162-0.56,0.352-0.912,0.573c-0.817,0.514-1.266,0.188-2.279-0.712c-0.556-0.497-2.074-1.8-1.368-2.551
			c0.104-0.111,0.208-0.223,0.312-0.334C19.489,17.018,24.39,9.118,24.39,0.069c0-13.552-10.984-24.536-24.534-24.536
			c-2.375,0-4.668,0.344-6.84,0.974c-0.014-0.001-0.027-0.002-0.041-0.003C-8.4-23.575-8.511-26.095-8.41-27.12
			c0.054-0.583,0.115-0.926,1.053-1.232c0.188-0.062,0.174-0.062,0.654-0.172c1.792-0.415,3.84-0.738,6.182-0.817
			c3.977-0.191,7.818,0.43,11.521,1.868c3.614,1.383,6.831,3.417,9.642,6.105c2.811,2.688,5.008,5.833,6.596,9.428
			C29.461-6.902,30.276-1.706,29.688,3.644z"/>
		<path display="none" fill="#1E1E21" d="M19.421-8.233c6.007,13.256,0.263,21.498-7.22,29.505
			c-3.627,2.117-7.843,3.336-12.345,3.336c-13.553,0-24.538-10.985-24.538-24.538c0-11.177,7.475-20.601,17.697-23.562
			C2.354-22.949,13.538-21.207,19.421-8.233z"/>
	</g>
	<path display="none" fill="#FFFFFF" d="M-30.949,28.338V16.675c0.867-0.19,2.323-1.339,2.371-1.715
		c0.041-0.38,0.834-5.037,2.328-7.71c1.488-2.685,0.093-6.118,0.058-6.57c-0.099-1.318,2.673-0.309,3.306,1.458
		c0.449,1.239-0.143,6.527,1.371,9.127c0.961,1.64,3.08,0.828,5.638,0.045c4.259-1.306,10.311-4.772,12.015-3.113
		c1.322,1.285,0.05,1.896-0.564,1.986c-3.411,0.481-5.565,1.894-7.6,2.493c-1.179,0.356-3.43,1.083-2.959,1.334
		c0.92,0.502,1.688,0.459,2.631,0.438c0,0-0.124,0.192,4.084-0.854c1.07-0.265,2.309-0.214,3.896-0.535
		c2.525-0.508,3.644,0.884,3.344,1.49c-0.226,0.444-2.031,0.706-3.719,0.815c-1.131,0.067-1.495,0.302-3.339,0.656
		c-1.408,0.273-4.236,0.714-4.134,1.063c0.102,0.348,1.679,0.898,2.813,1.331c1.682,0.656,2.443,0.735,3.399,0.908
		c2.093,0.388,3.173,0.565,4.271,0.611c1.099,0.053,1.411,0.875,0.825,1.21c-0.586,0.335-4.816,0.16-6.018,0.017
		c-1.201-0.145-2.584-0.984-4.09-1.024c-1.506-0.048-0.691,0.949,0.05,1.503c0.893,0.661,1.755,1.449,3.062,2.058
		c0.927,0.431,3.371,2.098,1.812,2.41c-0.596,0.122-2.389-0.712-4.054-1.721c-1.663-1.011-3.142-2.855-3.988-2.729
		c-0.844,0.126-1.943,0.66-4.526,0.758c-2.578,0.096,1.076,0.057-3.73,0.145c-4.81,0.092-6.377,3.459-7.817,5.335
		C-30.346,28.063-30.607,28.281-30.949,28.338z"/>
	<g display="none">
		<path display="inline" fill="#FFFFFF" d="M3.269-27.347c0,0,2.167,2.723,3.447,5.068c1.28,2.343,5.797,7.196,7.795,8.623
			c1.997,1.432,5.752,6.321,5.752,6.321c0.809,1.082,0.749,1.847,0.302,2.045c-0.446,0.202-2.093-1.359-4.354-3.865
			c-0.809-0.901-2.85-2.266-3.236-2.215c-0.261,0.033-0.31-0.274-0.529,0.144c-0.16,0.313,7.183,9.204,7.875,10.238
			c0.695,1.038,0.258,1.958-0.641,1.644c-0.894-0.31-3.213-4.016-4.565-5.156c-1.264-1.07-3.223-3.577-4.093-3.831
			c-0.872-0.253-0.646,0.563-0.398,1.047c0.248,0.481,3.656,6.492,4.351,7.373c1.577,2.011,1.729,2.2,2.28,3.115
			c0.679,1.125,0.309,1.736-0.353,1.813c-0.665,0.074-3.791-3.351-4.893-5.262c-1.102-1.91-3.071-5.303-3.663-5.267
			C7.948-5.482,7.824-5.098,8.229-3.987C8.63-2.878,11.188,5.837,11.48,6.9c0.296,1.061-0.952,0.719-0.952,0.719
			C9.76,7.451,6.563-0.883,5.967-2.498C5.448-3.902,5.075-4.084,2.743-6.825C1.568-8.212,1.103-5.971,1.371-4.603
			c0.271,1.37,0.675,6.597-0.618,6.987C-0.002,2.61-0.42,0.249-1.226-1.817c-0.729-1.864-1.542-10.066-1.752-11.3
			c-0.211-1.229-2.778-8.208-4.481-11.035L3.269-27.347z"/>
		<path display="inline" fill-rule="evenodd" clip-rule="evenodd" fill="none" d="M3.269-27.347c0,0,2.167,2.723,3.447,5.068
			c1.28,2.343,5.797,7.196,7.795,8.623c1.997,1.432,5.752,6.321,5.752,6.321c0.809,1.082,0.749,1.847,0.302,2.045
			c-0.446,0.202-2.093-1.359-4.354-3.865c-0.809-0.901-2.85-2.266-3.236-2.215c-0.261,0.033-0.31-0.274-0.529,0.144
			c-0.16,0.313,7.183,9.204,7.875,10.238c0.695,1.038,0.258,1.958-0.641,1.644c-0.894-0.31-3.213-4.016-4.565-5.156
			c-1.264-1.07-3.223-3.577-4.093-3.831c-0.872-0.253-0.646,0.563-0.398,1.047c0.248,0.481,3.656,6.492,4.351,7.373
			c1.577,2.011,1.729,2.2,2.28,3.115c0.679,1.125,0.309,1.736-0.353,1.813c-0.665,0.074-3.791-3.351-4.893-5.262
			c-1.102-1.91-3.071-5.303-3.663-5.267C7.948-5.482,7.824-5.098,8.229-3.987C8.63-2.878,11.188,5.837,11.48,6.9
			c0.296,1.061-0.952,0.719-0.952,0.719C9.76,7.451,6.563-0.883,5.967-2.498C5.448-3.902,5.075-4.084,2.743-6.825
			C1.568-8.212,1.103-5.971,1.371-4.603c0.271,1.37,0.675,6.597-0.618,6.987C-0.002,2.61-0.42,0.249-1.226-1.817
			c-0.729-1.864-1.542-10.066-1.752-11.3c-0.211-1.229-2.778-8.208-4.481-11.035L3.269-27.347z"/>
	</g>
</symbol>
<symbol  id="xD-23__x7C__110_x25__-_based_on_golde_2" viewBox="-35.033 -29.376 64.906 59.13">
	<path id="X_47_" fill="#23AC80" d="M-14.542-11.347c-0.034-0.415-0.107-0.748-0.214-0.994c-0.107-0.248-0.27-0.419-0.485-0.513
		c-0.211-0.087-0.481-0.101-0.809-0.04c-0.327,0.07-1.68,0.623-2.156,0.83c-0.458,0.2-0.812,0.377-1.064,0.534
		c-0.249,0.157-0.438,0.312-0.557,0.478c-0.122,0.162-0.194,0.332-0.215,0.511c-0.021,0.179-0.025,0.374-0.005,0.581
		c0,0,0.598,4.432,0.749,5.88c0.154,1.533,0.094,1.48,0.468,3.413c0.203,1.035,0.431,4.179,0.431,4.179s-4.203-3.656-5.71-5.547
		c-0.933-1.167-3.654-3.653-4.692-4.711c-0.305-0.305-1.157-1.511-1.157-1.511c-0.143-0.154-0.286-0.289-0.433-0.391
		c-0.144-0.107-0.319-0.171-0.521-0.191c-0.199-0.023-0.438,0.007-0.712,0.08c-0.283,0.076-1.425,0.555-1.853,0.741
		c-0.445,0.192-0.792,0.388-1.049,0.574c-0.255,0.19-0.414,0.392-0.474,0.603c-0.064,0.213-0.035,0.443,0.077,0.683
		c0.115,0.245,0.322,0.519,0.621,0.824c0,0,3.025,2.683,3.913,3.704c1.515,1.743,3.376,3.17,4.779,4.612
		c1.332,1.368,5.236,5.612,5.236,5.612s0.392,3.552,0.455,4.646c0.091,1.534-0.063,4.634,0.163,7.385
		c0.136,1.646,0.496,7.506,0.498,7.503c0.035,0.419,0.1,0.749,0.203,1.003c0.1,0.247,0.261,0.427,0.479,0.53
		c0.222,0.105,0.49,0.122,0.812,0.045c0.32-0.082,1.514-0.572,2.006-0.787c0.444-0.193,0.792-0.367,1.041-0.528
		c0.253-0.152,0.437-0.304,0.556-0.448c0.122-0.146,0.189-0.299,0.21-0.461c0.019-0.168,0.02-0.355-0.001-0.564
		c0,0-0.61-2.896-0.667-3.725c-0.108-1.643-0.5-3.904-0.44-6.107c0.036-1.261-0.334-5.457-0.334-5.457s3.512,3.277,4.708,4.799
		c0.859,1.094,0.709,0.746,1.677,1.734c0.488,0.504,1.824,2.104,1.824,2.104c0.132,0.131,0.262,0.244,0.396,0.337
		c0.133,0.098,0.285,0.16,0.455,0.198c0.17,0.033,0.383,0.02,0.636-0.049c0.256-0.064,1.54-0.602,1.954-0.785
		c0.444-0.191,0.795-0.375,1.057-0.552c0.261-0.176,0.428-0.365,0.503-0.568c0.078-0.204,0.05-0.432-0.079-0.687
		c-0.129-0.253-0.347-0.545-0.656-0.871c0,0-1.779-1.999-2.424-2.643c-1.399-1.396-1.697-1.395-3.027-3.007
		c-1.117-1.348-4.932-4.915-4.932-4.915s-0.484-5.235-0.587-6.931c-0.144-2.388-0.23-4.259-0.572-6.979
		C-14.602-8.276-14.542-11.347-14.542-11.347z"/>
	<path fill="#221E1B" d="M15.537,24.868c-0.817,0.514-1.266,0.188-2.279-0.712c-0.556-0.497-2.074-1.8-1.368-2.551
		c7.634-8.112,13.622-16.398,7.531-29.839c-5.892-12.992-17.1-14.721-26.446-15.263C-8.4-23.575-8.511-26.095-8.41-27.12
		c0.054-0.583,0.115-0.926,1.053-1.232c0.188-0.062,0.174-0.062,0.654-0.172c1.792-0.415,3.84-0.738,6.182-0.817
		c3.977-0.191,7.818,0.43,11.521,1.868c3.614,1.383,6.831,3.417,9.642,6.105c2.811,2.688,5.008,5.833,6.596,9.428
		c2.225,5.038,3.04,10.234,2.452,15.584c-0.584,5.357-2.483,10.054-5.695,14.093c-1.931,2.432-4.577,4.701-7.941,6.817
		C13.821,25.954,21.344,21.216,15.537,24.868z"/>
</symbol>
<symbol  id="xDiscovery_-_Logotipo_-_XD_based_on_logarithmic_spiral_1" viewBox="-122.08 -16.793 241.28 33.586">
	<g id="Discovery_2_">
		<path display="none" fill="#221E1B" d="M-93.945,13.658c-0.452,0.288-0.703,0.109-1.27-0.39c-0.311-0.274-1.16-0.993-0.77-1.413
			c4.22-4.54,7.525-9.17,4.091-16.627c-3.32-7.209-9.562-8.135-14.765-8.405c-0.765-0.04-0.835-1.441-0.783-2.013
			c0.03-0.323,0.063-0.515,0.582-0.688c0.105-0.035,0.098-0.036,0.363-0.099c0.997-0.235,2.135-0.422,3.438-0.475
			c2.212-0.118,4.351,0.216,6.415,1.003c2.017,0.757,3.812,1.878,5.384,3.365c1.574,1.486,2.808,3.228,3.702,5.224
			c1.253,2.795,1.725,5.683,1.417,8.663c-0.309,2.981-1.35,5.601-3.123,7.859c-1.066,1.358-2.531,2.631-4.396,3.817
			C-94.896,14.268-90.727,11.606-93.945,13.658z"/>
		<path fill="#221E1B" d="M-81.424-16.418h4.594v32.742h-4.594V-16.418z"/>
		<path fill="#221E1B" d="M-59.56,1.176l-3.509,2.118c-1.574,0.941-2.717,1.841-3.428,2.696s-1.066,1.774-1.066,2.756
			c0,1.104,0.482,2.011,1.447,2.719c0.965,0.709,2.197,1.062,3.698,1.062c2.664,0,5.152-1.135,7.465-3.404v5.32
			c-2.235,1.535-4.694,2.303-7.373,2.303c-2.802,0-5.08-0.805-6.833-2.414c-1.754-1.609-2.631-3.703-2.631-6.281
			c0-1.719,0.464-3.238,1.391-4.559c0.926-1.32,2.484-2.662,4.674-4.027l3.491-2.164c2.817-1.788,4.226-3.679,4.226-5.672
			c0-1.23-0.479-2.254-1.436-3.071s-2.154-1.226-3.594-1.226c-3.262,0-6.133,1.604-8.613,4.811v-5.953
			c2.604-1.988,5.489-2.982,8.659-2.982c2.756,0,4.995,0.82,6.718,2.461s2.584,3.773,2.584,6.398
			C-53.689-4.246-55.646-1.21-59.56,1.176z"/>
		<path fill="#221E1B" d="M-42.009-9.012c-2.39,2.312-3.583,5.266-3.583,8.859c0,3.562,1.213,6.527,3.641,8.895
			c2.426,2.367,5.478,3.551,9.152,3.551c3.584,0,7.25-1.094,11.002-3.281v5.039c-4.119,1.797-7.863,2.695-11.231,2.695
			c-4.885,0-8.992-1.625-12.323-4.875c-3.33-3.25-4.995-7.258-4.995-12.023c0-3,0.728-5.789,2.183-8.367
			c1.454-2.578,3.43-4.602,5.926-6.07c2.495-1.469,5.535-2.203,9.118-2.203c4.41,0,8.3,0.938,11.668,2.812v5.156
			c-3.706-2.438-7.503-3.656-11.393-3.656C-36.565-12.48-39.62-11.324-42.009-9.012z"/>
		<path fill="#221E1B" d="M-0.527,16.793c-4.957,0-9.059-1.602-12.303-4.805s-4.865-7.25-4.865-12.141
			c0-4.766,1.609-8.73,4.831-11.895s7.249-4.746,12.085-4.746c5.064,0,9.262,1.582,12.59,4.746c3.329,3.164,4.993,7.16,4.993,11.988
			s-1.649,8.844-4.947,12.047S4.431,16.793-0.527,16.793z M8.48-8.895C6.086-11.285,3.099-12.48-0.48-12.48
			c-3.564,0-6.533,1.172-8.904,3.516s-3.557,5.281-3.557,8.812c0,3.641,1.182,6.633,3.545,8.977
			c2.364,2.344,5.382,3.516,9.053,3.516c3.488,0,6.43-1.184,8.824-3.551s3.592-5.285,3.592-8.754
			C12.072-3.527,10.875-6.504,8.48-8.895z"/>
		<path fill="#221E1B" d="M30.838-6.668l-9.651,22.992h-4.624l13.828-32.883h1.041l13.566,32.883h-4.575L30.838-6.668z"/>
		<path fill="#221E1B" d="M52.636-2.027h13.138v4.195H52.636v9.984h13.598v4.172H48.042v-32.695h18.627v4.172H52.636V-2.027z"/>
		<path fill="#221E1B" d="M91.579-9.879c-1.776,2.953-3.154,5.023-4.134,6.211c-0.98,1.188-1.983,2.125-3.01,2.812
			c1.746,0.688,3.086,1.727,4.02,3.117s1.401,3.039,1.401,4.945c0,2.797-0.953,5.016-2.859,6.656s-4.483,2.461-7.729,2.461h-8.039
			v-32.742h4.594v14.25h1.196c1.502,0,2.571-0.176,3.208-0.526c0.636-0.352,1.349-0.925,2.139-1.72
			c0.789-0.796,1.658-1.866,2.606-3.21l1.536-2.557l1.423-2.392l0.895-1.29c0.138-0.188,0.229-0.32,0.275-0.398l1.399-2.157h5.466
			l-1.699,2.344C93.593-13.137,92.697-11.738,91.579-9.879z M82.357,2.613c-0.865-0.406-2.462-0.609-4.789-0.609h-1.746V12.34h1.379
			c2.251,0,3.862-0.172,4.834-0.516c0.973-0.344,1.727-0.934,2.263-1.77s0.805-1.77,0.805-2.801c0-1.047-0.241-1.98-0.724-2.801
			S83.223,3.02,82.357,2.613z"/>
		<path fill="#221E1B" d="M113.623,16.324L104.92,5.036l-8.587,11.288h-5.546L102.64,0.902v-17.32h4.708v17.32l11.852,15.422
			H113.623z"/>
		<path fill="#221E1B" d="M-81.424-16.418h4.594v32.742h-4.594V-16.418z"/>
		<path fill="#221E1B" d="M-59.56,1.176l-3.509,2.118c-1.574,0.941-2.717,1.841-3.428,2.696s-1.066,1.774-1.066,2.756
			c0,1.104,0.482,2.011,1.447,2.719c0.965,0.709,2.197,1.062,3.698,1.062c2.664,0,5.152-1.135,7.465-3.404v5.32
			c-2.235,1.535-4.694,2.303-7.373,2.303c-2.802,0-5.08-0.805-6.833-2.414c-1.754-1.609-2.631-3.703-2.631-6.281
			c0-1.719,0.464-3.238,1.391-4.559c0.926-1.32,2.484-2.662,4.674-4.027l3.491-2.164c2.817-1.788,4.226-3.679,4.226-5.672
			c0-1.23-0.479-2.254-1.436-3.071s-2.154-1.226-3.594-1.226c-3.262,0-6.133,1.604-8.613,4.811v-5.953
			c2.604-1.988,5.489-2.982,8.659-2.982c2.756,0,4.995,0.82,6.718,2.461s2.584,3.773,2.584,6.398
			C-53.689-4.246-55.646-1.21-59.56,1.176z"/>
		<path fill="#221E1B" d="M-42.009-9.012c-2.39,2.312-3.583,5.266-3.583,8.859c0,3.562,1.213,6.527,3.641,8.895
			c2.426,2.367,5.478,3.551,9.152,3.551c3.584,0,7.25-1.094,11.002-3.281v5.039c-4.119,1.797-7.863,2.695-11.231,2.695
			c-4.885,0-8.992-1.625-12.323-4.875c-3.33-3.25-4.995-7.258-4.995-12.023c0-3,0.728-5.789,2.183-8.367
			c1.454-2.578,3.43-4.602,5.926-6.07c2.495-1.469,5.535-2.203,9.118-2.203c4.41,0,8.3,0.938,11.668,2.812v5.156
			c-3.706-2.438-7.503-3.656-11.393-3.656C-36.565-12.48-39.62-11.324-42.009-9.012z"/>
		<path fill="#221E1B" d="M-0.527,16.793c-4.957,0-9.059-1.602-12.303-4.805s-4.865-7.25-4.865-12.141
			c0-4.766,1.609-8.73,4.831-11.895s7.249-4.746,12.085-4.746c5.064,0,9.262,1.582,12.59,4.746c3.329,3.164,4.993,7.16,4.993,11.988
			s-1.649,8.844-4.947,12.047S4.431,16.793-0.527,16.793z M8.48-8.895C6.086-11.285,3.099-12.48-0.48-12.48
			c-3.564,0-6.533,1.172-8.904,3.516s-3.557,5.281-3.557,8.812c0,3.641,1.182,6.633,3.545,8.977
			c2.364,2.344,5.382,3.516,9.053,3.516c3.488,0,6.43-1.184,8.824-3.551s3.592-5.285,3.592-8.754
			C12.072-3.527,10.875-6.504,8.48-8.895z"/>
		<path fill="#221E1B" d="M30.838-6.668l-9.651,22.992h-4.624l13.828-32.883h1.041l13.566,32.883h-4.575L30.838-6.668z"/>
		<path fill="#221E1B" d="M52.636-2.027h13.138v4.195H52.636v9.984h13.598v4.172H48.042v-32.695h18.627v4.172H52.636V-2.027z"/>
		<path fill="#221E1B" d="M91.579-9.879c-1.776,2.953-3.154,5.023-4.134,6.211c-0.98,1.188-1.983,2.125-3.01,2.812
			c1.746,0.688,3.086,1.727,4.02,3.117s1.401,3.039,1.401,4.945c0,2.797-0.953,5.016-2.859,6.656s-4.483,2.461-7.729,2.461h-8.039
			v-32.742h4.594v14.25h1.196c1.502,0,2.571-0.176,3.208-0.526c0.636-0.352,1.349-0.925,2.139-1.72
			c0.789-0.796,1.658-1.866,2.606-3.21l1.536-2.557l1.423-2.392l0.895-1.29c0.138-0.188,0.229-0.32,0.275-0.398l1.399-2.157h5.466
			l-1.699,2.344C93.593-13.137,92.697-11.738,91.579-9.879z M82.357,2.613c-0.865-0.406-2.462-0.609-4.789-0.609h-1.746V12.34h1.379
			c2.251,0,3.862-0.172,4.834-0.516c0.973-0.344,1.727-0.934,2.263-1.77s0.805-1.77,0.805-2.801c0-1.047-0.241-1.98-0.724-2.801
			S83.223,3.02,82.357,2.613z"/>
		<path fill="#221E1B" d="M113.623,16.324L104.92,5.036l-8.587,11.288h-5.546L102.64,0.902v-17.32h4.708v17.32l11.852,15.422
			H113.623z"/>
	</g>
	<path id="X_51_" display="none" fill="#23AC80" d="M-108.777-6.082c-0.02-0.211-0.058-0.382-0.113-0.506
		c-0.055-0.126-0.137-0.213-0.247-0.26c-0.108-0.044-0.246-0.051-0.413-0.018c-0.166,0.036-0.854,0.321-1.094,0.428
		c-0.234,0.104-0.414,0.196-0.541,0.276c-0.128,0.08-0.223,0.161-0.283,0.244c-0.062,0.083-0.098,0.17-0.107,0.262
		c-0.01,0.091-0.012,0.189-0.002,0.296c0,0,0.319,2.256,0.399,2.992c0.085,0.78,0.054,0.754,0.25,1.737
		c0.105,0.526,0.231,2.126,0.231,2.126s-2.151-1.85-2.926-2.808c-0.478-0.591-1.871-1.85-2.402-2.385
		c-0.156-0.155-0.594-0.767-0.594-0.767c-0.072-0.077-0.146-0.146-0.221-0.197c-0.075-0.055-0.164-0.086-0.268-0.096
		c-0.101-0.01-0.223,0.005-0.363,0.043c-0.142,0.04-0.722,0.286-0.939,0.383c-0.226,0.1-0.402,0.199-0.533,0.296
		c-0.129,0.098-0.209,0.2-0.239,0.308c-0.032,0.108-0.017,0.226,0.042,0.35c0.061,0.123,0.166,0.261,0.318,0.415
		c0,0,1.549,1.358,2.004,1.875c0.777,0.884,1.729,1.604,2.447,2.335c0.684,0.693,2.686,2.843,2.686,2.843s0.209,1.808,0.245,2.364
		c0.051,0.781-0.019,2.36,0.105,3.76c0.073,0.839,0.275,3.821,0.275,3.82c0.02,0.213,0.055,0.383,0.107,0.51
		c0.052,0.127,0.134,0.217,0.245,0.271c0.113,0.052,0.25,0.06,0.414,0.019c0.162-0.042,0.77-0.295,1.019-0.406
		c0.226-0.1,0.402-0.189,0.529-0.271c0.128-0.08,0.222-0.157,0.282-0.23c0.061-0.074,0.094-0.154,0.104-0.236
		c0.01-0.084,0.01-0.18-0.001-0.285c0,0-0.32-1.475-0.351-1.896c-0.061-0.836-0.267-1.986-0.242-3.109
		c0.014-0.642-0.188-2.777-0.188-2.777s1.798,1.658,2.411,2.429c0.442,0.556,0.363,0.38,0.86,0.88
		c0.25,0.253,0.936,1.064,0.936,1.064c0.066,0.066,0.133,0.123,0.202,0.171c0.067,0.049,0.146,0.082,0.231,0.099
		c0.087,0.018,0.195,0.009,0.324-0.025c0.13-0.033,0.783-0.312,0.992-0.405c0.227-0.1,0.404-0.195,0.537-0.286
		c0.132-0.09,0.217-0.188,0.255-0.29c0.038-0.104,0.023-0.22-0.043-0.349c-0.065-0.129-0.179-0.277-0.337-0.443
		c0,0-0.912-1.012-1.242-1.338c-0.717-0.706-0.869-0.705-1.551-1.521c-0.572-0.684-2.525-2.488-2.525-2.488s-0.264-2.666-0.32-3.529
		c-0.081-1.215-0.131-2.168-0.314-3.552C-108.798-4.519-108.777-6.082-108.777-6.082z"/>
	
		<use xlink:href="#xD-23__x7C__110_x25__-_based_on_golde_2"  width="64.906" height="59.13" x="-35.033" y="-29.376" transform="matrix(0.5563 0 0 0.5563 -102.5918 -0.1284)" display="none" overflow="visible"/>
	
		<use xlink:href="#xD-23__x7C__110_x25__-_based_on_golde_1"  width="64.933" height="59.23" id="XMLID_21_" x="-35.033" y="-29.476" transform="matrix(0.5561 0 0 0.5561 -102.5918 -0.1284)" overflow="visible"/>
</symbol>
<use xlink:href="#xDiscovery_-_Logotipo_-_XD_based_on_logarithmic_spiral_1"  width="241.28" height="33.586" id="XMLID_19_" x="-122.08" y="-16.793" transform="matrix(1.1013 0 0 -1.1013 134.4473 18.4941)" overflow="visible"/>
</svg>
