<?xml version="1.0" encoding="utf-8"?>
<!-- Generator: Adobe Illustrator 15.1.0, SVG Export Plug-In . SVG Version: 6.00 Build 0)  -->
<!DOCTYPE svg PUBLIC "-//W3C//DTD SVG 1.1//EN" "http://www.w3.org/Graphics/SVG/1.1/DTD/svg11.dtd">
<svg version="1.1" id="Layer_1" xmlns="http://www.w3.org/2000/svg" xmlns:xlink="http://www.w3.org/1999/xlink" x="0px" y="0px"
	 width="181px" height="37px" viewBox="0 0 181 37" enable-background="new 0 0 181 37" xml:space="preserve">
<symbol  id="xD-23__x7C__110_x25__-_based_on_golde_1" viewBox="-35.033 -29.476 64.933 59.23">
	<path id="X_8_" fill="#25AD81" d="M-14.542-11.347c-0.034-0.415-0.107-0.748-0.214-0.994c-0.107-0.248-0.27-0.419-0.485-0.513
		c-0.211-0.087-0.481-0.101-0.809-0.04c-0.327,0.07-1.68,0.623-2.156,0.83c-0.458,0.2-0.812,0.377-1.064,0.534
		c-0.249,0.157-0.438,0.312-0.557,0.478c-0.122,0.162-0.194,0.332-0.215,0.511c-0.021,0.179-0.025,0.374-0.005,0.581
		c0,0,0.598,4.432,0.749,5.88c0.154,1.533,0.094,1.48,0.468,3.413c0.203,1.035,0.431,4.179,0.431,4.179s-4.203-3.656-5.71-5.547
		c-0.933-1.167-3.654-3.653-4.692-4.711c-0.305-0.305-1.157-1.511-1.157-1.511c-0.143-0.154-0.286-0.289-0.433-0.391
		c-0.144-0.107-0.319-0.171-0.521-0.191c-0.199-0.023-0.438,0.007-0.712,0.08c-0.283,0.076-1.425,0.555-1.853,0.741
		c-0.445,0.192-0.792,0.388-1.049,0.574c-0.255,0.19-0.414,0.392-0.474,0.603c-0.064,0.213-0.035,0.443,0.077,0.683
		c0.115,0.245,0.322,0.519,0.621,0.824c0,0,3.025,2.683,3.913,3.704c1.515,1.743,3.376,3.17,4.779,4.612
		c1.332,1.368,5.236,5.612,5.236,5.612s0.392,3.552,0.455,4.646c0.091,1.534-0.063,4.634,0.163,7.385
		c0.136,1.646,0.496,7.506,0.498,7.503c0.035,0.419,0.1,0.749,0.203,1.003c0.1,0.247,0.261,0.427,0.479,0.53
		c0.222,0.105,0.49,0.122,0.812,0.045c0.32-0.082,1.514-0.572,2.006-0.787c0.444-0.193,0.792-0.367,1.041-0.528
		c0.253-0.152,0.437-0.304,0.556-0.448c0.122-0.146,0.189-0.299,0.21-0.461c0.019-0.168,0.02-0.355-0.001-0.564
		c0,0-0.61-2.896-0.667-3.725c-0.108-1.643-0.5-3.904-0.44-6.107c0.036-1.261-0.334-5.457-0.334-5.457s3.512,3.277,4.708,4.799
		c0.859,1.094,0.709,0.746,1.677,1.734c0.488,0.504,1.824,2.104,1.824,2.104c0.132,0.131,0.262,0.244,0.396,0.337
		c0.133,0.098,0.285,0.16,0.455,0.198c0.17,0.033,0.383,0.02,0.636-0.049c0.256-0.064,1.54-0.602,1.954-0.785
		c0.444-0.191,0.795-0.375,1.057-0.552c0.261-0.176,0.428-0.365,0.503-0.568c0.078-0.204,0.05-0.432-0.079-0.687
		c-0.129-0.253-0.347-0.545-0.656-0.871c0,0-1.779-1.999-2.424-2.643c-1.399-1.396-1.697-1.395-3.027-3.007
		c-1.117-1.348-4.932-4.915-4.932-4.915s-0.484-5.235-0.587-6.931c-0.144-2.388-0.23-4.259-0.572-6.979
		C-14.602-8.276-14.542-11.347-14.542-11.347z"/>
	<path display="none" fill="#231F1C" d="M15.537,24.868c-0.817,0.514-1.266,0.188-2.279-0.712c-0.556-0.497-2.074-1.8-1.368-2.551
		c7.634-8.112,13.622-16.398,7.531-29.839c-5.892-12.992-17.1-14.721-26.446-15.263C-8.4-23.575-8.511-26.095-8.41-27.12
		c0.054-0.583,0.115-0.926,1.053-1.232c0.188-0.062,0.174-0.062,0.654-0.172c1.792-0.415,3.84-0.738,6.182-0.817
		c3.977-0.191,7.818,0.43,11.521,1.868c3.614,1.383,6.831,3.417,9.642,6.105c2.811,2.688,5.008,5.833,6.596,9.428
		c2.225,5.038,3.04,10.234,2.452,15.584c-0.584,5.357-2.483,10.054-5.695,14.093c-1.931,2.432-4.577,4.701-7.941,6.817
		C13.821,25.954,21.344,21.216,15.537,24.868z"/>
	<g display="none">
		<path display="inline" fill="#FFFFFF" d="M15.483,25.084c-0.825,0.516-1.276,0.186-2.292-0.718
			c-0.562-0.501-2.088-1.812-1.377-2.565c7.676-8.16,13.7-16.494,7.573-30.012C13.46-21.279,2.19-23.017-7.212-23.562
			c-1.383-0.081-1.494-2.614-1.393-3.646c0.056-0.586,0.117-0.928,1.059-1.236c0.191-0.065,0.174-0.065,0.66-0.177
			c1.802-0.415,3.863-0.741,6.217-0.821c4-0.191,7.865,0.434,11.588,1.881c3.634,1.389,6.87,3.436,9.696,6.139
			c2.828,2.703,5.039,5.868,6.633,9.483c2.237,5.067,3.059,10.294,2.468,15.675c-0.588,5.39-2.497,10.111-5.728,14.175
			c-1.941,2.446-4.604,4.729-7.988,6.855C13.756,26.175,21.321,21.408,15.483,25.084z"/>
		<path display="inline" fill-rule="evenodd" clip-rule="evenodd" fill="none" d="M15.483,25.084
			c-0.825,0.516-1.276,0.186-2.292-0.718c-0.562-0.501-2.088-1.812-1.377-2.565c7.676-8.16,13.7-16.494,7.573-30.012
			C13.46-21.279,2.19-23.017-7.212-23.562c-1.383-0.081-1.494-2.614-1.393-3.646c0.056-0.586,0.117-0.928,1.059-1.236
			c0.191-0.065,0.174-0.065,0.66-0.177c1.802-0.415,3.863-0.741,6.217-0.821c4-0.191,7.865,0.434,11.588,1.881
			c3.634,1.389,6.87,3.436,9.696,6.139c2.828,2.703,5.039,5.868,6.633,9.483c2.237,5.067,3.059,10.294,2.468,15.675
			c-0.588,5.39-2.497,10.111-5.728,14.175c-1.941,2.446-4.604,4.729-7.988,6.855C13.756,26.175,21.321,21.408,15.483,25.084z"/>
	</g>
	<g display="none">
		<path display="inline" fill="#1E1F21" d="M-25.655,0.078c0,14.066,11.4,25.468,25.468,25.468
			c14.063,0,25.463-11.401,25.463-25.468s-11.4-25.467-25.463-25.467C-14.254-25.389-25.655-13.988-25.655,0.078z"/>
		<path display="inline" fill="#FFFFFF" d="M-0.187-26.203c-14.492,0-26.283,11.788-26.283,26.281
			c0,14.491,11.791,26.28,26.283,26.28c14.49,0,26.279-11.789,26.279-26.28C26.092-14.415,14.303-26.203-0.187-26.203z
			 M-0.187,24.728c-13.594,0-24.652-11.057-24.652-24.649s11.058-24.652,24.652-24.652c13.59,0,24.649,11.06,24.649,24.652
			S13.403,24.728-0.187,24.728z"/>
	</g>
	<g>
		<path display="none" fill="#1E1F21" d="M16.203,24.455c-0.052,0.033-0.1,0.066-0.151,0.099
			C15.315,25.016,15.644,24.809,16.203,24.455z"/>
		<path display="none" fill="#1E1F21" d="M16.203,24.455c0.083-0.053,0.163-0.107,0.246-0.16
			C19.054,22.656,17.235,23.804,16.203,24.455z"/>
		<path fill="#1E1F21" d="M29.688,3.644c-0.584,5.357-2.483,10.054-5.695,14.093c-1.853,2.333-4.372,4.516-7.544,6.559
			c-0.259,0.162-0.56,0.352-0.912,0.573c-0.817,0.514-1.266,0.188-2.279-0.712c-0.556-0.497-2.074-1.8-1.368-2.551
			c0.104-0.111,0.208-0.223,0.312-0.334C19.489,17.018,24.39,9.118,24.39,0.069c0-13.552-10.984-24.536-24.534-24.536
			c-2.375,0-4.668,0.344-6.84,0.974c-0.014-0.001-0.027-0.002-0.041-0.003C-8.4-23.575-8.511-26.095-8.41-27.12
			c0.054-0.583,0.115-0.926,1.053-1.232c0.188-0.062,0.174-0.062,0.654-0.172c1.792-0.415,3.84-0.738,6.182-0.817
			c3.977-0.191,7.818,0.43,11.521,1.868c3.614,1.383,6.831,3.417,9.642,6.105c2.811,2.688,5.008,5.833,6.596,9.428
			C29.461-6.902,30.276-1.706,29.688,3.644z"/>
		<path display="none" fill="#1E1F21" d="M19.421-8.233c6.007,13.256,0.263,21.498-7.22,29.505
			c-3.627,2.117-7.843,3.336-12.345,3.336c-13.553,0-24.538-10.985-24.538-24.538c0-11.177,7.475-20.601,17.697-23.562
			C2.354-22.949,13.538-21.207,19.421-8.233z"/>
	</g>
	<path display="none" fill="#FFFFFF" d="M-30.949,28.338V16.675c0.867-0.19,2.323-1.339,2.371-1.715
		c0.041-0.38,0.834-5.037,2.328-7.71c1.488-2.685,0.093-6.118,0.058-6.57c-0.099-1.318,2.673-0.309,3.306,1.458
		c0.449,1.239-0.143,6.527,1.371,9.127c0.961,1.64,3.08,0.828,5.638,0.045c4.259-1.306,10.311-4.772,12.015-3.113
		c1.322,1.285,0.05,1.896-0.564,1.986c-3.411,0.481-5.565,1.894-7.6,2.493c-1.179,0.356-3.43,1.083-2.959,1.334
		c0.92,0.502,1.688,0.459,2.631,0.438c0,0-0.124,0.192,4.084-0.854c1.07-0.265,2.309-0.214,3.896-0.535
		c2.525-0.508,3.644,0.884,3.344,1.49c-0.226,0.444-2.031,0.706-3.719,0.815c-1.131,0.067-1.495,0.302-3.339,0.656
		c-1.408,0.273-4.236,0.714-4.134,1.063c0.102,0.348,1.679,0.898,2.813,1.331c1.682,0.656,2.443,0.735,3.399,0.908
		c2.093,0.388,3.173,0.565,4.271,0.611c1.099,0.053,1.411,0.875,0.825,1.21c-0.586,0.335-4.816,0.16-6.018,0.017
		c-1.201-0.145-2.584-0.984-4.09-1.024c-1.506-0.048-0.691,0.949,0.05,1.503c0.893,0.661,1.755,1.449,3.062,2.058
		c0.927,0.431,3.371,2.098,1.812,2.41c-0.596,0.122-2.389-0.712-4.054-1.721c-1.663-1.011-3.142-2.855-3.988-2.729
		c-0.844,0.126-1.943,0.66-4.526,0.758c-2.578,0.096,1.076,0.057-3.73,0.145c-4.81,0.092-6.377,3.459-7.817,5.335
		C-30.346,28.063-30.607,28.281-30.949,28.338z"/>
	<g display="none">
		<path display="inline" fill="#FFFFFF" d="M3.269-27.347c0,0,2.167,2.723,3.447,5.068c1.28,2.343,5.797,7.196,7.795,8.623
			c1.997,1.432,5.752,6.321,5.752,6.321c0.809,1.082,0.749,1.847,0.302,2.045c-0.446,0.202-2.093-1.359-4.354-3.865
			c-0.809-0.901-2.85-2.266-3.236-2.215c-0.261,0.033-0.31-0.274-0.529,0.144c-0.16,0.313,7.183,9.204,7.875,10.238
			c0.695,1.038,0.258,1.958-0.641,1.644c-0.894-0.31-3.213-4.016-4.565-5.156c-1.264-1.07-3.223-3.577-4.093-3.831
			c-0.872-0.253-0.646,0.563-0.398,1.047c0.248,0.481,3.656,6.492,4.351,7.373c1.577,2.011,1.729,2.2,2.28,3.115
			c0.679,1.125,0.309,1.736-0.353,1.813c-0.665,0.074-3.791-3.351-4.893-5.262c-1.102-1.91-3.071-5.303-3.663-5.267
			C7.948-5.482,7.824-5.098,8.229-3.987C8.63-2.878,11.188,5.837,11.48,6.9c0.296,1.061-0.952,0.719-0.952,0.719
			C9.76,7.451,6.563-0.883,5.967-2.498C5.448-3.902,5.075-4.084,2.743-6.825C1.568-8.212,1.103-5.971,1.371-4.603
			c0.271,1.37,0.675,6.597-0.618,6.987C-0.002,2.61-0.42,0.249-1.226-1.817c-0.729-1.864-1.542-10.066-1.752-11.3
			c-0.211-1.229-2.778-8.208-4.481-11.035L3.269-27.347z"/>
		<path display="inline" fill-rule="evenodd" clip-rule="evenodd" fill="none" d="M3.269-27.347c0,0,2.167,2.723,3.447,5.068
			c1.28,2.343,5.797,7.196,7.795,8.623c1.997,1.432,5.752,6.321,5.752,6.321c0.809,1.082,0.749,1.847,0.302,2.045
			c-0.446,0.202-2.093-1.359-4.354-3.865c-0.809-0.901-2.85-2.266-3.236-2.215c-0.261,0.033-0.31-0.274-0.529,0.144
			c-0.16,0.313,7.183,9.204,7.875,10.238c0.695,1.038,0.258,1.958-0.641,1.644c-0.894-0.31-3.213-4.016-4.565-5.156
			c-1.264-1.07-3.223-3.577-4.093-3.831c-0.872-0.253-0.646,0.563-0.398,1.047c0.248,0.481,3.656,6.492,4.351,7.373
			c1.577,2.011,1.729,2.2,2.28,3.115c0.679,1.125,0.309,1.736-0.353,1.813c-0.665,0.074-3.791-3.351-4.893-5.262
			c-1.102-1.91-3.071-5.303-3.663-5.267C7.948-5.482,7.824-5.098,8.229-3.987C8.63-2.878,11.188,5.837,11.48,6.9
			c0.296,1.061-0.952,0.719-0.952,0.719C9.76,7.451,6.563-0.883,5.967-2.498C5.448-3.902,5.075-4.084,2.743-6.825
			C1.568-8.212,1.103-5.971,1.371-4.603c0.271,1.37,0.675,6.597-0.618,6.987C-0.002,2.61-0.42,0.249-1.226-1.817
			c-0.729-1.864-1.542-10.066-1.752-11.3c-0.211-1.229-2.778-8.208-4.481-11.035L3.269-27.347z"/>
	</g>
</symbol>
<symbol  id="xD-23__x7C__110_x25__-_based_on_golde_2" viewBox="-35.033 -29.376 64.906 59.13">
	<path id="X_47_" fill="#25AD81" d="M-14.542-11.347c-0.034-0.415-0.107-0.748-0.214-0.994c-0.107-0.248-0.27-0.419-0.485-0.513
		c-0.211-0.087-0.481-0.101-0.809-0.04c-0.327,0.07-1.68,0.623-2.156,0.83c-0.458,0.2-0.812,0.377-1.064,0.534
		c-0.249,0.157-0.438,0.312-0.557,0.478c-0.122,0.162-0.194,0.332-0.215,0.511c-0.021,0.179-0.025,0.374-0.005,0.581
		c0,0,0.598,4.432,0.749,5.88c0.154,1.533,0.094,1.48,0.468,3.413c0.203,1.035,0.431,4.179,0.431,4.179s-4.203-3.656-5.71-5.547
		c-0.933-1.167-3.654-3.653-4.692-4.711c-0.305-0.305-1.157-1.511-1.157-1.511c-0.143-0.154-0.286-0.289-0.433-0.391
		c-0.144-0.107-0.319-0.171-0.521-0.191c-0.199-0.023-0.438,0.007-0.712,0.08c-0.283,0.076-1.425,0.555-1.853,0.741
		c-0.445,0.192-0.792,0.388-1.049,0.574c-0.255,0.19-0.414,0.392-0.474,0.603c-0.064,0.213-0.035,0.443,0.077,0.683
		c0.115,0.245,0.322,0.519,0.621,0.824c0,0,3.025,2.683,3.913,3.704c1.515,1.743,3.376,3.17,4.779,4.612
		c1.332,1.368,5.236,5.612,5.236,5.612s0.392,3.552,0.455,4.646c0.091,1.534-0.063,4.634,0.163,7.385
		c0.136,1.646,0.496,7.506,0.498,7.503c0.035,0.419,0.1,0.749,0.203,1.003c0.1,0.247,0.261,0.427,0.479,0.53
		c0.222,0.105,0.49,0.122,0.812,0.045c0.32-0.082,1.514-0.572,2.006-0.787c0.444-0.193,0.792-0.367,1.041-0.528
		c0.253-0.152,0.437-0.304,0.556-0.448c0.122-0.146,0.189-0.299,0.21-0.461c0.019-0.168,0.02-0.355-0.001-0.564
		c0,0-0.61-2.896-0.667-3.725c-0.108-1.643-0.5-3.904-0.44-6.107c0.036-1.261-0.334-5.457-0.334-5.457s3.512,3.277,4.708,4.799
		c0.859,1.094,0.709,0.746,1.677,1.734c0.488,0.504,1.824,2.104,1.824,2.104c0.132,0.131,0.262,0.244,0.396,0.337
		c0.133,0.098,0.285,0.16,0.455,0.198c0.17,0.033,0.383,0.02,0.636-0.049c0.256-0.064,1.54-0.602,1.954-0.785
		c0.444-0.191,0.795-0.375,1.057-0.552c0.261-0.176,0.428-0.365,0.503-0.568c0.078-0.204,0.05-0.432-0.079-0.687
		c-0.129-0.253-0.347-0.545-0.656-0.871c0,0-1.779-1.999-2.424-2.643c-1.399-1.396-1.697-1.395-3.027-3.007
		c-1.117-1.348-4.932-4.915-4.932-4.915s-0.484-5.235-0.587-6.931c-0.144-2.388-0.23-4.259-0.572-6.979
		C-14.602-8.276-14.542-11.347-14.542-11.347z"/>
	<path fill="#231F1C" d="M15.537,24.868c-0.817,0.514-1.266,0.188-2.279-0.712c-0.556-0.497-2.074-1.8-1.368-2.551
		c7.634-8.112,13.622-16.398,7.531-29.839c-5.892-12.992-17.1-14.721-26.446-15.263C-8.4-23.575-8.511-26.095-8.41-27.12
		c0.054-0.583,0.115-0.926,1.053-1.232c0.188-0.062,0.174-0.062,0.654-0.172c1.792-0.415,3.84-0.738,6.182-0.817
		c3.977-0.191,7.818,0.43,11.521,1.868c3.614,1.383,6.831,3.417,9.642,6.105c2.811,2.688,5.008,5.833,6.596,9.428
		c2.225,5.038,3.04,10.234,2.452,15.584c-0.584,5.357-2.483,10.054-5.695,14.093c-1.931,2.432-4.577,4.701-7.941,6.817
		C13.821,25.954,21.344,21.216,15.537,24.868z"/>
</symbol>
<symbol  id="xDiscovery_-_Logotipo_-_XD_based_on_logarithmic_spiral_1" viewBox="-122.08 -16.521 161.156 32.944">
	<g id="Discovery_6_" display="none">
		<path fill="#231F1C" d="M-93.945,13.658c-0.452,0.288-0.703,0.109-1.27-0.39c-0.311-0.274-1.16-0.993-0.77-1.413
			c4.22-4.54,7.525-9.17,4.091-16.627c-3.32-7.209-9.562-8.135-14.765-8.405c-0.765-0.04-0.835-1.441-0.783-2.013
			c0.03-0.323,0.063-0.515,0.582-0.688c0.105-0.035,0.098-0.036,0.363-0.099c0.997-0.235,2.135-0.422,3.438-0.475
			c2.212-0.118,4.351,0.216,6.415,1.003c2.017,0.757,3.812,1.878,5.384,3.365c1.574,1.486,2.808,3.228,3.702,5.224
			c1.253,2.795,1.725,5.683,1.417,8.663c-0.309,2.981-1.35,5.601-3.123,7.859c-1.066,1.358-2.531,2.631-4.396,3.817
			C-94.896,14.268-90.727,11.606-93.945,13.658z"/>
		<path display="inline" fill="#231F1C" d="M-83.656-4.056h1.947V9.82h-1.947V-4.056z"/>
		<path display="inline" fill="#231F1C" d="M-74.391,3.4l-1.485,0.897c-0.668,0.399-1.152,0.78-1.453,1.143
			c-0.302,0.362-0.452,0.752-0.452,1.167c0,0.47,0.205,0.854,0.613,1.153c0.409,0.301,0.931,0.45,1.567,0.45
			c1.128,0,2.184-0.48,3.163-1.442v2.254c-0.947,0.65-1.989,0.977-3.125,0.977c-1.187,0-2.152-0.342-2.895-1.023
			c-0.744-0.683-1.116-1.569-1.116-2.662c0-0.728,0.197-1.372,0.589-1.932c0.394-0.56,1.054-1.128,1.982-1.706l1.479-0.918
			c1.194-0.758,1.791-1.56,1.791-2.403c0-0.522-0.203-0.955-0.607-1.302c-0.406-0.347-0.914-0.52-1.523-0.52
			c-1.383,0-2.6,0.68-3.65,2.039v-2.523c1.103-0.843,2.326-1.264,3.67-1.264c1.168,0,2.116,0.348,2.847,1.043s1.096,1.6,1.096,2.711
			C-71.901,1.103-72.731,2.389-74.391,3.4z"/>
		<path display="inline" fill="#231F1C" d="M-66.952-0.917c-1.013,0.979-1.519,2.231-1.519,3.754c0,1.511,0.514,2.767,1.543,3.771
			c1.028,1.002,2.321,1.505,3.879,1.505c1.519,0,3.072-0.464,4.663-1.392v2.136c-1.746,0.762-3.333,1.143-4.761,1.143
			c-2.069,0-3.812-0.689-5.222-2.066c-1.412-1.378-2.117-3.076-2.117-5.096c0-1.271,0.308-2.453,0.925-3.545
			c0.616-1.093,1.454-1.951,2.512-2.572c1.057-0.624,2.346-0.935,3.864-0.935c1.869,0,3.518,0.397,4.944,1.191v2.186
			c-1.57-1.032-3.18-1.55-4.828-1.55C-64.646-2.388-65.939-1.897-66.952-0.917z"/>
		<path display="inline" fill="#231F1C" d="M-49.372,10.019c-2.101,0-3.84-0.679-5.215-2.036c-1.374-1.357-2.062-3.072-2.062-5.146
			c0-2.02,0.683-3.7,2.048-5.041s3.071-2.011,5.121-2.011c2.146,0,3.926,0.67,5.336,2.011s2.116,3.035,2.116,5.081
			s-0.699,3.748-2.098,5.105C-45.522,9.34-47.271,10.019-49.372,10.019z M-45.556-0.868c-1.015-1.013-2.28-1.52-3.797-1.52
			c-1.511,0-2.769,0.497-3.774,1.49c-1.004,0.993-1.507,2.238-1.507,3.734c0,1.543,0.501,2.811,1.503,3.805
			c1.002,0.993,2.28,1.49,3.837,1.49c1.478,0,2.724-0.503,3.738-1.505c1.016-1.004,1.522-2.24,1.522-3.711
			C-44.033,1.407-44.54,0.146-45.556-0.868z"/>
		<path display="inline" fill="#231F1C" d="M-36.081,0.076L-40.17,9.82h-1.96l5.86-13.936h0.44L-30.08,9.82h-1.938L-36.081,0.076z"
			/>
		<path display="inline" fill="#231F1C" d="M-26.843,2.043h5.568V3.82h-5.568v4.232h5.762V9.82h-7.708V-4.036h7.895v1.768h-5.948
			V2.043z"/>
		<path display="inline" fill="#231F1C" d="M-10.338-1.284c-0.753,1.251-1.337,2.128-1.752,2.632
			c-0.416,0.503-0.841,0.899-1.276,1.191c0.74,0.292,1.308,0.732,1.704,1.321c0.396,0.589,0.594,1.287,0.594,2.097
			c0,1.185-0.404,2.125-1.212,2.82s-1.9,1.043-3.275,1.043h-3.407V-4.056h1.946v6.039h0.507c0.637,0,1.09-0.074,1.36-0.223
			c0.27-0.149,0.571-0.393,0.906-0.729s0.703-0.791,1.104-1.36l0.651-1.083l0.604-1.015l0.379-0.547
			c0.059-0.079,0.097-0.135,0.117-0.169l0.593-0.913h2.316L-9.2-3.062C-9.485-2.665-9.865-2.073-10.338-1.284z M-14.247,4.009
			c-0.366-0.172-1.043-0.257-2.029-0.257h-0.74v4.38h0.585c0.954,0,1.637-0.073,2.048-0.22c0.413-0.145,0.732-0.395,0.96-0.749
			c0.227-0.354,0.341-0.75,0.341-1.188c0-0.443-0.103-0.839-0.307-1.188C-13.595,4.441-13.88,4.182-14.247,4.009z"/>
		<path display="inline" fill="#231F1C" d="M-0.996,9.82l-3.688-4.784L-8.323,9.82h-2.351l5.022-6.536v-7.34h1.996v7.34L1.366,9.82
			H-0.996z"/>
		<path display="inline" fill="#231F1C" d="M-83.656-4.056h1.947V9.82h-1.947V-4.056z"/>
		<path display="inline" fill="#231F1C" d="M-74.391,3.4l-1.485,0.897c-0.668,0.399-1.152,0.78-1.453,1.143
			c-0.302,0.362-0.452,0.752-0.452,1.167c0,0.47,0.205,0.854,0.613,1.153c0.409,0.301,0.931,0.45,1.567,0.45
			c1.128,0,2.184-0.48,3.163-1.442v2.254c-0.947,0.65-1.989,0.977-3.125,0.977c-1.187,0-2.152-0.342-2.895-1.023
			c-0.744-0.683-1.116-1.569-1.116-2.662c0-0.728,0.197-1.372,0.589-1.932c0.394-0.56,1.054-1.128,1.982-1.706l1.479-0.918
			c1.194-0.758,1.791-1.56,1.791-2.403c0-0.522-0.203-0.955-0.607-1.302c-0.406-0.347-0.914-0.52-1.523-0.52
			c-1.383,0-2.6,0.68-3.65,2.039v-2.523c1.103-0.843,2.326-1.264,3.67-1.264c1.168,0,2.116,0.348,2.847,1.043s1.096,1.6,1.096,2.711
			C-71.901,1.103-72.731,2.389-74.391,3.4z"/>
		<path display="inline" fill="#231F1C" d="M-66.952-0.917c-1.013,0.979-1.519,2.231-1.519,3.754c0,1.511,0.514,2.767,1.543,3.771
			c1.028,1.002,2.321,1.505,3.879,1.505c1.519,0,3.072-0.464,4.663-1.392v2.136c-1.746,0.762-3.333,1.143-4.761,1.143
			c-2.069,0-3.812-0.689-5.222-2.066c-1.412-1.378-2.117-3.076-2.117-5.096c0-1.271,0.308-2.453,0.925-3.545
			c0.616-1.093,1.454-1.951,2.512-2.572c1.057-0.624,2.346-0.935,3.864-0.935c1.869,0,3.518,0.397,4.944,1.191v2.186
			c-1.57-1.032-3.18-1.55-4.828-1.55C-64.646-2.388-65.939-1.897-66.952-0.917z"/>
		<path display="inline" fill="#231F1C" d="M-49.372,10.019c-2.101,0-3.84-0.679-5.215-2.036c-1.374-1.357-2.062-3.072-2.062-5.146
			c0-2.02,0.683-3.7,2.048-5.041s3.071-2.011,5.121-2.011c2.146,0,3.926,0.67,5.336,2.011s2.116,3.035,2.116,5.081
			s-0.699,3.748-2.098,5.105C-45.522,9.34-47.271,10.019-49.372,10.019z M-45.556-0.868c-1.015-1.013-2.28-1.52-3.797-1.52
			c-1.511,0-2.769,0.497-3.774,1.49c-1.004,0.993-1.507,2.238-1.507,3.734c0,1.543,0.501,2.811,1.503,3.805
			c1.002,0.993,2.28,1.49,3.837,1.49c1.478,0,2.724-0.503,3.738-1.505c1.016-1.004,1.522-2.24,1.522-3.711
			C-44.033,1.407-44.54,0.146-45.556-0.868z"/>
		<path display="inline" fill="#231F1C" d="M-36.081,0.076L-40.17,9.82h-1.96l5.86-13.936h0.44L-30.08,9.82h-1.938L-36.081,0.076z"
			/>
		<path display="inline" fill="#231F1C" d="M-26.843,2.043h5.568V3.82h-5.568v4.232h5.762V9.82h-7.708V-4.036h7.895v1.768h-5.948
			V2.043z"/>
		<path display="inline" fill="#231F1C" d="M-10.338-1.284c-0.753,1.251-1.337,2.128-1.752,2.632
			c-0.416,0.503-0.841,0.899-1.276,1.191c0.74,0.292,1.308,0.732,1.704,1.321c0.396,0.589,0.594,1.287,0.594,2.097
			c0,1.185-0.404,2.125-1.212,2.82s-1.9,1.043-3.275,1.043h-3.407V-4.056h1.946v6.039h0.507c0.637,0,1.09-0.074,1.36-0.223
			c0.27-0.149,0.571-0.393,0.906-0.729s0.703-0.791,1.104-1.36l0.651-1.083l0.604-1.015l0.379-0.547
			c0.059-0.079,0.097-0.135,0.117-0.169l0.593-0.913h2.316L-9.2-3.062C-9.485-2.665-9.865-2.073-10.338-1.284z M-14.247,4.009
			c-0.366-0.172-1.043-0.257-2.029-0.257h-0.74v4.38h0.585c0.954,0,1.637-0.073,2.048-0.22c0.413-0.145,0.732-0.395,0.96-0.749
			c0.227-0.354,0.341-0.75,0.341-1.188c0-0.443-0.103-0.839-0.307-1.188C-13.595,4.441-13.88,4.182-14.247,4.009z"/>
		<path display="inline" fill="#231F1C" d="M-0.996,9.82l-3.688-4.784L-8.323,9.82h-2.351l5.022-6.536v-7.34h1.996v7.34L1.366,9.82
			H-0.996z"/>
	</g>
	<g id="Discovery_5_">
		<path fill="#231F1C" d="M-82.969-16.185h2.795V3.734h-2.795V-16.185z"/>
		<path fill="#231F1C" d="M-69.669-5.481l-2.133,1.288c-0.957,0.573-1.652,1.12-2.086,1.641c-0.432,0.52-0.648,1.079-0.648,1.675
			c0,0.675,0.295,1.226,0.881,1.655c0.588,0.432,1.336,0.646,2.25,0.646c1.619,0,3.135-0.689,4.541-2.07v3.235
			c-1.361,0.934-2.855,1.401-4.486,1.401c-1.703,0-3.09-0.49-4.154-1.469c-1.068-0.979-1.604-2.253-1.604-3.821
			c0-1.044,0.283-1.97,0.846-2.772c0.564-0.804,1.512-1.619,2.846-2.449l2.123-1.317c1.713-1.088,2.57-2.239,2.57-3.45
			c0-0.75-0.291-1.371-0.873-1.869c-0.582-0.497-1.311-0.745-2.186-0.745c-1.986,0-3.732,0.976-5.24,2.927v-3.622
			c1.582-1.21,3.34-1.813,5.268-1.813c1.678,0,3.037,0.498,4.086,1.496s1.574,2.297,1.574,3.892
			C-66.095-8.78-67.286-6.934-69.669-5.481z"/>
		<path fill="#231F1C" d="M-58.991-11.679c-1.453,1.406-2.18,3.203-2.18,5.389c0,2.168,0.736,3.971,2.215,5.412
			c1.477,1.438,3.332,2.16,5.568,2.16c2.18,0,4.41-0.666,6.693-1.997v3.065c-2.506,1.093-4.785,1.64-6.834,1.64
			c-2.971,0-5.471-0.989-7.496-2.966c-2.027-1.978-3.039-4.416-3.039-7.314c0-1.824,0.441-3.521,1.328-5.089
			c0.885-1.568,2.088-2.801,3.605-3.692c1.518-0.896,3.367-1.341,5.547-1.341c2.684,0,5.049,0.57,7.098,1.71v3.137
			c-2.254-1.481-4.564-2.225-6.932-2.225C-55.681-13.79-57.538-13.086-58.991-11.679z"/>
		<path fill="#231F1C" d="M-33.757,4.019c-3.016,0-5.512-0.975-7.484-2.923S-44.2-3.314-44.2-6.29c0-2.899,0.979-5.312,2.939-7.236
			c1.959-1.925,4.408-2.886,7.35-2.886c3.082,0,5.637,0.961,7.66,2.886s3.037,4.356,3.037,7.294c0,2.937-1.004,5.38-3.01,7.328
			S-30.741,4.019-33.757,4.019z M-28.278-11.608c-1.457-1.454-3.273-2.182-5.449-2.182c-2.17,0-3.975,0.714-5.418,2.14
			c-1.441,1.426-2.164,3.213-2.164,5.36c0,2.215,0.719,4.034,2.158,5.461c1.438,1.426,3.273,2.14,5.508,2.14
			c2.121,0,3.908-0.723,5.365-2.16c1.459-1.441,2.186-3.216,2.186-5.327C-26.093-8.343-26.819-10.153-28.278-11.608z"/>
		<path fill="#231F1C" d="M-14.679-10.253l-5.869,13.987h-2.812l8.412-20.004h0.633l8.252,20.004h-2.783L-14.679-10.253z"/>
		<path fill="#231F1C" d="M-1.417-7.43h7.994v2.551h-7.994v6.076h8.271v2.537H-4.21v-19.891H7.122v2.537h-8.539V-7.43z"/>
		<path fill="#231F1C" d="M22.274-12.206c-1.08,1.796-1.918,3.055-2.514,3.778c-0.598,0.722-1.207,1.291-1.832,1.71
			c1.062,0.419,1.877,1.052,2.445,1.896c0.568,0.846,0.852,1.848,0.852,3.01c0,1.7-0.58,3.05-1.738,4.049
			c-1.16,0.998-2.729,1.497-4.701,1.497H9.894v-19.919h2.795v8.669h0.727c0.914,0,1.564-0.106,1.953-0.319
			c0.387-0.215,0.82-0.563,1.301-1.047c0.48-0.484,1.01-1.136,1.584-1.953l0.936-1.555l0.865-1.456l0.545-0.785
			c0.084-0.113,0.139-0.193,0.168-0.242l0.852-1.312h3.324l-1.035,1.426C23.499-14.188,22.954-13.339,22.274-12.206z M16.663-4.608
			c-0.525-0.246-1.496-0.368-2.912-0.368h-1.062v6.287h0.84c1.369,0,2.35-0.105,2.939-0.315c0.592-0.208,1.051-0.566,1.377-1.075
			s0.49-1.077,0.49-1.705c0-0.636-0.148-1.204-0.441-1.704C17.601-3.987,17.19-4.36,16.663-4.608z"/>
		<path fill="#231F1C" d="M35.685,3.734L30.39-3.134l-5.223,6.868h-3.375l7.211-9.383v-10.536h2.865v10.536l7.207,9.383H35.685z"/>
	</g>
	<path id="X_2_" display="none" fill="#25AD81" d="M-108.777-6.082c-0.02-0.211-0.058-0.382-0.113-0.506
		c-0.055-0.126-0.137-0.213-0.247-0.26c-0.108-0.044-0.246-0.051-0.413-0.018c-0.166,0.036-0.854,0.321-1.094,0.428
		c-0.234,0.104-0.414,0.196-0.541,0.276c-0.128,0.08-0.223,0.161-0.283,0.244c-0.062,0.083-0.098,0.17-0.107,0.262
		c-0.01,0.091-0.012,0.189-0.002,0.296c0,0,0.319,2.256,0.399,2.992c0.085,0.78,0.054,0.754,0.25,1.737
		c0.105,0.526,0.231,2.126,0.231,2.126s-2.151-1.85-2.926-2.808c-0.478-0.591-1.871-1.85-2.402-2.385
		c-0.156-0.155-0.594-0.767-0.594-0.767c-0.072-0.077-0.146-0.146-0.221-0.197c-0.075-0.055-0.164-0.086-0.268-0.096
		c-0.101-0.01-0.223,0.005-0.363,0.043c-0.142,0.04-0.722,0.286-0.939,0.383c-0.226,0.1-0.402,0.199-0.533,0.296
		c-0.129,0.098-0.209,0.2-0.239,0.308c-0.032,0.108-0.017,0.226,0.042,0.35c0.061,0.123,0.166,0.261,0.318,0.415
		c0,0,1.549,1.358,2.004,1.875c0.777,0.884,1.729,1.604,2.447,2.335c0.684,0.693,2.686,2.843,2.686,2.843s0.209,1.808,0.245,2.364
		c0.051,0.781-0.019,2.36,0.105,3.76c0.073,0.839,0.275,3.821,0.275,3.82c0.02,0.213,0.055,0.383,0.107,0.51
		c0.052,0.127,0.134,0.217,0.245,0.271c0.113,0.052,0.25,0.06,0.414,0.019c0.162-0.042,0.77-0.295,1.019-0.406
		c0.226-0.1,0.402-0.189,0.529-0.271c0.128-0.08,0.222-0.157,0.282-0.23c0.061-0.074,0.094-0.154,0.104-0.236
		c0.01-0.084,0.01-0.18-0.001-0.285c0,0-0.32-1.475-0.351-1.896c-0.061-0.836-0.267-1.986-0.242-3.109
		c0.014-0.642-0.188-2.777-0.188-2.777s1.798,1.658,2.411,2.429c0.442,0.556,0.363,0.38,0.86,0.88
		c0.25,0.253,0.936,1.064,0.936,1.064c0.066,0.066,0.133,0.123,0.202,0.171c0.067,0.049,0.146,0.082,0.231,0.099
		c0.087,0.018,0.195,0.009,0.324-0.025c0.13-0.033,0.783-0.312,0.992-0.405c0.227-0.1,0.404-0.195,0.537-0.286
		c0.132-0.09,0.217-0.188,0.255-0.29c0.038-0.104,0.023-0.22-0.043-0.349c-0.065-0.129-0.179-0.277-0.337-0.443
		c0,0-0.912-1.012-1.242-1.338c-0.717-0.706-0.869-0.705-1.551-1.521c-0.572-0.684-2.525-2.488-2.525-2.488s-0.264-2.666-0.32-3.529
		c-0.081-1.215-0.131-2.168-0.314-3.552C-108.798-4.519-108.777-6.082-108.777-6.082z"/>
	
		<use xlink:href="#xD-23__x7C__110_x25__-_based_on_golde_2"  width="64.906" height="59.13" x="-35.033" y="-29.376" transform="matrix(0.5563 0 0 0.5563 -102.5918 -0.1289)" display="none" overflow="visible"/>
	
		<use xlink:href="#xD-23__x7C__110_x25__-_based_on_golde_1"  width="64.933" height="59.23" id="XMLID_4_" x="-35.033" y="-29.476" transform="matrix(0.5561 0 0 0.5561 -102.5918 -0.1289)" overflow="visible"/>
</symbol>
<use xlink:href="#xDiscovery_-_Logotipo_-_XD_based_on_logarithmic_spiral_1"  width="161.156" height="32.944" id="XMLID_3_" x="-122.08" y="-16.521" transform="matrix(1.1231 0 0 -1.1231 137.1128 18.4453)" overflow="visible"/>
</svg>
